<svg width="76" height="23" viewBox="0 0 76 23" fill="none" xmlns="http://www.w3.org/2000/svg">
<path d="M74.814 20.0863C74.814 21.2641 73.8621 22.2181 72.6847 22.2181H3.00126C1.8244 22.2181 0.869141 21.2641 0.869141 20.0863V3.08555C0.869141 1.90831 1.8244 0.950928 3.00126 0.950928H72.6842C73.8621 0.950928 74.8135 1.90831 74.8135 3.08555L74.814 20.0863Z" fill="#4397F3"/>
<path d="M72.4594 0.976497C73.7416 0.976497 74.785 2.01733 74.785 3.29644V19.8724C74.785 21.1515 73.7416 22.1923 72.4594 22.1923H3.2226C1.94033 22.1923 0.896933 21.1515 0.896933 19.8724V3.29644C0.896933 2.01733 1.94033 0.976497 3.2226 0.976497H72.4594ZM72.4594 0.533784H3.2226C1.70008 0.533784 0.453125 1.77767 0.453125 3.29644V19.8724C0.453125 21.3911 1.70008 22.635 3.2226 22.635H72.4594C73.9819 22.635 75.2289 21.3911 75.2289 19.8724V3.29644C75.2289 1.77767 73.9819 0.533784 72.4594 0.533784Z" fill="#4397F3"/>
<path d="M17.1414 11.4652C17.1254 9.68437 18.6032 8.818 18.6707 8.77767C17.8338 7.56044 16.5366 7.39413 16.0807 7.38087C14.9912 7.2665 13.9344 8.0312 13.3794 8.0312C12.8133 8.0312 11.9586 7.39192 11.0375 7.41071C9.85218 7.42894 8.74328 8.11353 8.13511 9.17659C6.87998 11.3442 7.81606 14.5295 9.01857 16.2816C9.6201 17.1397 10.323 18.0978 11.243 18.064C12.1431 18.027 12.4793 17.4916 13.5655 17.4916C14.6417 17.4916 14.9574 18.064 15.8957 18.0425C16.8617 18.027 17.4699 17.1806 18.0504 16.3147C18.7455 15.3312 19.0247 14.3626 19.0357 14.3129C19.013 14.3052 17.1597 13.5996 17.1414 11.4652Z" fill="white"/>
<path d="M15.369 6.22829C15.8531 5.62438 16.1843 4.80276 16.0924 3.96899C15.3917 3.99994 14.5154 4.45246 14.0108 5.04311C13.5644 5.5636 13.1656 6.4167 13.2686 7.21898C14.0557 7.27755 14.8638 6.82281 15.369 6.22829Z" fill="white"/>
<path d="M30.1664 17.9405H28.9085L28.2194 15.7806H25.8244L25.168 17.9405H23.9434L26.3162 10.5874H27.7818L30.1664 17.9405ZM28.0117 14.8745L27.3886 12.9544C27.3227 12.7583 27.1991 12.2964 27.0169 11.5692H26.9948C26.9222 11.882 26.8053 12.3439 26.6447 12.9544L26.0326 14.8745H28.0117Z" fill="white"/>
<path d="M36.2689 15.224C36.2689 16.1257 36.0247 16.8385 35.5361 17.3617C35.0985 17.8275 34.5552 18.0601 33.9066 18.0601C33.2064 18.0601 32.7035 17.8093 32.3972 17.3076H32.3751V20.1006H31.1941V14.3836C31.1941 13.8167 31.1792 13.2349 31.1504 12.6381H32.1889L32.2549 13.4785H32.277C32.6708 12.8453 33.2685 12.5293 34.0705 12.5293C34.6975 12.5293 35.221 12.7763 35.6397 13.2708C36.0596 13.7659 36.2689 14.4167 36.2689 15.224ZM35.0659 15.2671C35.0659 14.751 34.9496 14.3256 34.7158 13.9907C34.4605 13.6415 34.1176 13.4669 33.6878 13.4669C33.3964 13.4669 33.1317 13.5642 32.8952 13.7559C32.6581 13.9493 32.503 14.2018 32.4304 14.5145C32.3939 14.6604 32.3756 14.7798 32.3756 14.8737V15.7577C32.3756 16.1434 32.4941 16.4688 32.7312 16.7346C32.9683 17.0004 33.2762 17.133 33.6551 17.133C34.0999 17.133 34.4461 16.9617 34.6937 16.6202C34.9418 16.2782 35.0659 15.8274 35.0659 15.2671Z" fill="white"/>
<path d="M42.3817 15.224C42.3817 16.1257 42.1374 16.8385 41.6483 17.3617C41.2113 17.8275 40.6679 18.0601 40.0193 18.0601C39.3192 18.0601 38.8162 17.8093 38.5105 17.3076H38.4883V20.1006H37.3074V14.3836C37.3074 13.8167 37.2925 13.2349 37.2637 12.6381H38.3022L38.3681 13.4785H38.3903C38.7836 12.8453 39.3812 12.5293 40.1838 12.5293C40.8103 12.5293 41.3337 12.7763 41.7535 13.2708C42.1717 13.7659 42.3817 14.4167 42.3817 15.224ZM41.1786 15.2671C41.1786 14.751 41.0617 14.3256 40.828 13.9907C40.5726 13.6415 40.2309 13.4669 39.8005 13.4669C39.5086 13.4669 39.2444 13.5642 39.0073 13.7559C38.7703 13.9493 38.6157 14.2018 38.5432 14.5145C38.5072 14.6604 38.4883 14.7798 38.4883 14.8737V15.7577C38.4883 16.1434 38.6069 16.4688 38.8428 16.7346C39.0799 16.9998 39.3879 17.133 39.7678 17.133C40.2126 17.133 40.5588 16.9617 40.8064 16.6202C41.0545 16.2782 41.1786 15.8274 41.1786 15.2671Z" fill="white"/>
<path d="M49.2165 15.8783C49.2165 16.5037 48.9988 17.0126 48.5618 17.4055C48.0816 17.8348 47.413 18.0492 46.5539 18.0492C45.7608 18.0492 45.1249 17.8967 44.6436 17.5911L44.9172 16.6093C45.4356 16.922 46.0045 17.0789 46.6243 17.0789C47.0691 17.0789 47.4152 16.9784 47.6639 16.7783C47.9115 16.5783 48.035 16.3098 48.035 15.975C48.035 15.6766 47.9331 15.4252 47.7287 15.2213C47.5255 15.0174 47.1859 14.8279 46.7118 14.6528C45.4212 14.1726 44.7765 13.4692 44.7765 12.5443C44.7765 11.9398 45.0025 11.4442 45.455 11.0585C45.9059 10.6723 46.5074 10.4795 47.2596 10.4795C47.9304 10.4795 48.4876 10.5961 48.9324 10.8287L48.6371 11.789C48.2217 11.5636 47.752 11.4508 47.2264 11.4508C46.8109 11.4508 46.4864 11.5531 46.2537 11.7564C46.0571 11.9382 45.9585 12.1597 45.9585 12.4222C45.9585 12.7128 46.0709 12.9532 46.2969 13.1421C46.4936 13.3167 46.8508 13.5057 47.3693 13.7096C48.0035 13.9643 48.4693 14.2621 48.769 14.6036C49.0675 14.9439 49.2165 15.3699 49.2165 15.8783Z" fill="white"/>
<path d="M53.1207 13.5225H51.8191V16.0968C51.8191 16.7515 52.0484 17.0786 52.5081 17.0786C52.7192 17.0786 52.8942 17.0604 53.0327 17.0239L53.0654 17.9185C52.8327 18.0052 52.5264 18.0489 52.147 18.0489C51.6806 18.0489 51.3162 17.9069 51.0531 17.6234C50.7911 17.3394 50.6592 16.8631 50.6592 16.194V13.5214H49.8838V12.6374H50.6592V11.6666L51.8191 11.3174V12.6374H53.1207V13.5225Z" fill="white"/>
<path d="M58.9941 15.2452C58.9941 16.0602 58.7604 16.7293 58.294 17.2526C57.8049 17.7913 57.1558 18.0598 56.3465 18.0598C55.5666 18.0598 54.9457 17.8018 54.4827 17.2857C54.0196 16.7697 53.7881 16.1182 53.7881 15.3331C53.7881 14.5115 54.0263 13.8385 54.5043 13.3152C54.9812 12.7914 55.6248 12.5295 56.434 12.5295C57.2139 12.5295 57.8415 12.7876 58.3151 13.3042C58.7681 13.8053 58.9941 14.4523 58.9941 15.2452ZM57.7689 15.2834C57.7689 14.7944 57.6642 14.375 57.4521 14.0252C57.2045 13.602 56.8506 13.3909 56.3919 13.3909C55.9173 13.3909 55.5567 13.6026 55.3091 14.0252C55.0969 14.3755 54.9923 14.8015 54.9923 15.3055C54.9923 15.7944 55.0969 16.2138 55.3091 16.563C55.5644 16.9863 55.9211 17.1973 56.3814 17.1973C56.8323 17.1973 57.1862 16.9818 57.4416 16.552C57.6593 16.1956 57.7689 15.7718 57.7689 15.2834Z" fill="white"/>
<path d="M62.832 13.6741C62.7151 13.6526 62.5905 13.6415 62.4598 13.6415C62.0443 13.6415 61.7231 13.7979 61.4971 14.1112C61.3005 14.3875 61.2019 14.7367 61.2019 15.1582V17.9402H60.0215L60.0326 14.3079C60.0326 13.6968 60.0176 13.1404 59.9883 12.6387H61.0169L61.0601 13.6531H61.0928C61.2174 13.3045 61.414 13.0238 61.6832 12.8133C61.9463 12.6238 62.2305 12.5293 62.5368 12.5293C62.6459 12.5293 62.7445 12.537 62.832 12.5508V13.6741Z" fill="white"/>
<path d="M68.1142 15.0385C68.1142 15.2496 68.1004 15.4275 68.071 15.5728H64.5283C64.5422 16.0966 64.7133 16.4972 65.0423 16.7735C65.3409 17.0204 65.727 17.1442 66.2011 17.1442C66.7256 17.1442 67.2042 17.0608 67.6346 16.8934L67.8196 17.7111C67.3166 17.9299 66.7228 18.0388 66.0377 18.0388C65.2135 18.0388 64.5665 17.7968 64.0957 17.3133C63.626 16.8298 63.3906 16.1806 63.3906 15.3662C63.3906 14.5667 63.6094 13.9009 64.0475 13.3699C64.5062 12.803 65.126 12.5195 65.9059 12.5195C66.6719 12.5195 67.2518 12.803 67.6456 13.3699C67.9575 13.8202 68.1142 14.3771 68.1142 15.0385ZM66.9882 14.733C66.9959 14.3838 66.9189 14.0821 66.7589 13.8274C66.5545 13.4997 66.2404 13.3362 65.8178 13.3362C65.4317 13.3362 65.1177 13.4959 64.8778 13.8163C64.6812 14.071 64.5643 14.3766 64.5283 14.7324H66.9882V14.733Z" fill="white"/>
<path d="M27.6212 6.06357C27.6212 6.7139 27.4256 7.20344 27.0351 7.5322C26.6734 7.83554 26.1594 7.98748 25.4937 7.98748C25.1635 7.98748 24.881 7.97312 24.6445 7.94439V4.39106C24.9531 4.34133 25.2854 4.31592 25.6443 4.31592C26.2785 4.31592 26.7565 4.4535 27.0789 4.72866C27.44 5.03973 27.6212 5.48452 27.6212 6.06357ZM27.0091 6.0796C27.0091 5.65801 26.8972 5.33478 26.6734 5.10935C26.4497 4.88447 26.1229 4.77176 25.6925 4.77176C25.5097 4.77176 25.3541 4.78391 25.225 4.80933V7.51065C25.2965 7.5217 25.4272 7.52667 25.6172 7.52667C26.0614 7.52667 26.4043 7.40346 26.6458 7.15703C26.8873 6.9106 27.0091 6.55146 27.0091 6.0796Z" fill="white"/>
<path d="M30.8669 6.63166C30.8669 7.03224 30.7522 7.36045 30.5229 7.61793C30.2825 7.88259 29.9641 8.01464 29.5664 8.01464C29.1831 8.01464 28.8779 7.88811 28.6502 7.63395C28.4231 7.38034 28.3096 7.06042 28.3096 6.67476C28.3096 6.27141 28.4264 5.94044 28.6613 5.68352C28.8961 5.42659 29.2119 5.29785 29.6096 5.29785C29.9929 5.29785 30.3008 5.42438 30.534 5.67799C30.7556 5.92442 30.8669 6.24268 30.8669 6.63166ZM30.2648 6.65045C30.2648 6.4101 30.2128 6.204 30.1092 6.03216C29.9873 5.82441 29.8139 5.72054 29.5885 5.72054C29.3553 5.72054 29.1781 5.82441 29.0562 6.03216C28.9521 6.204 28.9006 6.41341 28.9006 6.66094C28.9006 6.90129 28.9526 7.10739 29.0562 7.27923C29.182 7.48698 29.357 7.59085 29.583 7.59085C29.8045 7.59085 29.9785 7.48532 30.1036 7.2737C30.2111 7.09855 30.2648 6.8908 30.2648 6.65045Z" fill="white"/>
<path d="M35.2177 5.35132L34.4007 7.95595H33.8689L33.5305 6.82492C33.4447 6.54257 33.3749 6.26189 33.3206 5.98341H33.3101C33.2596 6.26962 33.1899 6.54976 33.1001 6.82492L32.7407 7.95595H32.2028L31.4346 5.35132H32.0311L32.3263 6.58954C32.3978 6.88238 32.4565 7.16141 32.5036 7.42552H32.5141C32.5573 7.20782 32.6288 6.93045 32.7296 6.59507L33.1001 5.35187H33.5732L33.9282 6.56854C34.0141 6.86525 34.0838 7.15091 34.1376 7.42607H34.1536C34.193 7.15809 34.2522 6.87244 34.3309 6.56854L34.6477 5.35187H35.2177V5.35132Z" fill="white"/>
<path d="M38.2272 7.95596H37.6467V6.46413C37.6467 6.00442 37.4716 5.77457 37.1205 5.77457C36.9482 5.77457 36.8092 5.83756 36.7012 5.96409C36.5943 6.09062 36.54 6.2398 36.54 6.41053V7.95541H35.9595V6.09559C35.9595 5.86684 35.9523 5.61876 35.9385 5.35023H36.4486L36.4758 5.75744H36.4918C36.5594 5.63091 36.6602 5.52648 36.7926 5.44305C36.9499 5.34581 37.126 5.29663 37.3188 5.29663C37.5625 5.29663 37.7652 5.37509 37.9264 5.53256C38.1269 5.72539 38.2272 6.01326 38.2272 6.39561V7.95596Z" fill="white"/>
<path d="M39.828 7.95625H39.248V4.15649H39.828V7.95625Z" fill="white"/>
<path d="M43.2458 6.63166C43.2458 7.03224 43.1312 7.36045 42.9018 7.61793C42.6614 7.88259 42.3424 8.01464 41.9453 8.01464C41.5614 8.01464 41.2562 7.88811 41.0291 7.63395C40.802 7.38034 40.6885 7.06042 40.6885 6.67476C40.6885 6.27141 40.8053 5.94044 41.0402 5.68352C41.2751 5.42659 41.5908 5.29785 41.9879 5.29785C42.3718 5.29785 42.6792 5.42438 42.9129 5.67799C43.1345 5.92442 43.2458 6.24268 43.2458 6.63166ZM42.6432 6.65045C42.6432 6.4101 42.5911 6.204 42.4875 6.03216C42.3662 5.82441 42.1923 5.72054 41.9674 5.72054C41.7337 5.72054 41.5564 5.82441 41.4351 6.03216C41.331 6.204 41.2795 6.41341 41.2795 6.66094C41.2795 6.90129 41.3315 7.10739 41.4351 7.27923C41.5609 7.48698 41.7359 7.59085 41.9619 7.59085C42.1834 7.59085 42.3568 7.48532 42.482 7.2737C42.59 7.09855 42.6432 6.8908 42.6432 6.65045Z" fill="white"/>
<path d="M46.0547 7.95552H45.5335L45.4903 7.6555H45.4742C45.2959 7.89474 45.0416 8.01464 44.7115 8.01464C44.465 8.01464 44.2656 7.93563 44.1155 7.77871C43.9793 7.63616 43.9111 7.4588 43.9111 7.24828C43.9111 6.93003 44.0441 6.68747 44.3116 6.5195C44.5786 6.35153 44.9541 6.2692 45.4377 6.27307V6.22445C45.4377 5.88132 45.2571 5.71004 44.8954 5.71004C44.6378 5.71004 44.4107 5.77469 44.2147 5.90287L44.0967 5.52273C44.3393 5.373 44.639 5.29785 44.9923 5.29785C45.6747 5.29785 46.017 5.657 46.017 6.37529V7.33448C46.017 7.59472 46.0298 7.80192 46.0547 7.95552ZM45.4521 7.06042V6.65873C44.8118 6.64768 44.4916 6.82284 44.4916 7.18364C44.4916 7.31956 44.5282 7.42123 44.6029 7.48919C44.6777 7.55715 44.773 7.59085 44.8865 7.59085C45.0139 7.59085 45.133 7.55052 45.2416 7.4704C45.3507 7.38973 45.4177 7.28751 45.4426 7.16209C45.4487 7.13391 45.4521 7.09965 45.4521 7.06042Z" fill="white"/>
<path d="M49.3529 7.95625H48.8378L48.8106 7.53798H48.7945C48.63 7.85624 48.3498 8.01537 47.956 8.01537C47.6413 8.01537 47.3793 7.89215 47.1716 7.64573C46.9639 7.3993 46.8604 7.07938 46.8604 6.68653C46.8604 6.26495 46.9728 5.92349 47.1988 5.66269C47.4176 5.41958 47.6856 5.29802 48.0047 5.29802C48.3553 5.29802 48.6007 5.41571 48.7403 5.65164H48.7513V4.15649H49.3324V7.25453C49.3324 7.50814 49.339 7.74187 49.3529 7.95625ZM48.7513 6.85782V6.42353C48.7513 6.34838 48.7458 6.28761 48.7353 6.24119C48.7026 6.10195 48.6323 5.98482 48.5254 5.89034C48.4173 5.79585 48.2872 5.74834 48.1371 5.74834C47.9205 5.74834 47.751 5.83398 47.6264 6.00581C47.5029 6.17765 47.4403 6.39701 47.4403 6.66498C47.4403 6.92246 47.4995 7.13132 47.6186 7.29211C47.7444 7.46339 47.9139 7.54903 48.126 7.54903C48.3165 7.54903 48.4689 7.47776 48.5846 7.33465C48.6965 7.2026 48.7513 7.04347 48.7513 6.85782Z" fill="white"/>
<path d="M54.3171 6.63166C54.3171 7.03224 54.2024 7.36045 53.9731 7.61793C53.7327 7.88259 53.4148 8.01464 53.0166 8.01464C52.6338 8.01464 52.3286 7.88811 52.1004 7.63395C51.8733 7.38034 51.7598 7.06042 51.7598 6.67476C51.7598 6.27141 51.8766 5.94044 52.1115 5.68352C52.3463 5.42659 52.6621 5.29785 53.0603 5.29785C53.443 5.29785 53.7516 5.42438 53.9842 5.67799C54.2058 5.92442 54.3171 6.24268 54.3171 6.63166ZM53.7156 6.65045C53.7156 6.4101 53.6635 6.204 53.5599 6.03216C53.4375 5.82441 53.2647 5.72054 53.0387 5.72054C52.8061 5.72054 52.6288 5.82441 52.5064 6.03216C52.4023 6.204 52.3508 6.41341 52.3508 6.66094C52.3508 6.90129 52.4028 7.10739 52.5064 7.27923C52.6321 7.48698 52.8072 7.59085 53.0332 7.59085C53.2547 7.59085 53.4292 7.48532 53.5544 7.2737C53.6613 7.09855 53.7156 6.8908 53.7156 6.65045Z" fill="white"/>
<path d="M57.4385 7.95596H56.8586V6.46413C56.8586 6.00442 56.6836 5.77457 56.3318 5.77457C56.1596 5.77457 56.0206 5.83756 55.9131 5.96409C55.8056 6.09062 55.7519 6.2398 55.7519 6.41053V7.95541H55.1709V6.09559C55.1709 5.86684 55.1642 5.61876 55.1504 5.35023H55.66L55.6871 5.75744H55.7032C55.7713 5.63091 55.8721 5.52648 56.0039 5.44305C56.1618 5.34581 56.3374 5.29663 56.5307 5.29663C56.7739 5.29663 56.9766 5.37509 57.1378 5.53256C57.3388 5.72539 57.4385 6.01326 57.4385 6.39561V7.95596Z" fill="white"/>
<path d="M61.3461 5.78504H60.7069V7.05034C60.7069 7.37191 60.8204 7.5327 61.0453 7.5327C61.1495 7.5327 61.2359 7.52386 61.304 7.50562L61.3189 7.94489C61.2043 7.98798 61.0536 8.00953 60.8681 8.00953C60.6388 8.00953 60.4604 7.93991 60.3314 7.80068C60.2017 7.66144 60.1375 7.42716 60.1375 7.09841V5.78504H59.7559V5.35131H60.1375V4.87392L60.7063 4.70264V5.35076H61.3455V5.78504H61.3461Z" fill="white"/>
<path d="M64.418 7.95625H63.837V6.47547C63.837 6.00858 63.662 5.77486 63.3114 5.77486C63.0422 5.77486 62.8583 5.91023 62.7575 6.18097C62.7403 6.23788 62.7303 6.3075 62.7303 6.38927V7.95569H62.1504V4.15649H62.7303V5.72623H62.7414C62.9242 5.44058 63.1862 5.29802 63.5257 5.29802C63.7661 5.29802 63.965 5.37648 64.1228 5.53395C64.3194 5.7301 64.418 6.02184 64.418 6.4075V7.95625Z" fill="white"/>
<path d="M67.5889 6.53033C67.5889 6.6342 67.5812 6.7215 67.5673 6.79278H65.8265C65.8342 7.05026 65.9173 7.24641 66.0785 7.38233C66.2258 7.50389 66.4158 7.56467 66.6484 7.56467C66.906 7.56467 67.1408 7.52378 67.3524 7.44145L67.4433 7.84369C67.1957 7.95088 66.9043 8.00448 66.567 8.00448C66.1627 8.00448 65.8442 7.88569 65.6138 7.6481C65.3822 7.41051 65.2676 7.0917 65.2676 6.69167C65.2676 6.29882 65.3745 5.97172 65.5899 5.71093C65.8148 5.43245 66.1189 5.29321 66.5028 5.29321C66.8783 5.29321 67.1636 5.43245 67.3563 5.71093C67.512 5.93194 67.5889 6.20544 67.5889 6.53033ZM67.0351 6.38059C67.0395 6.20876 67.0013 6.06068 66.9226 5.93581C66.8218 5.77502 66.6684 5.69435 66.4607 5.69435C66.2712 5.69435 66.1167 5.77281 65.9987 5.93028C65.9023 6.05571 65.8453 6.20544 65.8265 6.38059H67.0351Z" fill="white"/>
</svg>
