<svg width="75" height="23" viewBox="0 0 75 23" fill="none" xmlns="http://www.w3.org/2000/svg">
<path d="M72.1358 22.635H2.99418C1.47376 22.635 0.228516 21.3911 0.228516 19.8724V3.29644C0.228516 1.77768 1.47376 0.533791 2.99418 0.533791H72.1358C73.6562 0.533791 74.9015 1.77768 74.9015 3.29644V19.8724C74.9015 21.3911 73.6562 22.635 72.1358 22.635Z" fill="#4397F3"/>
<path d="M72.1358 0.976504C73.4163 0.976504 74.4583 2.01734 74.4583 3.29644V19.8724C74.4583 21.1515 73.4163 22.1923 72.1358 22.1923H2.99418C1.71368 22.1923 0.671713 21.1515 0.671713 19.8724V3.29644C0.671713 2.01734 1.71368 0.976504 2.99418 0.976504H72.1358ZM72.1358 0.533791H2.99418C1.47376 0.533791 0.228516 1.77768 0.228516 3.29644V19.8724C0.228516 21.3911 1.47376 22.635 2.99418 22.635H72.1358C73.6562 22.635 74.9015 21.3911 74.9015 19.8724V3.29644C74.9015 1.77768 73.6562 0.533791 72.1358 0.533791Z" fill="#4397F3"/>
<path d="M26.4563 6.19377C26.4563 6.65513 26.318 7.02464 26.0456 7.30021C25.7324 7.62689 25.3245 7.79127 24.8246 7.79127C24.3468 7.79127 23.9389 7.62413 23.6042 7.29468C23.2689 6.9604 23.1016 6.55015 23.1016 6.05909C23.1016 5.56803 23.2689 5.15777 23.6042 4.82625C23.9389 4.49405 24.3468 4.3269 24.8246 4.3269C25.0624 4.3269 25.2892 4.37594 25.5056 4.46711C25.7213 4.55897 25.897 4.68329 26.0242 4.83661L25.7352 5.12807C25.5132 4.86631 25.2111 4.73716 24.8246 4.73716C24.4761 4.73716 24.1739 4.85871 23.9174 5.1039C23.6637 5.34978 23.5365 5.66817 23.5365 6.05909C23.5365 6.45 23.6637 6.77116 23.9174 7.01704C24.1739 7.25946 24.4761 7.38378 24.8246 7.38378C25.1945 7.38378 25.5056 7.25946 25.7511 7.01427C25.9129 6.85197 26.0048 6.62819 26.029 6.34226H24.8246V5.94306H26.4314C26.4508 6.02939 26.4563 6.11296 26.4563 6.19377Z" fill="white" stroke="white" stroke-width="0.0975706" stroke-miterlimit="10"/>
<path d="M29.006 4.80988H27.4966V5.85968H28.8573V6.25889H27.4966V7.3087H29.006V7.7155H27.0693V4.40308H29.006V4.80988Z" fill="white" stroke="white" stroke-width="0.0975706" stroke-miterlimit="10"/>
<path d="M30.8052 7.7155H30.378V4.80988H29.4521V4.40308H31.7317V4.80988H30.8052V7.7155Z" fill="white" stroke="white" stroke-width="0.0975706" stroke-miterlimit="10"/>
<path d="M33.3809 7.7155V4.40308H33.8075V7.7155H33.3809Z" fill="white" stroke="white" stroke-width="0.0975706" stroke-miterlimit="10"/>
<path d="M35.6988 7.7155H35.275V4.80988H34.3457V4.40308H36.6281V4.80988H35.6988V7.7155Z" fill="white" stroke="white" stroke-width="0.0975706" stroke-miterlimit="10"/>
<path d="M40.9441 7.28916C40.6171 7.62413 40.2119 7.79127 39.7286 7.79127C39.2425 7.79127 38.8374 7.62413 38.5103 7.28916C38.184 6.95488 38.0215 6.54462 38.0215 6.05909C38.0215 5.57355 38.184 5.1633 38.5103 4.82902C38.8374 4.49404 39.2425 4.3269 39.7286 4.3269C40.2091 4.3269 40.6143 4.49404 40.9413 4.83178C41.2705 5.16882 41.4329 5.57631 41.4329 6.05909C41.4329 6.54462 41.2705 6.95488 40.9441 7.28916ZM38.8263 7.01151C39.0724 7.25946 39.3718 7.38378 39.7286 7.38378C40.0826 7.38378 40.3847 7.25946 40.6281 7.01151C40.8736 6.76356 40.998 6.44517 40.998 6.05909C40.998 5.67301 40.8736 5.35461 40.6281 5.10666C40.3847 4.85872 40.0826 4.7344 39.7286 4.7344C39.3718 4.7344 39.0724 4.85872 38.8263 5.10666C38.5808 5.35461 38.4564 5.67301 38.4564 6.05909C38.4564 6.44517 38.5808 6.76356 38.8263 7.01151Z" fill="white" stroke="white" stroke-width="0.0975706" stroke-miterlimit="10"/>
<path d="M42.0322 7.7155V4.40308H42.5508L44.1632 6.97925H44.1818L44.1632 6.34246V4.40308H44.5898V7.7155H44.1445L42.4561 5.01224H42.4374L42.4561 5.65179V7.7155H42.0322Z" fill="white" stroke="white" stroke-width="0.0975706" stroke-miterlimit="10"/>
<path d="M37.9158 12.5531C36.6167 12.5531 35.5554 13.5407 35.5554 14.9034C35.5554 16.2551 36.6167 17.2531 37.9158 17.2531C39.2178 17.2531 40.2791 16.2551 40.2791 14.9034C40.2791 13.5407 39.2178 12.5531 37.9158 12.5531ZM37.9158 16.3276C37.203 16.3276 36.5897 15.7398 36.5897 14.9034C36.5897 14.056 37.203 13.4786 37.9158 13.4786C38.6287 13.4786 39.2447 14.056 39.2447 14.9034C39.2447 15.7398 38.6287 16.3276 37.9158 16.3276ZM32.7655 12.5531C31.4635 12.5531 30.405 13.5407 30.405 14.9034C30.405 16.2551 31.4635 17.2531 32.7655 17.2531C34.0667 17.2531 35.126 16.2551 35.126 14.9034C35.126 13.5407 34.0667 12.5531 32.7655 12.5531ZM32.7655 16.3276C32.0519 16.3276 31.4366 15.7398 31.4366 14.9034C31.4366 14.056 32.0519 13.4786 32.7655 13.4786C33.4783 13.4786 34.0916 14.056 34.0916 14.9034C34.0916 15.7398 33.4783 16.3276 32.7655 16.3276ZM26.6368 13.2735V14.2722H29.0242C28.9544 14.8302 28.7677 15.2405 28.4815 15.5264C28.133 15.8717 27.5902 16.2551 26.6368 16.2551C25.1675 16.2551 24.017 15.0706 24.017 13.6029C24.017 12.1352 25.1675 10.9508 26.6368 10.9508C27.4312 10.9508 28.0092 11.2609 28.4358 11.6628L29.1404 10.959C28.5437 10.3899 27.75 9.95275 26.6368 9.95275C24.622 9.95275 22.9287 11.5903 22.9287 13.6029C22.9287 15.6155 24.622 17.2531 26.6368 17.2531C27.7258 17.2531 28.5437 16.8967 29.1867 16.2281C29.8456 15.5699 30.051 14.6444 30.051 13.8971C30.051 13.6651 30.0316 13.4517 29.9971 13.2735H26.6368ZM51.6978 14.0477C51.5036 13.5221 50.9041 12.5531 49.6831 12.5531C48.4731 12.5531 47.4657 13.5055 47.4657 14.9034C47.4657 16.2198 48.4627 17.2531 49.7992 17.2531C50.8799 17.2531 51.5036 16.5949 51.7601 16.2115L50.958 15.6777C50.6904 16.0686 50.3261 16.3276 49.7992 16.3276C49.2758 16.3276 48.9004 16.0879 48.6598 15.6155L51.8064 14.315L51.6978 14.0477ZM48.4897 14.8302C48.4627 13.9241 49.1942 13.4599 49.7183 13.4599C50.129 13.4599 50.4775 13.6651 50.5936 13.9586L48.4897 14.8302ZM45.9321 17.1101H46.9665V10.2035H45.9321V17.1101ZM44.2382 13.0766H44.2036C43.9713 12.8017 43.5281 12.5531 42.9666 12.5531C41.7885 12.5531 40.7112 13.5863 40.7112 14.911C40.7112 16.2281 41.7885 17.2531 42.9666 17.2531C43.5281 17.2531 43.9713 17.0024 44.2036 16.7192H44.2382V17.0562C44.2382 17.9548 43.7576 18.4375 42.9825 18.4375C42.3506 18.4375 41.9586 17.9817 41.7968 17.5984L40.8972 17.9734C41.1565 18.5964 41.8431 19.363 42.9825 19.363C44.1953 19.363 45.2186 18.6503 45.2186 16.916V12.6961H44.2382V13.0766ZM43.0551 16.3276C42.3423 16.3276 41.7456 15.7315 41.7456 14.911C41.7456 14.0829 42.3423 13.4786 43.0551 13.4786C43.7576 13.4786 44.3114 14.0829 44.3114 14.911C44.3114 15.7315 43.7576 16.3276 43.0551 16.3276ZM56.5405 10.2035H54.0666V17.1101H55.0982V14.4932H56.5405C57.6862 14.4932 58.8097 13.6651 58.8097 12.348C58.8097 11.0316 57.6834 10.2035 56.5405 10.2035ZM56.5675 13.5325H55.0982V11.1642H56.5675C57.3377 11.1642 57.7775 11.803 57.7775 12.348C57.7775 12.8825 57.3377 13.5325 56.5675 13.5325ZM62.9444 12.54C62.1991 12.54 61.424 12.8687 61.1052 13.5974L62.0207 13.9807C62.2177 13.5974 62.58 13.4731 62.9631 13.4731C63.4982 13.4731 64.041 13.7942 64.0493 14.3613V14.4338C63.8626 14.326 63.463 14.1665 62.9714 14.1665C61.9854 14.1665 60.9808 14.7087 60.9808 15.7205C60.9808 16.646 61.7884 17.242 62.6962 17.242C63.3904 17.242 63.7734 16.9291 64.014 16.5652H64.0493V17.099H65.0456V14.4497C65.0456 13.2251 64.1302 12.54 62.9444 12.54ZM62.82 16.3248C62.4825 16.3248 62.0124 16.1577 62.0124 15.7398C62.0124 15.2052 62.5987 15.0001 63.1062 15.0001C63.5605 15.0001 63.7734 15.1003 64.0493 15.2322C63.9684 15.8717 63.4173 16.3248 62.82 16.3248ZM68.6756 12.6912L67.4898 15.6853H67.4545L66.2286 12.6912H65.1161L66.9581 16.8753L65.9071 19.2035H66.985L69.8233 12.6912H68.6756ZM59.3767 17.1101H60.4111V10.2035H59.3767V17.1101Z" fill="white"/>
<path d="M6.00066 4.69926C5.83817 4.86916 5.74414 5.13369 5.74414 5.47626V17.6955C5.74414 18.038 5.83817 18.3026 6.00066 18.4725L6.04076 18.5098L12.8955 11.6653V11.5037L6.04076 4.6592L6.00066 4.69926Z" fill="url(#paint0_linear_1329_2997)"/>
<path d="M15.1779 13.9478L12.8955 11.6651V11.5035L15.1806 9.22085L15.2318 9.25055L17.938 10.7887C18.7103 11.2252 18.7103 11.9434 17.938 12.3827L15.2318 13.9181L15.1779 13.9478Z" fill="url(#paint1_linear_1329_2997)"/>
<path d="M15.2311 13.9182L12.8948 11.5844L6 18.4724C6.25652 18.7418 6.67482 18.7742 7.15052 18.5049L15.2311 13.9182Z" fill="url(#paint2_linear_1329_2997)"/>
<path d="M15.2311 9.25048L7.15052 4.66379C6.67482 4.39719 6.25652 4.42965 6 4.69901L12.8948 11.5842L15.2311 9.25048Z" fill="url(#paint3_linear_1329_2997)"/>
<defs>
<linearGradient id="paint0_linear_1329_2997" x1="12.2868" y1="17.8227" x2="3.01406" y2="8.53983" gradientUnits="userSpaceOnUse">
<stop stop-color="#00A0FF"/>
<stop offset="0.0066" stop-color="#00A1FF"/>
<stop offset="0.2601" stop-color="#00BEFF"/>
<stop offset="0.5122" stop-color="#00D2FF"/>
<stop offset="0.7604" stop-color="#00DFFF"/>
<stop offset="1" stop-color="#00E3FF"/>
</linearGradient>
<linearGradient id="paint1_linear_1329_2997" x1="18.9437" y1="11.5835" x2="5.55958" y2="11.5835" gradientUnits="userSpaceOnUse">
<stop stop-color="#FFE000"/>
<stop offset="0.4087" stop-color="#FFBD00"/>
<stop offset="0.7754" stop-color="#FFA500"/>
<stop offset="1" stop-color="#FF9C00"/>
</linearGradient>
<linearGradient id="paint2_linear_1329_2997" x1="13.9607" y1="10.3158" x2="1.38604" y2="-2.27258" gradientUnits="userSpaceOnUse">
<stop stop-color="#FF3A44"/>
<stop offset="1" stop-color="#C31162"/>
</linearGradient>
<linearGradient id="paint3_linear_1329_2997" x1="4.26444" y1="22.5375" x2="9.87958" y2="16.9163" gradientUnits="userSpaceOnUse">
<stop stop-color="#32A071"/>
<stop offset="0.0685" stop-color="#2DA771"/>
<stop offset="0.4762" stop-color="#15CF74"/>
<stop offset="0.8009" stop-color="#06E775"/>
<stop offset="1" stop-color="#00F076"/>
</linearGradient>
</defs>
</svg>
