<svg width="593" height="669" viewBox="0 0 593 669" fill="none" xmlns="http://www.w3.org/2000/svg">
<path d="M288.305 513.453C294.723 511.912 300.265 507.886 303.714 502.259C307.163 496.632 308.235 489.865 306.694 483.447C305.154 477.03 301.127 471.487 295.5 468.039C289.873 464.59 283.106 463.518 276.689 465.058C199.685 483.449 31.0861 483.04 -36.4153 441.671C-103.917 400.302 -152.252 333.847 -170.819 256.885C-187.677 186.298 -175.848 111.906 -137.926 50.0294C-100.004 -11.8471 -39.0869 -56.1548 31.4619 -73.1733C95.6321 -88.4999 163.262 -77.7464 219.513 -43.2719L245.506 -85.6838C178.005 -127.053 96.8498 -139.958 19.8457 -121.568C-63.5337 -101.461 -135.531 -49.0985 -180.349 24.0299C-225.167 97.1584 -239.144 185.08 -219.213 268.501C-197.559 358.294 -141.168 435.829 -62.4147 484.094C16.3387 532.359 198.466 534.915 288.305 513.453Z" fill="url(#paint0_linear_1329_2770)"/>
<path fill-rule="evenodd" clip-rule="evenodd" d="M295.619 543.995L295.635 543.991C310.152 540.507 322.69 531.398 330.491 518.669C338.292 505.941 340.717 490.634 337.233 476.117C333.748 461.601 324.64 449.062 311.911 441.261C299.192 433.466 289.401 432.151 269.561 434.995C193.293 450.543 40.4057 451.917 -20.0045 414.894C-80.4021 377.878 -123.655 318.422 -140.278 249.563C-155.195 187.073 -144.72 121.217 -111.149 66.4401C-77.5795 11.6654 -23.6575 -27.5601 38.7909 -42.6345C94.8617 -56.0174 153.952 -46.6172 203.102 -16.4947L229.88 -0.0839111L288.694 -96.0503L261.917 -112.461C187.324 -158.176 97.6441 -172.437 12.5505 -152.115L12.5169 -152.107L12.4833 -152.099C-78.9822 -130.042 -157.962 -72.6013 -207.126 7.61915C-256.29 87.8395 -271.623 184.287 -249.759 275.799L-249.752 275.832L-249.744 275.864C-226.139 373.743 -164.671 458.26 -78.8255 510.871C7.01971 563.483 197.674 567.394 295.603 543.999L295.619 543.995ZM31.4619 -73.1733C-39.0869 -56.1548 -100.004 -11.8471 -137.926 50.0294C-175.848 111.906 -187.677 186.298 -170.819 256.885C-152.252 333.847 -103.917 400.302 -36.4153 441.671C31.0861 483.04 199.685 483.449 276.689 465.058C283.106 463.518 289.873 464.59 295.5 468.039C301.127 471.487 305.154 477.03 306.694 483.447C308.235 489.865 307.163 496.632 303.714 502.259C300.265 507.886 294.723 511.912 288.305 513.453C198.466 534.915 16.3387 532.359 -62.4147 484.094C-141.168 435.829 -197.559 358.294 -219.213 268.501C-239.144 185.08 -225.167 97.1584 -180.349 24.0299C-135.531 -49.0985 -63.5337 -101.461 19.8457 -121.568C86.5991 -137.51 156.471 -129.934 217.865 -100.685C227.292 -96.1935 236.52 -91.1909 245.506 -85.6838L219.513 -43.2719C163.262 -77.7464 95.6321 -88.4999 31.4619 -73.1733Z" fill="url(#paint1_linear_1329_2770)"/>
<rect x="171.646" y="451.046" width="377.611" height="112.256" rx="56.1279" transform="rotate(-9.4553 171.646 451.046)" fill="#4397F3"/>
<path d="M256.713 487.234L253.219 505.456L246.787 506.527L254.939 476.581L272.355 502.269L265.924 503.34L256.713 487.234ZM269.475 503.965L250.062 507.198L250.785 511.538L245.3 512.452L243.756 503.179L274.138 498.12L275.682 507.392L270.198 508.305L269.475 503.965ZM295.55 480.969L298.573 499.119L293.641 499.941L291.393 486.446L283.897 487.695L285.093 494.876C285.329 496.296 285.276 497.522 284.934 498.552C284.588 499.556 283.875 500.391 282.797 501.057C281.74 501.693 280.252 502.17 278.332 502.49L277.569 497.913C278.358 497.782 279.001 497.499 279.496 497.065C280.013 496.6 280.178 495.803 279.99 494.672L278.189 483.86L295.55 480.969ZM309.997 497.217L304.631 498.11L309.071 488.49L314.082 487.656L309.997 497.217ZM321.913 495.232L316.823 496.08L313.8 477.93L318.89 477.082L321.913 495.232ZM316.91 485.4L317.514 489.03L311.872 489.97C310.636 490.176 309.432 490.174 308.262 489.963C307.087 489.726 306.101 489.242 305.303 488.509C304.501 487.751 303.988 486.701 303.764 485.359C303.537 483.991 303.684 482.845 304.205 481.92C304.727 480.995 305.51 480.257 306.553 479.704C307.597 479.152 308.737 478.773 309.973 478.567L315.615 477.627L316.299 481.731L311.248 482.572C310.643 482.673 310.154 482.822 309.782 483.019C309.409 483.216 309.139 483.464 308.973 483.762C308.806 484.06 308.76 484.433 308.835 484.88C308.905 485.301 309.069 485.638 309.328 485.893C309.582 486.121 309.917 486.268 310.334 486.333C310.746 486.373 311.254 486.342 311.859 486.241L316.91 485.4ZM347.285 476.368L346.885 472.014C348.805 471.694 350.556 471.822 352.139 472.396C353.721 472.971 355.052 473.898 356.13 475.178C357.209 476.459 357.901 478.019 358.208 479.861C358.51 481.676 358.361 483.377 357.76 484.964C357.155 486.524 356.157 487.839 354.767 488.909C353.404 489.974 351.722 490.673 349.723 491.006C347.724 491.339 345.863 491.203 344.14 490.598C342.439 489.962 340.982 488.839 339.768 487.23C338.58 485.617 337.769 483.508 337.335 480.904L343.254 482.351C343.424 483.377 343.786 484.25 344.338 484.969C344.913 485.657 345.605 486.163 346.416 486.488C347.223 486.786 348.086 486.859 349.007 486.705C349.901 486.556 350.682 486.21 351.348 485.667C352.01 485.097 352.488 484.395 352.782 483.562C353.071 482.703 353.131 481.761 352.96 480.735C352.789 479.709 352.427 478.836 351.875 478.117C351.323 477.398 350.643 476.89 349.837 476.592C349.03 476.293 348.18 476.219 347.285 476.368ZM341.005 482.726C340.759 481.253 340.711 479.909 340.86 478.695C341.005 477.454 341.339 476.371 341.86 475.446C342.408 474.517 343.095 473.767 343.919 473.198C344.765 472.597 345.754 472.203 346.885 472.014L347.285 476.368C346.707 476.464 346.148 476.679 345.608 477.012C345.065 477.319 344.593 477.735 344.194 478.261C343.795 478.787 343.504 479.39 343.32 480.069C343.135 480.749 343.113 481.51 343.254 482.351L341.005 482.726ZM337.335 480.904C336.924 478.431 336.784 476.211 336.915 474.242C337.047 472.274 337.567 470.525 338.475 468.995C339.408 467.461 340.849 466.126 342.795 464.991C344.466 463.983 345.7 463.034 346.498 462.144C347.318 461.223 347.741 460.274 347.768 459.296L352.7 458.475C352.761 459.654 352.522 460.816 351.982 461.96C351.443 463.104 350.66 464.167 349.634 465.149C348.635 466.127 347.455 466.999 346.096 467.766C344.588 468.612 343.455 469.598 342.696 470.725C341.964 471.847 341.514 473.044 341.348 474.315C341.207 475.582 341.246 476.873 341.465 478.188L342.839 482.299L337.335 480.904ZM379.93 471.539L365.152 489.45L364.37 483.538L379.149 465.627L379.93 471.539ZM366.831 469.098L369.223 483.46L365.152 489.45L361.899 469.919L366.831 469.098ZM379.149 465.627L382.401 485.158L377.469 485.98L375.077 471.617L379.149 465.627ZM395.061 473.723L394.752 471.869C395.699 471.711 396.352 471.413 396.712 470.975C397.071 470.536 397.207 470.054 397.119 469.528C397.023 468.949 396.738 468.537 396.265 468.292C395.787 468.02 395.206 467.941 394.522 468.055C393.943 468.151 393.474 468.337 393.115 468.614C392.755 468.89 392.501 469.229 392.352 469.633C392.198 470.01 392.157 470.409 392.227 470.829L387.492 471.618C387.29 470.408 387.416 469.292 387.867 468.271C388.341 467.219 389.086 466.338 390.103 465.628C391.121 464.918 392.366 464.44 393.839 464.195C395.207 463.967 396.454 463.989 397.58 464.261C398.733 464.528 399.678 465.006 400.414 465.695C401.173 466.352 401.633 467.168 401.795 468.141C402.014 469.456 401.562 470.64 400.44 471.692C399.34 472.713 397.546 473.39 395.061 473.723ZM396.914 483.147C394.468 483.554 392.436 483.284 390.818 482.337C389.201 481.39 388.124 479.961 387.59 478.049L392.482 477.235C392.802 478.019 393.267 478.618 393.876 479.03C394.508 479.411 395.297 479.523 396.244 479.366C396.901 479.256 397.451 479.07 397.894 478.807C398.337 478.544 398.662 478.219 398.868 477.834C399.069 477.422 399.131 476.979 399.052 476.505C398.969 476.006 398.767 475.607 398.447 475.308C398.123 474.984 397.682 474.774 397.125 474.677C396.595 474.576 395.961 474.587 395.225 474.71L394.864 472.54C397.428 472.031 399.506 472.091 401.098 472.718C402.715 473.341 403.66 474.467 403.931 476.098C404.128 477.282 403.944 478.367 403.379 479.353C402.835 480.309 401.997 481.124 400.866 481.799C399.731 482.448 398.413 482.897 396.914 483.147ZM410.881 472.629L410.217 468.644L424.501 466.266L425.164 470.251L410.881 472.629ZM420.917 460.09L425.849 459.269L428.872 477.419L423.94 478.24L420.917 460.09ZM407.265 462.364L412.197 461.543L415.22 479.693L410.288 480.514L407.265 462.364ZM435.468 468.17L434.942 465.013L445.793 463.206C445.556 462.435 445.232 461.786 444.82 461.26C444.407 460.734 443.899 460.359 443.294 460.135C442.689 459.911 441.966 459.87 441.124 460.01C440.256 460.154 439.513 460.481 438.895 460.989C438.272 461.471 437.825 462.114 437.553 462.916C437.281 463.718 437.228 464.619 437.395 465.619L437.487 466.658C437.701 467.947 438.076 468.979 438.611 469.755C439.167 470.5 439.834 471.011 440.61 471.287C441.381 471.537 442.214 471.588 443.109 471.439C443.898 471.308 444.577 471.086 445.147 470.775C445.717 470.464 446.206 470.072 446.614 469.598C447.022 469.125 447.339 468.599 447.567 468.02L452.256 468.659C451.822 469.785 451.263 470.811 450.579 471.736C449.89 472.634 448.989 473.393 447.876 474.011C446.788 474.624 445.403 475.071 443.72 475.352C441.694 475.689 439.877 475.573 438.268 475.003C436.659 474.432 435.342 473.503 434.316 472.214C433.313 470.894 432.66 469.327 432.357 467.512C432.3 467.17 432.259 466.839 432.232 466.519C432.206 466.199 432.193 465.877 432.193 465.552C432.206 464.009 432.527 462.604 433.154 461.337C433.781 460.07 434.726 459.007 435.988 458.148C437.251 457.289 438.79 456.708 440.605 456.406C442.604 456.073 444.364 456.172 445.885 456.703C447.428 457.203 448.682 458.075 449.647 459.32C450.611 460.566 451.253 462.148 451.573 464.068C451.599 464.226 451.632 464.424 451.671 464.66C451.711 464.897 451.728 465.164 451.724 465.463L435.468 468.17ZM460.594 462.809C460.769 463.861 461.159 464.743 461.764 465.453C462.369 466.163 463.103 466.676 463.967 466.992C464.857 467.303 465.788 467.378 466.762 467.216C467.551 467.085 468.294 466.839 468.991 466.48C469.684 466.094 470.284 465.643 470.793 465.125C471.324 464.577 471.698 463.988 471.918 463.356L472.792 468.604C472.257 469.288 471.505 469.886 470.536 470.399C469.589 470.881 468.445 471.234 467.103 471.457C465.183 471.777 463.381 471.672 461.698 471.141C460.041 470.606 458.647 469.703 457.516 468.431C456.407 467.129 455.697 465.544 455.386 463.677C455.07 461.783 455.228 460.053 455.86 458.488C456.518 456.919 457.544 455.613 458.938 454.569C460.358 453.522 462.029 452.838 463.949 452.518C465.291 452.295 466.49 452.271 467.546 452.446C468.625 452.591 469.525 452.887 470.249 453.335L471.123 458.582C470.711 458.056 470.154 457.635 469.453 457.319C468.773 456.973 468.045 456.743 467.269 456.629C466.493 456.515 465.737 456.519 465.001 456.642C464.027 456.804 463.172 457.189 462.436 457.799C461.721 458.377 461.193 459.101 460.851 459.969C460.509 460.837 460.423 461.783 460.594 462.809ZM481.457 463.106C481.54 463.606 481.741 464.005 482.061 464.303C482.377 464.575 482.774 464.766 483.252 464.875C483.751 464.954 484.277 464.948 484.83 464.856C485.645 464.72 486.373 464.464 487.013 464.087C487.653 463.71 488.12 463.186 488.414 462.515C488.708 461.844 488.771 461.009 488.605 460.01L489.591 462.035C489.784 463.193 489.648 464.243 489.183 465.185C488.714 466.101 488.004 466.868 487.052 467.486C486.123 468.074 485.027 468.473 483.764 468.683C482.528 468.889 481.388 468.862 480.345 468.603C479.301 468.345 478.422 467.856 477.708 467.137C477.015 466.387 476.568 465.407 476.367 464.197C476.161 462.961 476.301 461.856 476.788 460.883C477.297 459.879 478.09 459.044 479.169 458.378C480.274 457.707 481.615 457.24 483.193 456.978C484.167 456.815 485.094 456.783 485.975 456.879C486.856 456.976 487.612 457.134 488.244 457.353C488.875 457.572 489.333 457.807 489.618 458.057L490.032 460.543C489.203 460.113 488.373 459.832 487.54 459.7C486.707 459.569 485.751 459.593 484.673 459.772C483.883 459.904 483.232 460.134 482.719 460.463C482.206 460.791 481.838 461.177 481.615 461.62C481.417 462.058 481.365 462.554 481.457 463.106ZM478.577 455.8L476.138 452.597C476.975 451.944 478.028 451.282 479.295 450.611C480.557 449.915 482.004 449.43 483.635 449.159C485.213 448.896 486.631 448.889 487.89 449.14C489.174 449.385 490.23 449.885 491.059 450.639C491.883 451.367 492.398 452.349 492.604 453.585L494.746 466.448L489.814 467.27L487.81 455.235C487.674 454.42 487.253 453.841 486.547 453.499C485.837 453.131 484.982 453.03 483.983 453.196C483.115 453.341 482.317 453.582 481.589 453.919C480.883 454.226 480.263 454.559 479.728 454.919C479.219 455.274 478.836 455.568 478.577 455.8Z" fill="white"/>
<defs>
<linearGradient id="paint0_linear_1329_2770" x1="264.51" y1="469.489" x2="-319.626" y2="197.255" gradientUnits="userSpaceOnUse">
<stop stop-color="#4397F3"/>
<stop offset="1" stop-color="white" stop-opacity="0"/>
</linearGradient>
<linearGradient id="paint1_linear_1329_2770" x1="264.51" y1="469.489" x2="-319.626" y2="197.255" gradientUnits="userSpaceOnUse">
<stop stop-color="#4397F3"/>
<stop offset="1" stop-color="white" stop-opacity="0"/>
</linearGradient>
</defs>
</svg>
