<svg width="363" height="162" viewBox="0 0 363 162" fill="none" xmlns="http://www.w3.org/2000/svg">
<path d="M211.088 92.1265C210.273 93.6831 210.791 95.3138 210.717 96.9446C210.643 111.918 210.717 126.817 210.643 141.79C210.643 149.202 213.163 155.206 219.909 158.839C222.281 160.173 224.875 160.766 227.692 160.766C264.235 160.692 300.853 160.766 337.396 160.766C348.589 160.766 355.631 154.539 355.853 143.346C356.224 126.446 355.927 109.472 355.927 92.5712C355.927 92.423 355.705 92.3488 355.557 92.2006" fill="white"/>
<path d="M211.088 92.1265C210.273 93.6831 210.791 95.3138 210.717 96.9446C210.643 111.918 210.717 126.817 210.643 141.79C210.643 149.202 213.163 155.206 219.909 158.839C222.281 160.173 224.875 160.766 227.692 160.766C264.235 160.692 300.853 160.766 337.396 160.766C348.589 160.766 355.631 154.539 355.853 143.346C356.224 126.446 355.927 109.472 355.927 92.5712C355.927 92.423 355.705 92.3488 355.557 92.2006" stroke="#4397F3" stroke-width="2" stroke-miterlimit="10" stroke-linecap="round" stroke-linejoin="round"/>
<path d="M347.209 28.5279C336.621 27.3858 339.101 14.2959 339.249 10.219C339.397 4.51144 339.101 4.28906 333.393 4.28906C328.946 4.28906 324.498 4.36319 320.051 4.28906C317.901 4.28906 317.086 5.17856 317.086 7.25404C317.012 11.5533 317.901 15.9266 317.16 20.2258C316.938 21.3377 316.196 23.2649 314.195 25.5628C310.415 29.9361 305.055 34.5871 305.055 47.3785V79.6658L350.442 79.2485V62.2504C350.442 25.7735 347.209 37.5711 347.209 28.5279Z" fill="white"/>
<path d="M350.442 79.2485L305.055 79.6658V47.3785C305.055 34.5871 310.415 29.9361 314.195 25.5628C316.196 23.2649 316.938 21.3377 317.16 20.2258C317.901 15.9266 317.012 11.5533 317.086 7.25404C317.086 5.17856 317.901 4.28906 320.051 4.28906C324.498 4.36319 328.946 4.28906 333.393 4.28906C339.101 4.28906 339.397 4.51144 339.249 10.219C339.101 14.2959 336.621 27.3858 347.209 28.5279C347.209 37.5711 350.442 25.7735 350.442 62.2504M350.442 79.2485C350.442 79.2485 350.442 70.2234 350.442 62.2504M350.442 79.2485V62.2504" stroke="#4397F3" stroke-width="2" stroke-miterlimit="10" stroke-linecap="round" stroke-linejoin="round"/>
<path d="M309.115 79.34C307.678 54.0375 305.576 33.1918 300.868 21.9359C298.161 15.4638 292.902 10.145 286.696 10.145C280.099 9.77438 275.619 14.3205 273.025 18.8421C269.393 25.1427 268.788 31.1419 267.423 39.4983C265.628 50.4965 263.13 79.2855 263.501 82.9176" fill="white"/>
<path d="M309.115 79.34C307.678 54.0375 305.576 33.1918 300.868 21.9359C298.161 15.4638 292.902 10.145 286.696 10.145C280.099 9.77438 275.619 14.3205 273.025 18.8421C269.393 25.1427 268.788 31.1419 267.423 39.4983C265.628 50.4965 263.13 79.2855 263.501 82.9176" stroke="#4397F3" stroke-width="2" stroke-miterlimit="10" stroke-linecap="round" stroke-linejoin="round"/>
<path d="M271.87 79.97C263.939 79.8218 256.008 79.4512 248.15 80.0442C239.478 80.7113 230.879 79.377 222.207 79.8959C218.797 80.1183 215.313 79.4512 211.829 79.8218C209.161 80.1183 207.234 80.563 205.825 83.2315C204.565 85.5294 205.307 87.4566 206.418 88.7167C207.975 90.4216 209.828 92.7936 213.015 91.0887C213.757 90.644 214.943 91.0146 215.98 91.0146C224.134 91.0146 232.288 91.0146 240.442 91.0146C241.405 91.0146 242.517 90.8663 243.332 90.9405C248.966 91.3852 251.041 91.9782 253.71 94.6467C262.531 103.616 274.02 114.734 282.915 123.629" fill="white"/>
<path d="M271.87 79.97C263.939 79.8218 256.008 79.4512 248.15 80.0442C239.478 80.7113 230.879 79.377 222.207 79.8959C218.797 80.1183 215.313 79.4512 211.829 79.8218C209.161 80.1183 207.234 80.563 205.825 83.2315C204.565 85.5294 205.307 87.4566 206.418 88.7167C207.975 90.4216 209.828 92.7936 213.015 91.0887C213.757 90.644 214.943 91.0146 215.98 91.0146C224.134 91.0146 232.288 91.0146 240.442 91.0146C241.405 91.0146 242.517 90.8663 243.332 90.9405C248.966 91.3852 251.041 91.9782 253.71 94.6467C262.531 103.616 274.02 114.734 282.915 123.629" stroke="#4397F3" stroke-width="2" stroke-miterlimit="10" stroke-linecap="round" stroke-linejoin="round"/>
<path d="M311.897 79.9702C306.709 80.2667 277.059 80.0443 271.87 79.9702H311.897Z" fill="white"/>
<path d="M311.897 79.9702C306.709 80.2667 277.059 80.0443 271.87 79.9702" stroke="#4397F3" stroke-width="2" stroke-miterlimit="10" stroke-linecap="round" stroke-linejoin="round"/>
<path d="M266.874 80.0313C275.769 79.809 335.987 79.5125 344.882 79.8831C348.218 80.0313 351.554 79.7349 354.889 79.8831C357.78 79.9572 359.856 80.9208 361.19 83.3669C362.228 85.2942 361.783 87.5179 360.374 88.8522C358.67 90.4829 356.891 92.929 353.777 91.2241C353.036 90.7794 351.85 91.15 350.812 91.15C342.659 91.15 334.505 91.15 326.351 91.15C325.388 91.15 324.276 91.15 323.46 91.0759C319.013 90.8535 317.086 90.7794 314.491 93.3738C304.188 103.677 293.514 113.165 283.137 123.394" fill="white"/>
<path d="M266.874 80.0313C275.769 79.809 335.987 79.5125 344.882 79.8831C348.218 80.0313 351.554 79.7349 354.889 79.8831C357.78 79.9572 359.856 80.9208 361.19 83.3669C362.228 85.2942 361.783 87.5179 360.374 88.8522C358.67 90.4829 356.891 92.929 353.777 91.2241C353.036 90.7794 351.85 91.15 350.812 91.15C342.659 91.15 334.505 91.15 326.351 91.15C325.388 91.15 324.276 91.15 323.46 91.0759C319.013 90.8535 317.086 90.7794 314.491 93.3738C304.188 103.677 293.514 113.165 283.137 123.394" stroke="#4397F3" stroke-width="2" stroke-miterlimit="10" stroke-linecap="round" stroke-linejoin="round"/>
<path d="M247.112 53.804C242.739 53.6558 238.588 50.6167 233.992 51.8768C228.359 53.3593 224.504 56.769 221.317 61.513C217.833 66.7758 216.599 73.8176 216.524 79.97H244.826H277.96C278.775 73.3729 276.095 66.1087 272.537 60.92C267.2 53.1369 261.492 50.1719 252.968 52.3215C251.115 52.7663 249.114 53.8781 247.112 53.804Z" fill="white" stroke="#4397F3" stroke-width="2" stroke-miterlimit="10" stroke-linecap="round" stroke-linejoin="round"/>
<path d="M248.52 53.2111C248.076 43.2785 240.663 38.0897 229.989 38.0156" stroke="#4397F3" stroke-width="2" stroke-miterlimit="10" stroke-linecap="round" stroke-linejoin="round"/>
<path d="M337.84 15.7784C331.317 14.963 324.72 15.6301 318.197 15.4078L337.84 15.7784Z" fill="white"/>
<path d="M337.84 15.7784C331.317 14.963 324.72 15.6301 318.197 15.4078" stroke="#4397F3" stroke-width="2" stroke-miterlimit="10" stroke-linecap="round" stroke-linejoin="round"/>
<path d="M333.393 132.895C327.982 132.895 322.497 132.895 317.086 132.895H333.393Z" fill="white"/>
<path d="M333.393 132.895C327.982 132.895 322.497 132.895 317.086 132.895" stroke="#4397F3" stroke-width="2" stroke-miterlimit="10" stroke-linecap="round" stroke-linejoin="round"/>
<path d="M347.477 146.608C342.289 146.608 337.1 146.608 331.911 146.608H347.477Z" fill="white"/>
<path d="M347.477 146.608C342.289 146.608 337.1 146.608 331.911 146.608" stroke="#4397F3" stroke-width="2" stroke-miterlimit="10" stroke-linecap="round" stroke-linejoin="round"/>
<path d="M318.568 146.608C313.379 146.608 308.191 146.608 303.002 146.608H318.568Z" fill="white"/>
<path d="M318.568 146.608C313.379 146.608 308.191 146.608 303.002 146.608" stroke="#4397F3" stroke-width="2" stroke-miterlimit="10" stroke-linecap="round" stroke-linejoin="round"/>
<path d="M248.891 105.098C243.703 104.357 238.514 105.024 233.325 104.728L248.891 105.098Z" fill="white"/>
<path d="M248.891 105.098C243.703 104.357 238.514 105.024 233.325 104.728" stroke="#4397F3" stroke-width="2" stroke-miterlimit="10" stroke-linecap="round" stroke-linejoin="round"/>
<path d="M332.652 105.098C327.463 104.95 322.275 104.876 317.086 104.728L332.652 105.098Z" fill="white"/>
<path d="M332.652 105.098C327.463 104.95 322.275 104.876 317.086 104.728" stroke="#4397F3" stroke-width="2" stroke-miterlimit="10" stroke-linecap="round" stroke-linejoin="round"/>
<path d="M263.717 146.979C258.528 146.386 253.339 146.682 248.15 146.608L263.717 146.979Z" fill="white"/>
<path d="M263.717 146.979C258.528 146.386 253.339 146.682 248.15 146.608" stroke="#4397F3" stroke-width="2" stroke-miterlimit="10" stroke-linecap="round" stroke-linejoin="round"/>
<path d="M248.891 132.524C243.703 133.266 238.514 132.599 233.325 132.895L248.891 132.524Z" fill="white"/>
<path d="M248.891 132.524C243.703 133.266 238.514 132.599 233.325 132.895" stroke="#4397F3" stroke-width="2" stroke-miterlimit="10" stroke-linecap="round" stroke-linejoin="round"/>
<path d="M234.807 146.608C229.619 146.608 224.43 146.608 219.241 146.608H234.807Z" fill="white"/>
<path d="M234.807 146.608C229.619 146.608 224.43 146.608 219.241 146.608" stroke="#4397F3" stroke-width="2" stroke-miterlimit="10" stroke-linecap="round" stroke-linejoin="round"/>
<path d="M263.716 118.811C258.898 118.811 254.08 118.811 249.262 118.811H263.716Z" fill="white"/>
<path d="M263.716 118.811C258.898 118.811 254.08 118.811 249.262 118.811" stroke="#4397F3" stroke-width="2" stroke-miterlimit="10" stroke-linecap="round" stroke-linejoin="round"/>
<path d="M317.456 118.811C312.638 118.811 307.82 118.811 303.002 118.811H317.456Z" fill="white"/>
<path d="M317.456 118.811C312.638 118.811 307.82 118.811 303.002 118.811" stroke="#4397F3" stroke-width="2" stroke-miterlimit="10" stroke-linecap="round" stroke-linejoin="round"/>
<path d="M347.477 118.811C342.659 118.811 337.841 118.811 333.022 118.811H347.477Z" fill="white"/>
<path d="M347.477 118.811C342.659 118.811 337.841 118.811 333.022 118.811" stroke="#4397F3" stroke-width="2" stroke-miterlimit="10" stroke-linecap="round" stroke-linejoin="round"/>
<path d="M288.918 146.608C285.064 146.831 281.209 146.089 277.429 146.979L288.918 146.608Z" fill="white"/>
<path d="M288.918 146.608C285.064 146.831 281.209 146.089 277.429 146.979" stroke="#4397F3" stroke-width="2" stroke-miterlimit="10" stroke-linecap="round" stroke-linejoin="round"/>
<path d="M353.373 35.2732C343.514 45.1318 321.796 69.9635 311.863 79.8221L353.373 35.2732Z" fill="white"/>
<path d="M353.373 35.2732C343.514 45.1318 321.796 69.9635 311.863 79.8221L286.29 79.9703C292.516 72.2614 304.895 60.1049 311.937 53.0631C320.832 44.1682 330.023 35.5697 338.4 26.2301C341.513 22.8944 344.923 20.0777 348.332 17.261C352.409 13.8513 355.819 14.9631 359.303 18.2987C362.416 21.2637 362.342 26.0077 359.303 29.3433C357.375 31.4188 355.374 33.346 353.373 35.2732Z" fill="white"/>
<path d="M353.373 35.2732C343.514 45.1318 321.796 69.9635 311.863 79.8221L353.373 35.2732Z" stroke="#4397F3" stroke-width="2" stroke-miterlimit="10" stroke-linecap="round" stroke-linejoin="round"/>
<path d="M353.373 35.2732C343.514 45.1318 321.796 69.9635 311.863 79.8221L286.29 79.9703C292.516 72.2614 304.895 60.1049 311.937 53.0631C320.832 44.1682 330.023 35.5697 338.4 26.2301C341.513 22.8944 344.923 20.0777 348.332 17.261C352.409 13.8513 355.819 14.9631 359.303 18.2987C362.416 21.2637 362.342 26.0077 359.303 29.3433C357.375 31.4188 355.374 33.346 353.373 35.2732Z" stroke="#4397F3" stroke-width="2" stroke-miterlimit="10" stroke-linecap="round" stroke-linejoin="round"/>
<path d="M0.445312 161.787L71.0324 88.7116C75.2556 84.0359 78.8754 79.8128 81.892 76.0421C85.0593 72.2714 87.3972 68.5762 88.9054 64.9563C90.5645 61.1856 91.3941 57.1887 91.3941 52.9656C91.3941 50.5523 90.9416 48.1391 90.0366 45.7259C89.1317 43.3126 87.7742 41.201 85.9643 39.3911C84.1544 37.4304 81.892 35.9221 79.1771 34.8663C76.4622 33.6597 73.2948 33.0564 69.675 33.0564C64.8485 33.0564 60.5499 34.263 56.7793 36.6762C53.1594 39.0895 50.3691 42.4831 48.4083 46.8571C46.5984 51.231 45.6935 56.2838 45.6935 62.0152H8.1375C8.1375 50.7032 10.4753 40.3715 15.151 31.0202C19.8266 21.6689 26.8401 14.203 36.1913 8.62237C45.6935 3.04177 57.2317 0.251465 70.8062 0.251465C80.6099 0.251465 89.2825 1.75974 96.8239 4.77629C104.365 7.642 110.625 11.5635 115.602 16.5408C120.73 21.3673 124.576 26.7216 127.14 32.6039C129.704 38.4862 130.986 44.4438 130.986 50.4769C130.986 59.0741 128.875 66.9925 124.651 74.2322C120.428 81.3211 114.923 87.8066 108.136 93.6889L71.2587 126.72H134.606V161.787H0.445312Z" fill="#EEF6FE"/>
</svg>
