<svg width="516" height="605" viewBox="0 0 516 605" fill="none" xmlns="http://www.w3.org/2000/svg">
<path d="M293.277 509.652L298.392 509.652C313.164 511.813 328.189 508.017 340.162 499.099C352.135 490.181 352.805 479.296 354.965 464.524C357.125 449.752 353.329 434.727 344.412 422.754C335.501 410.79 322.206 402.853 307.449 400.686C237.353 390.352 174.219 352.637 131.896 295.813C89.5821 239.002 71.5253 167.729 81.6846 97.6244L50.6082 93.0865L1.36139 85.8953L-29.715 81.3574C-44.1788 180.998 -18.5249 282.306 41.6176 363.054C101.76 443.802 193.668 497.013 293.277 511.69L293.277 509.652Z" fill="url(#paint0_linear_1329_2777)"/>
<rect x="246.171" y="395.239" width="251.641" height="112.256" rx="56.1279" transform="rotate(4.5813 246.171 395.239)" fill="#4397F3"/>
<path d="M308.92 454.592L309.128 452L313.633 452.361C314.457 452.427 315.186 452.352 315.818 452.135C316.451 451.918 316.947 451.57 317.306 451.091C317.693 450.613 317.913 450.029 317.969 449.338C318.054 448.275 317.747 447.434 317.047 446.816C316.374 446.2 315.413 445.842 314.164 445.742L311.093 445.496L309.585 464.316L313.254 464.61C314.211 464.687 315.085 464.623 315.877 464.419C316.672 464.188 317.306 463.784 317.78 463.207C318.281 462.632 318.57 461.866 318.647 460.909C318.702 460.218 318.616 459.622 318.388 459.123C318.19 458.598 317.864 458.158 317.411 457.8C316.987 457.419 316.474 457.137 315.874 456.955C315.275 456.746 314.617 456.613 313.899 456.556L308.795 456.147L309.045 453.037L314.667 453.487C316.022 453.596 317.3 453.845 318.499 454.236C319.725 454.628 320.804 455.183 321.737 455.9C322.671 456.59 323.378 457.449 323.857 458.477C324.363 459.508 324.561 460.714 324.45 462.096C324.303 463.93 323.744 465.397 322.773 466.496C321.829 467.598 320.55 468.365 318.937 468.797C317.324 469.23 315.481 469.363 313.408 469.197L303.52 468.405L305.756 440.494L315.046 441.238C316.907 441.388 318.52 441.784 319.887 442.429C321.255 443.047 322.296 443.906 323.011 445.007C323.725 446.107 324.018 447.455 323.891 449.05C323.778 450.459 323.282 451.636 322.404 452.582C321.525 453.529 320.36 454.211 318.909 454.63C317.46 455.022 315.805 455.143 313.944 454.994L308.92 454.592ZM342.04 462.262C342.193 460.348 342.766 458.708 343.758 457.343C344.777 455.98 346.076 454.961 347.655 454.285C349.261 453.611 351.034 453.352 352.974 453.507C354.914 453.663 356.61 454.2 358.062 455.119C359.539 456.04 360.659 457.253 361.422 458.759C362.21 460.266 362.528 461.977 362.375 463.891C362.223 465.778 361.637 467.417 360.616 468.806C359.624 470.172 358.325 471.191 356.72 471.865C355.141 472.541 353.381 472.801 351.44 472.646C349.5 472.49 347.791 471.952 346.313 471.031C344.862 470.112 343.742 468.899 342.953 467.391C342.193 465.859 341.889 464.149 342.04 462.262ZM347.303 462.683C347.22 463.72 347.359 464.654 347.72 465.486C348.111 466.293 348.66 466.952 349.368 467.464C350.078 467.949 350.885 468.227 351.789 468.3C352.692 468.372 353.534 468.225 354.312 467.86C355.092 467.468 355.726 466.903 356.213 466.166C356.729 465.405 357.028 464.506 357.111 463.469C357.195 462.433 357.042 461.498 356.654 460.664C356.293 459.832 355.757 459.174 355.047 458.689C354.337 458.204 353.53 457.926 352.626 457.853C351.722 457.781 350.881 457.927 350.103 458.293C349.324 458.659 348.677 459.222 348.161 459.983C347.672 460.747 347.386 461.647 347.303 462.683ZM376.275 451.763L381.179 452.156L379.07 478.471L374.166 478.078L376.275 451.763ZM366.209 464.198C366.363 462.285 366.949 460.646 367.967 459.283C369.013 457.922 370.431 456.912 372.223 456.253C374.015 455.594 376.093 455.36 378.459 455.549C380.825 455.739 382.84 456.302 384.504 457.237C386.168 458.173 387.394 459.395 388.183 460.903C388.998 462.413 389.329 464.125 389.176 466.039C389.024 467.926 388.425 469.563 387.378 470.951C386.359 472.314 384.953 473.325 383.162 473.984C381.37 474.643 379.291 474.877 376.926 474.688C374.56 474.498 372.545 473.936 370.881 473C369.217 472.064 367.978 470.841 367.162 469.331C366.376 467.797 366.058 466.086 366.209 464.198ZM370.954 464.579C370.871 465.615 371.037 466.552 371.451 467.387C371.895 468.199 372.59 468.87 373.537 469.4C374.513 469.907 375.759 470.22 377.274 470.342C378.789 470.463 380.055 470.351 381.073 470.004C382.093 469.631 382.873 469.078 383.413 468.346C383.982 467.589 384.308 466.692 384.391 465.655C384.474 464.619 384.295 463.681 383.854 462.843C383.439 462.008 382.757 461.338 381.808 460.834C380.858 460.329 379.626 460.017 378.111 459.895C376.596 459.774 375.316 459.885 374.272 460.23C373.254 460.576 372.461 461.128 371.892 461.885C371.35 462.644 371.037 463.542 370.954 464.579ZM412.178 463.227L393.496 477.019L394.172 471.094L412.853 457.302L412.178 463.227ZM400.062 457.682L398.899 472.195L393.496 477.019L395.078 457.282L400.062 457.682ZM412.853 457.302L411.272 477.039L406.288 476.639L407.451 462.126L412.853 457.302ZM422.339 468.696C422.254 469.759 422.419 470.709 422.833 471.545C423.248 472.38 423.836 473.056 424.597 473.572C425.385 474.09 426.271 474.388 427.254 474.467C428.051 474.531 428.832 474.473 429.595 474.294C430.361 474.087 431.053 473.795 431.672 473.417C432.32 473.014 432.826 472.533 433.192 471.973L432.767 477.276C432.082 477.81 431.208 478.208 430.144 478.471C429.108 478.709 427.912 478.773 426.557 478.665C424.616 478.509 422.894 477.97 421.389 477.047C419.911 476.126 418.778 474.912 417.989 473.404C417.229 471.871 416.925 470.162 417.076 468.274C417.23 466.36 417.802 464.721 418.795 463.356C419.813 461.993 421.126 460.974 422.731 460.301C424.363 459.629 426.15 459.371 428.09 459.526C429.446 459.635 430.615 459.902 431.597 460.329C432.608 460.731 433.41 461.237 434.004 461.846L433.579 467.149C433.307 466.539 432.869 465.995 432.265 465.519C431.69 465.018 431.039 464.618 430.314 464.319C429.589 464.02 428.855 463.841 428.11 463.781C427.127 463.703 426.204 463.869 425.341 464.282C424.508 464.67 423.82 465.243 423.277 466.002C422.735 466.762 422.422 467.659 422.339 468.696Z" fill="white"/>
<defs>
<linearGradient id="paint0_linear_1329_2777" x1="398.447" y1="484.413" x2="48.2339" y2="126.726" gradientUnits="userSpaceOnUse">
<stop stop-color="#4397F3"/>
<stop offset="0.905326" stop-color="white" stop-opacity="0"/>
</linearGradient>
</defs>
</svg>
