<svg width="156" height="57" viewBox="0 0 156 57" fill="none" xmlns="http://www.w3.org/2000/svg">
<rect y="0.906982" width="156" height="56" rx="10" fill="#F5F5F5"/>
<path d="M61.7012 21.9462C61.7012 22.4982 61.8252 22.9822 62.0732 23.3982C62.3292 23.8062 62.6612 24.1222 63.0692 24.3462C63.4772 24.5622 63.9212 24.6702 64.4012 24.6702C64.8012 24.6702 65.1572 24.6182 65.4692 24.5142C65.7812 24.4102 66.0612 24.2702 66.3092 24.0942C66.5652 23.9182 66.7852 23.7262 66.9692 23.5182V25.4502C66.6252 25.7222 66.2492 25.9342 65.8412 26.0862C65.4412 26.2382 64.9332 26.3142 64.3172 26.3142C63.6772 26.3142 63.0812 26.2102 62.5292 26.0022C61.9852 25.7942 61.5092 25.4942 61.1012 25.1022C60.7012 24.7102 60.3892 24.2502 60.1652 23.7222C59.9492 23.1862 59.8412 22.5942 59.8412 21.9462C59.8412 21.2982 59.9492 20.7102 60.1652 20.1822C60.3892 19.6462 60.7012 19.1822 61.1012 18.7902C61.5092 18.3982 61.9852 18.0982 62.5292 17.8902C63.0812 17.6822 63.6772 17.5782 64.3172 17.5782C64.9332 17.5782 65.4412 17.6542 65.8412 17.8062C66.2492 17.9582 66.6252 18.1702 66.9692 18.4422V20.3742C66.7852 20.1662 66.5652 19.9742 66.3092 19.7982C66.0612 19.6222 65.7812 19.4822 65.4692 19.3782C65.1572 19.2742 64.8012 19.2222 64.4012 19.2222C63.9212 19.2222 63.4772 19.3342 63.0692 19.5582C62.6612 19.7742 62.3292 20.0862 62.0732 20.4942C61.8252 20.9022 61.7012 21.3862 61.7012 21.9462ZM68.8566 20.6262H70.3566V26.1462H68.8566V20.6262ZM72.3846 20.6262H74.2446L71.8686 22.9062L74.4846 26.1462H72.6366L70.0086 22.9062L72.3846 20.6262ZM76.7668 24.5022C76.7668 24.6542 76.8068 24.7822 76.8868 24.8862C76.9668 24.9822 77.0748 25.0582 77.2108 25.1142C77.3548 25.1622 77.5108 25.1862 77.6788 25.1862C77.9268 25.1862 78.1548 25.1462 78.3628 25.0662C78.5708 24.9862 78.7348 24.8542 78.8548 24.6702C78.9748 24.4862 79.0348 24.2422 79.0348 23.9382L79.2268 24.5862C79.2268 24.9382 79.1348 25.2422 78.9508 25.4982C78.7668 25.7462 78.5188 25.9382 78.2068 26.0742C77.9028 26.2022 77.5588 26.2662 77.1748 26.2662C76.7988 26.2662 76.4628 26.2022 76.1668 26.0742C75.8708 25.9462 75.6348 25.7582 75.4588 25.5102C75.2908 25.2542 75.2068 24.9422 75.2068 24.5742C75.2068 24.1982 75.3028 23.8782 75.4948 23.6142C75.6948 23.3422 75.9708 23.1342 76.3228 22.9902C76.6828 22.8462 77.1028 22.7742 77.5828 22.7742C77.8788 22.7742 78.1548 22.8102 78.4108 22.8822C78.6668 22.9542 78.8828 23.0382 79.0588 23.1342C79.2348 23.2302 79.3588 23.3222 79.4308 23.4102V24.1662C79.2068 23.9982 78.9748 23.8742 78.7348 23.7942C78.4948 23.7142 78.2108 23.6742 77.8828 23.6742C77.6428 23.6742 77.4388 23.7102 77.2708 23.7822C77.1028 23.8542 76.9748 23.9502 76.8868 24.0702C76.8068 24.1902 76.7668 24.3342 76.7668 24.5022ZM76.2748 22.1982L75.7108 21.1302C75.9908 20.9782 76.3348 20.8342 76.7428 20.6982C77.1508 20.5542 77.6028 20.4822 78.0988 20.4822C78.5788 20.4822 78.9988 20.5502 79.3588 20.6862C79.7268 20.8222 80.0148 21.0222 80.2228 21.2862C80.4308 21.5422 80.5348 21.8582 80.5348 22.2342V26.1462H79.0348V22.4862C79.0348 22.2382 78.9388 22.0462 78.7468 21.9102C78.5548 21.7662 78.3068 21.6942 78.0028 21.6942C77.7388 21.6942 77.4908 21.7262 77.2588 21.7902C77.0348 21.8462 76.8348 21.9142 76.6588 21.9942C76.4908 22.0742 76.3628 22.1422 76.2748 22.1982ZM84.3312 24.6702L84.6912 23.3622H86.2152V24.6702H84.3312ZM85.5312 20.6262H87.0792V26.1462H85.5312V20.6262ZM83.7192 20.6262V22.3182C83.7192 22.5662 83.7512 22.7662 83.8152 22.9182C83.8792 23.0702 83.9832 23.1822 84.1272 23.2542C84.2712 23.3262 84.4592 23.3622 84.6912 23.3622L84.3312 24.6702C83.7792 24.6702 83.3432 24.5782 83.0232 24.3942C82.7112 24.2102 82.4912 23.9342 82.3632 23.5662C82.2352 23.1982 82.1712 22.7462 82.1712 22.2102V20.6262H83.7192ZM90.1431 24.5022C90.1431 24.6542 90.1831 24.7822 90.2631 24.8862C90.3431 24.9822 90.4511 25.0582 90.5871 25.1142C90.7311 25.1622 90.8871 25.1862 91.0551 25.1862C91.3031 25.1862 91.5311 25.1462 91.7391 25.0662C91.9471 24.9862 92.1111 24.8542 92.2311 24.6702C92.3511 24.4862 92.4111 24.2422 92.4111 23.9382L92.6031 24.5862C92.6031 24.9382 92.5111 25.2422 92.3271 25.4982C92.1431 25.7462 91.8951 25.9382 91.5831 26.0742C91.2791 26.2022 90.9351 26.2662 90.5511 26.2662C90.1751 26.2662 89.8391 26.2022 89.5431 26.0742C89.2471 25.9462 89.0111 25.7582 88.8351 25.5102C88.6671 25.2542 88.5831 24.9422 88.5831 24.5742C88.5831 24.1982 88.6791 23.8782 88.8711 23.6142C89.0711 23.3422 89.3471 23.1342 89.6991 22.9902C90.0591 22.8462 90.4791 22.7742 90.9591 22.7742C91.2551 22.7742 91.5311 22.8102 91.7871 22.8822C92.0431 22.9542 92.2591 23.0382 92.4351 23.1342C92.6111 23.2302 92.7351 23.3222 92.8071 23.4102V24.1662C92.5831 23.9982 92.3511 23.8742 92.1111 23.7942C91.8711 23.7142 91.5871 23.6742 91.2591 23.6742C91.0191 23.6742 90.8151 23.7102 90.6471 23.7822C90.4791 23.8542 90.3511 23.9502 90.2631 24.0702C90.1831 24.1902 90.1431 24.3342 90.1431 24.5022ZM89.6511 22.1982L89.0871 21.1302C89.3671 20.9782 89.7111 20.8342 90.1191 20.6982C90.5271 20.5542 90.9791 20.4822 91.4751 20.4822C91.9551 20.4822 92.3751 20.5502 92.7351 20.6862C93.1031 20.8222 93.3911 21.0222 93.5991 21.2862C93.8071 21.5422 93.9111 21.8582 93.9111 22.2342V26.1462H92.4111V22.4862C92.4111 22.2382 92.3151 22.0462 92.1231 21.9102C91.9311 21.7662 91.6831 21.6942 91.3791 21.6942C91.1151 21.6942 90.8671 21.7262 90.6351 21.7902C90.4111 21.8462 90.2111 21.9142 90.0351 21.9942C89.8671 22.0742 89.7391 22.1422 89.6511 22.1982ZM95.0075 20.6262H98.6795V21.9342H95.0075V20.6262ZM96.0995 20.8662H97.5995V26.1462H96.0995V20.8662ZM99.9323 20.6262H101.48V26.1462H99.9323V20.6262ZM101.084 23.6262V22.5582H102.8C103.368 22.5582 103.844 22.6982 104.228 22.9782C104.62 23.2502 104.816 23.6822 104.816 24.2742C104.816 24.6662 104.728 25.0062 104.552 25.2942C104.376 25.5742 104.136 25.7862 103.832 25.9302C103.528 26.0742 103.184 26.1462 102.8 26.1462H101.084V24.9222H102.572C102.74 24.9222 102.88 24.8982 102.992 24.8502C103.104 24.7942 103.188 24.7182 103.244 24.6222C103.308 24.5262 103.34 24.4102 103.34 24.2742C103.34 24.0742 103.276 23.9182 103.148 23.8062C103.02 23.6862 102.828 23.6262 102.572 23.6262H101.084ZM65.3492 34.6262V40.1462H63.8492V35.9942H61.6772V40.1462H60.1772V34.6262H65.3492ZM68.7643 42.7862H67.2043V34.6262H68.7643V42.7862ZM73.3003 37.3862C73.3003 38.0102 73.1763 38.5422 72.9283 38.9822C72.6803 39.4222 72.3523 39.7542 71.9443 39.9782C71.5443 40.2022 71.1123 40.3142 70.6483 40.3142C70.1763 40.3142 69.7643 40.1942 69.4123 39.9542C69.0683 39.7142 68.8003 39.3742 68.6083 38.9342C68.4243 38.4942 68.3323 37.9782 68.3323 37.3862C68.3323 36.7862 68.4243 36.2702 68.6083 35.8382C68.8003 35.3982 69.0683 35.0582 69.4123 34.8182C69.7643 34.5782 70.1763 34.4582 70.6483 34.4582C71.1123 34.4582 71.5443 34.5702 71.9443 34.7942C72.3523 35.0182 72.6803 35.3502 72.9283 35.7902C73.1763 36.2222 73.3003 36.7542 73.3003 37.3862ZM71.6923 37.3862C71.6923 37.0582 71.6243 36.7782 71.4883 36.5462C71.3523 36.3142 71.1683 36.1382 70.9363 36.0182C70.7123 35.8982 70.4643 35.8382 70.1923 35.8382C69.9603 35.8382 69.7323 35.8982 69.5083 36.0182C69.2923 36.1302 69.1123 36.3022 68.9683 36.5342C68.8323 36.7662 68.7643 37.0502 68.7643 37.3862C68.7643 37.7222 68.8323 38.0062 68.9683 38.2382C69.1123 38.4702 69.2923 38.6462 69.5083 38.7662C69.7323 38.8782 69.9603 38.9342 70.1923 38.9342C70.4643 38.9342 70.7123 38.8742 70.9363 38.7542C71.1683 38.6342 71.3523 38.4582 71.4883 38.2262C71.6243 37.9942 71.6923 37.7142 71.6923 37.3862ZM80.1111 35.9942L74.8551 40.5662L74.9151 38.7782L80.1711 34.2062L80.1111 35.9942ZM76.3551 34.6262V38.9942L74.8551 40.5662V34.6262H76.3551ZM80.1711 34.2062V40.1462H78.6711V35.7782L80.1711 34.2062ZM87.6128 34.6262V40.1462H86.1128V36.0422H83.8328V38.2262C83.8328 38.6582 83.7568 39.0182 83.6048 39.3062C83.4528 39.5862 83.2008 39.7982 82.8488 39.9422C82.5048 40.0782 82.0408 40.1462 81.4568 40.1462V38.7542C81.6968 38.7542 81.9008 38.7022 82.0688 38.5982C82.2448 38.4862 82.3328 38.2582 82.3328 37.9142V34.6262H87.6128ZM89.3233 37.3862C89.3233 36.8102 89.4553 36.3062 89.7193 35.8742C89.9913 35.4422 90.3553 35.1062 90.8113 34.8662C91.2753 34.6262 91.7993 34.5062 92.3833 34.5062C92.9673 34.5062 93.4873 34.6262 93.9433 34.8662C94.4073 35.1062 94.7713 35.4422 95.0353 35.8742C95.3073 36.3062 95.4433 36.8102 95.4433 37.3862C95.4433 37.9542 95.3073 38.4582 95.0353 38.8982C94.7713 39.3302 94.4073 39.6662 93.9433 39.9062C93.4873 40.1462 92.9673 40.2662 92.3833 40.2662C91.7993 40.2662 91.2753 40.1462 90.8113 39.9062C90.3553 39.6662 89.9913 39.3302 89.7193 38.8982C89.4553 38.4582 89.3233 37.9542 89.3233 37.3862ZM90.9073 37.3862C90.9073 37.6982 90.9713 37.9742 91.0993 38.2142C91.2353 38.4462 91.4153 38.6302 91.6393 38.7662C91.8633 38.8942 92.1113 38.9582 92.3833 38.9582C92.6553 38.9582 92.9033 38.8942 93.1273 38.7662C93.3513 38.6302 93.5273 38.4462 93.6553 38.2142C93.7913 37.9742 93.8593 37.6982 93.8593 37.3862C93.8593 37.0742 93.7913 36.7982 93.6553 36.5582C93.5273 36.3182 93.3513 36.1342 93.1273 36.0062C92.9033 35.8782 92.6553 35.8142 92.3833 35.8142C92.1113 35.8142 91.8633 35.8782 91.6393 36.0062C91.4153 36.1342 91.2353 36.3182 91.0993 36.5582C90.9713 36.7982 90.9073 37.0742 90.9073 37.3862ZM103.766 34.6262H105.578L103.166 36.9782L105.818 40.1462H104.006L101.366 36.9062L103.766 34.6262ZM101.654 34.6262V40.1462H100.19V34.6262H101.654ZM98.0776 34.6262L100.478 36.9062L97.8376 40.1462H96.0256L98.6776 36.9782L96.2656 34.6262H98.0776ZM107.291 37.7342V36.7742H110.591C110.559 36.5342 110.495 36.3262 110.399 36.1502C110.303 35.9742 110.171 35.8382 110.003 35.7422C109.835 35.6462 109.623 35.5982 109.367 35.5982C109.103 35.5982 108.867 35.6582 108.659 35.7782C108.451 35.8902 108.287 36.0582 108.167 36.2822C108.047 36.5062 107.987 36.7702 107.987 37.0742L107.963 37.3862C107.963 37.7782 108.023 38.1022 108.143 38.3582C108.271 38.6062 108.443 38.7902 108.659 38.9102C108.875 39.0222 109.119 39.0782 109.391 39.0782C109.631 39.0782 109.843 39.0462 110.027 38.9822C110.211 38.9182 110.375 38.8262 110.519 38.7062C110.663 38.5862 110.783 38.4462 110.879 38.2862L112.235 38.7062C112.051 39.0182 111.835 39.2942 111.587 39.5342C111.339 39.7662 111.035 39.9462 110.675 40.0742C110.323 40.2022 109.891 40.2662 109.379 40.2662C108.763 40.2662 108.231 40.1422 107.783 39.8942C107.335 39.6462 106.991 39.3062 106.751 38.8742C106.519 38.4342 106.403 37.9382 106.403 37.3862C106.403 37.2822 106.407 37.1822 106.415 37.0862C106.423 36.9902 106.435 36.8942 106.451 36.7982C106.531 36.3422 106.695 35.9422 106.943 35.5982C107.191 35.2542 107.523 34.9862 107.939 34.7942C108.355 34.6022 108.839 34.5062 109.391 34.5062C109.999 34.5062 110.515 34.6222 110.939 34.8542C111.371 35.0782 111.699 35.3982 111.923 35.8142C112.147 36.2302 112.259 36.7302 112.259 37.3142C112.259 37.3622 112.259 37.4222 112.259 37.4942C112.259 37.5662 112.251 37.6462 112.235 37.7342H107.291ZM114.378 37.8422V36.6302H118.722V37.8422H114.378ZM117.966 34.6262H119.466V40.1462H117.966V34.6262ZM113.814 34.6262H115.314V40.1462H113.814V34.6262ZM126.65 35.9942L121.394 40.5662L121.454 38.7782L126.71 34.2062L126.65 35.9942ZM122.894 34.6262V38.9942L121.394 40.5662V34.6262H122.894ZM126.71 34.2062V40.1462H125.21V35.7782L126.71 34.2062ZM129.16 37.7342V36.7742H132.46C132.428 36.5342 132.364 36.3262 132.268 36.1502C132.172 35.9742 132.04 35.8382 131.872 35.7422C131.704 35.6462 131.492 35.5982 131.236 35.5982C130.972 35.5982 130.736 35.6582 130.528 35.7782C130.32 35.8902 130.156 36.0582 130.036 36.2822C129.916 36.5062 129.856 36.7702 129.856 37.0742L129.832 37.3862C129.832 37.7782 129.892 38.1022 130.012 38.3582C130.14 38.6062 130.312 38.7902 130.528 38.9102C130.744 39.0222 130.988 39.0782 131.26 39.0782C131.5 39.0782 131.712 39.0462 131.896 38.9822C132.08 38.9182 132.244 38.8262 132.388 38.7062C132.532 38.5862 132.652 38.4462 132.748 38.2862L134.104 38.7062C133.92 39.0182 133.704 39.2942 133.456 39.5342C133.208 39.7662 132.904 39.9462 132.544 40.0742C132.192 40.2022 131.76 40.2662 131.248 40.2662C130.632 40.2662 130.1 40.1422 129.652 39.8942C129.204 39.6462 128.86 39.3062 128.62 38.8742C128.388 38.4342 128.272 37.9382 128.272 37.3862C128.272 37.2822 128.276 37.1822 128.284 37.0862C128.292 36.9902 128.304 36.8942 128.32 36.7982C128.4 36.3422 128.564 35.9422 128.812 35.5982C129.06 35.2542 129.392 34.9862 129.808 34.7942C130.224 34.6022 130.708 34.5062 131.26 34.5062C131.868 34.5062 132.384 34.6222 132.808 34.8542C133.24 35.0782 133.568 35.3982 133.792 35.8142C134.016 36.2302 134.128 36.7302 134.128 37.3142C134.128 37.3622 134.128 37.4222 134.128 37.4942C134.128 37.5662 134.12 37.6462 134.104 37.7342H129.16Z" fill="#4397F3"/>
<path d="M38.1303 45.8657C37.1852 45.8657 36.2207 45.8657 35.2755 45.8657C34.8512 45.8657 34.6583 45.7114 34.6776 45.2291C34.7162 43.8017 34.6969 42.3743 34.7162 40.9662C34.7162 40.5804 34.5618 40.4454 34.1761 40.4261C33.7903 40.4261 33.5781 40.5226 33.5781 40.9662C33.5781 42.2586 33.5781 43.551 33.5781 44.8433C33.5781 45.8464 33.5395 45.885 32.5558 45.885C32.305 45.885 32.035 45.885 31.7842 45.885C30.7619 45.885 30.7233 45.885 30.6461 44.8626C30.6076 44.4769 30.3954 44.4769 30.1253 44.4769C29.8553 44.4769 29.5852 44.4576 29.5274 44.8626C29.4116 45.8657 29.3924 45.8657 28.3507 45.8657C27.5599 45.8657 26.769 45.8464 25.9782 45.8657C25.4574 45.8657 25.2066 45.6342 25.2259 45.1134C25.2452 44.5926 25.2452 44.0911 25.2259 43.5703C25.2066 43.0302 25.4574 42.8566 25.9589 42.8951C26.4025 42.9144 26.9233 42.7987 26.904 43.5317C26.904 43.7824 26.8269 44.1104 27.2127 44.2068C27.6949 44.3225 27.9264 44.1489 27.9457 43.6474C27.965 43.1459 27.965 42.6637 27.9457 42.1622C27.9264 41.7378 28.1193 41.5256 28.5436 41.5642C29.0644 41.6221 29.3345 41.4485 29.2766 40.8698C29.238 40.3683 29.4888 40.1175 29.9903 40.1561C30.5111 40.1947 30.6654 39.9825 30.6654 39.4617C30.6654 37.7642 30.6847 37.7642 28.968 37.7642C27.965 37.7642 26.9426 37.7449 25.9396 37.7642C25.4381 37.7642 25.2066 37.552 25.2259 37.0505C25.2259 36.549 25.2259 36.0668 25.2259 35.5653C25.2259 35.1795 25.0523 35.0252 24.6858 35.0445C24.2036 35.0637 23.7406 35.0252 23.2584 35.0445C22.7955 35.0637 22.5254 34.8708 22.5833 34.3886C22.6219 33.9064 22.429 33.6942 21.9274 33.7328C21.4452 33.7714 21.2137 33.5399 21.2523 33.0577C21.2909 32.6333 21.1559 32.4018 20.6544 32.4018C20.1336 32.4018 20.0757 32.6912 20.095 33.0962C20.1143 33.5592 20.095 34.0028 20.095 34.4658C20.1143 35.0637 19.6899 35.0445 19.2655 35.0445C18.8605 35.0445 18.494 35.0059 18.5133 34.4658C18.5326 33.5399 18.494 32.5947 18.5133 31.6688C18.5326 31.2059 18.3782 30.9359 17.8767 30.9937C17.3559 31.0516 17.163 30.8201 17.1823 30.2993C17.2016 29.3734 17.1823 28.4283 17.2016 27.5024C17.2016 27.0973 17.0473 26.9237 16.6422 26.943C16.1214 26.9623 15.6006 26.9237 15.0991 26.943C14.5204 26.9816 14.4433 26.6344 14.4625 26.1907C14.4818 25.7664 14.4047 25.3227 15.0605 25.342C15.3113 25.3613 15.6392 25.4384 15.7549 25.072C15.9092 24.609 15.697 24.339 15.1955 24.3004C14.4818 24.2425 14.4625 24.1847 14.4625 23.3359C14.4625 22.7765 14.7133 22.6029 15.2341 22.6415C15.7163 22.6608 16.1793 22.6608 16.6615 22.6415C17.2016 22.6222 17.4138 22.8537 17.3752 23.3938C17.3559 23.8567 17.3945 24.3004 17.3559 24.7633C17.3366 25.1877 17.4716 25.3806 17.9346 25.3806C18.8219 25.3613 19.7285 25.3613 20.6158 25.3806C21.0594 25.3806 21.2909 25.2263 21.2523 24.7633C21.2137 24.2232 21.4259 23.9339 22.0046 23.9918C22.4483 24.0303 22.6219 23.7989 22.5833 23.3938C22.5254 22.8344 22.834 22.6608 23.3356 22.6801C23.7599 22.6994 24.165 22.6608 24.5893 22.6801C25.0909 22.7187 25.2452 22.4872 25.2452 22.005C25.2259 20.7319 25.2452 19.4588 25.2452 18.205C25.2452 17.4142 25.303 17.337 26.0746 17.3177C26.4604 17.3177 26.6533 17.1827 26.6533 16.7583C26.6533 16.3147 26.4218 16.1989 26.0553 16.2375C25.4574 16.2954 25.2259 16.0253 25.2452 15.4467C25.2645 14.9644 25.2645 14.5015 25.2452 14.0193C25.2259 13.4985 25.4381 13.2477 25.9782 13.267C26.4411 13.2863 26.8848 13.2477 27.3477 13.267C27.7721 13.2863 27.965 13.132 27.965 12.6883C27.965 12.0325 28.7751 11.6467 29.3538 12.0132C29.5081 12.1096 29.5467 12.264 29.5467 12.4183C29.5467 13.0548 29.5467 13.6913 29.5467 14.3279C29.5467 14.6751 29.3924 14.8294 29.0451 14.8294C28.505 14.8294 27.965 14.8487 27.4441 14.8294C27.0584 14.8101 26.904 14.9837 26.904 15.3695C26.904 15.7167 26.9426 16.0253 27.4056 15.9868C28.0035 15.9289 28.3122 16.1411 28.235 16.7776C28.1771 17.202 28.4279 17.3563 28.8137 17.3177C29.3924 17.2598 29.566 17.5299 29.5467 18.0893C29.5081 18.9959 29.5467 19.9217 29.5274 20.8283C29.5274 21.2527 29.7203 21.3684 30.106 21.3684C30.4918 21.3684 30.6076 21.2141 30.6076 20.8283C30.6076 19.3817 30.6461 17.935 30.6269 16.5076C30.6269 16.1411 30.7426 15.9868 31.0898 16.006C31.2827 16.006 31.4949 16.006 31.6878 16.006C32.0928 15.9868 32.2857 16.1797 32.2471 16.5847C32.1893 17.1441 32.3822 17.4142 32.9801 17.337C33.5781 17.2791 33.5781 17.6842 33.5781 18.1086C33.5781 18.5329 33.5974 18.9573 32.9994 18.8994C32.3629 18.8223 32.2086 19.1502 32.2664 19.7096C32.2857 19.9796 32.2664 20.269 32.2664 20.539C32.2664 21.4842 32.2664 21.4842 31.3213 21.6385C31.0126 21.6964 30.9355 21.87 30.9355 22.14C30.9355 22.4101 30.9548 22.6801 31.302 22.6994C31.8421 22.7187 32.3822 22.7187 32.903 22.6994C33.2116 22.6994 33.3081 22.4872 33.3081 22.2172C33.3081 21.6964 33.3081 21.1948 33.3081 20.674C33.3081 20.2304 33.4817 19.9796 33.9446 20.0375C34.4461 20.0954 34.6197 19.8639 34.6197 19.3817C34.6197 18.8994 34.6969 18.4365 34.6776 17.9543C34.6776 17.5299 34.8319 17.3177 35.2755 17.337C35.8542 17.3563 36.4329 17.3563 36.9923 17.337C37.6288 17.3177 37.571 17.7614 37.5902 18.205C37.6095 18.6294 37.5324 18.9573 36.9923 18.9187C36.5872 18.8801 36.24 18.9187 36.2786 19.4974C36.2979 19.8832 36.4136 20.0954 36.8573 20.0375C37.3781 19.9796 37.6288 20.1725 37.6095 20.7319C37.5902 21.5227 37.5517 21.6192 36.8765 21.6385C36.4522 21.6385 36.24 21.7928 36.2786 22.2364C36.3364 22.7573 36.1243 23.0273 35.5649 22.9694C35.1019 22.9116 34.9476 23.1237 34.9476 23.5867C34.9476 24.339 34.8898 24.3775 34.1182 24.3775C33.6553 24.3775 33.2116 24.3775 32.7487 24.3775C32.4015 24.3775 32.2471 24.5126 32.2471 24.8791C32.2471 25.2456 32.3822 25.4384 32.768 25.4384C33.2502 25.4384 33.7131 25.4384 34.1954 25.4384C34.909 25.4384 34.9669 25.5156 34.9669 26.2293C34.9669 26.6922 34.9669 27.1359 34.9669 27.5988C34.9669 27.9653 35.1598 28.0811 35.507 28.0811C35.8349 28.0811 36.0664 27.9653 36.0278 27.5988C35.9507 26.943 36.2593 26.6922 36.8958 26.7501C37.2623 26.7887 37.4552 26.6537 37.4359 26.2486C37.4359 25.8242 37.243 25.7085 36.8573 25.6892C36.105 25.6699 35.7578 25.0141 36.0857 24.3197C36.2014 24.0882 36.4136 24.0496 36.6258 24.0496C37.1273 24.0303 37.6095 24.0303 38.111 24.0496C38.5161 24.0496 38.7669 23.8953 38.7476 23.4517C38.709 22.8537 39.0176 22.6994 39.5577 22.7187C40.445 22.738 41.3516 22.7187 42.2389 22.7187C42.9719 22.7187 43.0684 22.8537 43.0684 23.606C43.0684 24.3004 42.9912 24.3583 42.2582 24.3775C41.776 24.3775 41.3131 24.3775 40.8308 24.3775C40.4836 24.3775 40.3293 24.5511 40.3486 24.8984C40.3486 25.2263 40.4643 25.3999 40.8308 25.4384C41.6024 25.5156 41.8724 25.9785 41.641 26.7115C41.5638 26.9816 41.3516 27.0202 41.1394 27.0202C40.6186 27.0202 40.1171 27.0394 39.5963 27.0202C39.2298 27.0202 39.0369 27.1359 39.0369 27.5217C39.0369 27.8882 39.172 28.1196 39.5577 28.0618C40.175 28.0039 40.445 28.2354 40.3679 28.8719C40.31 29.2963 40.5415 29.5085 40.9658 29.4699C41.5252 29.412 41.7374 29.6628 41.6795 30.2029C41.6217 30.6851 41.8724 30.8201 42.3161 30.8201C42.8176 30.8201 42.8755 30.5115 42.8176 30.145C42.7212 29.5856 42.8755 29.0455 42.8176 28.4861C42.7983 28.1968 42.9526 28.0811 43.2034 28.0811C43.377 28.0811 43.5699 28.0811 43.7435 28.0811C44.2836 28.0232 44.4572 28.2932 44.3993 28.7948C44.3607 29.2384 44.4572 29.5085 44.9973 29.4892C45.4024 29.4699 45.5374 29.3156 45.5567 28.9105C45.5567 28.0811 45.576 28.0811 46.3861 28.0811C46.9069 28.0811 47.4084 28.0811 47.9292 28.0811C48.2764 28.0811 48.4308 28.2354 48.4308 28.5826C48.4308 29.7014 48.4308 30.8008 48.4308 31.9196C48.4308 32.344 48.2186 32.4983 47.8328 32.4597C47.2541 32.4018 46.9648 32.614 47.0419 33.2313C47.0998 33.6942 46.7912 33.8292 46.4054 33.7907C45.846 33.7328 45.6531 34.0028 45.711 34.5236C45.7496 34.8708 45.7303 35.2373 45.711 35.5845C45.6917 35.9703 45.8267 36.1632 46.2511 36.1825C46.6561 36.1825 46.8683 36.0668 46.8683 35.6231C46.8876 34.9094 46.9841 34.8901 47.7363 34.8516C48.3729 34.8323 48.45 35.1795 48.4308 35.681C48.4115 36.2018 48.4115 36.7033 48.4308 37.2241C48.45 37.6485 48.2957 37.8414 47.8521 37.8414C47.0805 37.8607 47.0805 37.88 47.0998 38.6708C47.0998 39.0759 47.0998 39.4617 47.0998 39.8667C47.0998 40.2911 46.9455 40.5612 46.4633 40.484C45.846 40.3876 45.6338 40.6576 45.6917 41.2556C45.7303 41.6799 45.6917 42.1236 45.6917 42.5672C45.6917 42.9723 45.5374 43.1652 45.1323 43.1266C44.5729 43.0495 44.3414 43.2616 44.38 43.8596C44.4186 44.5154 44.3222 44.5347 43.4541 44.554C42.9333 44.5733 42.7212 44.3804 42.7983 43.8596C42.8755 43.3388 42.6633 43.0687 42.1039 43.1266C41.641 43.1845 41.4288 42.9723 41.4867 42.5094C41.5445 42.0464 41.3323 41.8342 40.8694 41.8921C40.2907 41.95 40.0014 41.7185 40.0785 41.1012C40.1364 40.6383 39.9435 40.4647 39.4613 40.484C37.2816 40.5419 37.6481 40.1561 37.6095 42.2779C37.6095 42.7794 37.6288 43.2616 37.6095 43.7632C37.5902 44.2068 37.841 44.284 38.2075 44.284C38.574 44.284 38.7669 44.1682 38.7476 43.7632C38.7283 43.4931 38.5933 43.1652 38.9598 43.0302C39.3456 42.8951 39.7506 42.8951 40.1171 43.0495C40.3872 43.1652 40.3293 43.4545 40.3293 43.686C40.31 44.1104 40.4836 44.3225 40.9273 44.284C41.5831 44.2261 41.6603 44.6119 41.6603 45.1327C41.6603 45.6728 41.4867 45.9428 40.908 45.9428C40.0014 45.8657 39.0562 45.8657 38.1303 45.8657ZM25.4767 29.4313C25.4767 30.145 25.4959 30.8587 25.4767 31.5724C25.4767 31.9582 25.6503 32.0932 26.0167 32.0932C26.4025 32.0932 26.634 31.9968 26.6147 31.5724C26.5954 31.148 26.6147 30.743 26.6147 30.3186C26.6147 29.5278 26.6147 29.5085 27.4249 29.4506C27.8106 29.4313 27.9457 29.2577 27.9457 28.8912C27.9457 28.4283 27.6563 28.409 27.3091 28.3897C26.6533 28.3511 26.6147 28.274 26.6147 27.4445C26.5954 26.8851 26.8462 26.6922 27.367 26.7308C27.7914 26.7501 28.1964 26.7115 28.6208 26.7308C29.103 26.7501 29.2959 26.5765 29.2959 26.075C29.2766 25.2456 29.2766 24.4161 29.2959 23.5867C29.3152 23.0852 29.1223 22.8923 28.6401 22.9501C28.1 23.008 27.9457 22.738 27.965 22.2364C27.9842 21.3299 27.965 20.404 27.965 19.4974C27.965 19.1309 27.9071 18.8994 27.4634 18.8801C26.9812 18.8801 26.904 19.1116 26.904 19.5167C26.9233 20.4233 26.8848 21.3491 26.904 22.2557C26.9233 22.7765 26.7112 23.008 26.2096 22.9309C25.6695 22.873 25.3995 23.0466 25.4767 23.6253C25.5538 24.1847 25.2645 24.3775 24.7437 24.339C24.3193 24.3197 23.9142 24.339 23.4899 24.339C23.1041 24.339 22.834 24.3775 22.834 24.8791C22.834 25.3806 23.1234 25.4192 23.4899 25.3999C23.9142 25.3806 24.2036 25.5156 24.1457 25.9978C24.0878 26.5765 24.3386 26.7887 24.898 26.7308C25.3416 26.6922 25.4767 26.943 25.4767 27.3481C25.4767 28.0425 25.4767 28.7369 25.4767 29.4313ZM36.0278 33.4435C36.4136 33.4435 36.7994 33.5206 37.1466 33.4242C37.6867 33.2698 37.3202 32.7298 37.4552 32.3825C37.6481 31.881 38.0918 32.1125 38.439 32.0739C38.7476 32.0353 38.9598 32.1704 39.0176 32.5176C39.1527 33.4627 39.172 33.4627 40.0978 33.4627C40.3679 33.4627 40.6572 33.4627 40.9273 33.4627C41.2745 33.482 41.4867 33.3663 41.4867 32.9612C41.5059 32.5369 41.3131 32.4211 40.908 32.4018C40.1171 32.3825 40.0978 32.3633 40.0785 31.5531C40.0785 31.148 39.9242 30.9744 39.5192 30.9937C38.6511 31.013 37.7831 30.9937 36.8958 30.9937C36.0857 30.9937 36.0664 30.9937 36.0278 30.1836C36.0085 29.8364 35.8928 29.6821 35.5263 29.6821C35.1791 29.6821 34.9283 29.7785 34.9669 30.1836C35.0441 30.8587 34.6969 31.0709 34.0796 30.9937C33.6938 30.9551 33.5395 31.148 33.5588 31.5145C33.5781 31.9968 33.5395 32.4597 33.5588 32.9419C33.5974 33.5013 33.3852 33.7714 32.8065 33.7135C32.4015 33.6749 32.2279 33.8485 32.2279 34.2729C32.2279 34.6587 32.4207 34.813 32.7872 34.7744C33.3273 34.7358 33.6167 34.9287 33.5588 35.5267C33.5202 35.9125 33.6745 36.1054 34.0989 36.1054C34.5233 36.1054 34.6583 35.9318 34.6583 35.546C34.6583 35.2952 34.6969 35.0252 34.6969 34.7744C34.7162 33.482 34.7162 33.482 36.0278 33.4435ZM41.4867 36.9541C41.4867 36.4718 41.4867 36.0089 41.4867 35.5267C41.4867 35.1988 41.3516 35.0445 41.0237 35.0445C40.0593 35.0445 39.0755 35.0445 38.111 35.0445C37.7638 35.0445 37.6095 35.1988 37.6095 35.546C37.6095 36.4718 37.6095 37.417 37.6095 38.3429C37.6095 38.6901 37.7446 38.8444 38.111 38.8444C39.0755 38.8444 40.0593 38.8444 41.0237 38.8444C41.3516 38.8444 41.4867 38.7094 41.4867 38.3815C41.4867 37.9185 41.4867 37.4363 41.4867 36.9541ZM18.8026 28.8333C18.8026 29.3541 18.8026 29.8557 18.8026 30.3765C18.8026 30.6851 19.0148 30.7623 19.2848 30.7623C19.5549 30.7623 19.8249 30.7623 19.8442 30.3958C19.8635 30.2222 19.8635 30.0486 19.8635 29.8557C19.9021 29.3734 20.2493 29.412 20.5579 29.4313C20.8858 29.4506 21.3102 29.277 21.4066 29.8171C21.5802 30.7623 21.5995 30.7623 22.5447 30.7623C22.7762 30.7623 23.0269 30.7623 23.2584 30.7623C23.6056 30.7623 23.8757 30.7237 23.8949 30.2607C23.9142 29.7978 23.6828 29.6435 23.2777 29.7014C22.7376 29.7592 22.5061 29.5278 22.564 28.9877C22.6026 28.6212 22.4868 28.3511 22.0432 28.3897C21.4066 28.4476 21.1752 28.1389 21.2523 27.541C21.2909 27.1552 21.1366 26.943 20.7122 26.9623C20.23 26.9816 19.7671 26.9816 19.2848 26.9623C18.9376 26.9623 18.7833 27.0973 18.7833 27.4638C18.8026 27.9268 18.8026 28.3704 18.8026 28.8333ZM32.0157 28.8526C32.0157 28.3045 30.9663 28.3009 30.9371 28.8483C30.936 28.8683 30.9355 28.8891 30.9355 28.9105C30.9355 30.2607 30.9355 31.611 30.9355 32.9612C30.9355 33.347 31.0898 33.5013 31.4756 33.482C31.8614 33.482 32.0157 33.2891 31.9964 32.9226C31.9964 32.479 32.0157 32.0546 31.9964 31.611C31.9578 31.0323 32.1121 30.6851 32.7872 30.743C33.1537 30.7815 33.3466 30.6272 33.3466 30.2222C33.3466 29.8557 33.2116 29.6435 32.8258 29.6821C32.1893 29.7399 31.9578 29.4506 32.0157 28.8526ZM34.1375 37.7835C33.6745 37.7835 33.2309 37.7835 32.768 37.7835C32.3822 37.7642 32.2471 37.9571 32.2471 38.3236C32.2471 38.7094 32.4015 38.8637 32.768 38.8444C33.1923 38.8251 33.5974 38.8444 34.0217 38.8444C34.8705 38.8444 34.8898 38.8444 34.9669 39.6931C35.0055 40.0596 35.1984 40.1561 35.507 40.1561C35.8542 40.1561 36.0278 40.0211 36.0278 39.6739C36.0278 39.1916 36.0278 38.7287 36.0278 38.2465C36.0278 37.9185 35.8735 37.7642 35.5649 37.7835C35.1019 37.8028 34.6197 37.8028 34.1375 37.7835ZM44.3029 39.0952C42.9719 39.1145 43.0684 38.9794 43.0684 40.349C43.0684 40.5612 43.0684 40.7926 43.0684 41.0048C43.0491 41.3906 43.1841 41.5835 43.6085 41.5835C44.0521 41.5835 44.1678 41.3713 44.1293 41.0048C44.0521 40.3876 44.3029 40.1175 44.9394 40.1754C45.3445 40.2139 45.5567 40.0982 45.5567 39.616C45.5567 39.1145 45.2673 39.0759 44.9008 39.0952C44.7079 39.0952 44.4958 39.0952 44.3029 39.0952ZM29.4502 36.1246C29.5852 36.1246 29.7203 36.1246 29.8746 36.1246C30.6461 36.1246 30.6847 36.0861 30.6847 35.3145C30.6847 34.9866 30.6847 34.6394 30.6847 34.3115C30.704 33.9064 30.5111 33.7521 30.106 33.7328C29.701 33.7328 29.4888 33.8678 29.5467 34.2922C29.6045 34.8516 29.4116 35.1216 28.8137 35.0637C28.4472 35.0252 28.2157 35.1602 28.2157 35.5845C28.2157 36.0089 28.4086 36.1439 28.7944 36.1246C29.0066 36.1246 29.2187 36.1246 29.4502 36.1246ZM44.843 36.3947C44.4711 36.436 44.0966 36.4249 43.7225 36.4155C43.6846 36.4145 43.6465 36.414 43.6085 36.414C43.1841 36.3947 43.0684 36.6069 43.0684 36.9927C43.0684 37.3591 43.1841 37.552 43.5699 37.5328C43.9942 37.5135 44.4379 37.5135 44.8623 37.5328C45.3059 37.552 45.5567 37.4556 45.5374 36.9155C45.5374 36.3561 45.2095 36.3754 44.843 36.3947ZM46.8683 30.9166C46.849 30.9166 46.849 30.9166 46.8683 30.9166C46.8683 30.7044 46.849 30.4922 46.8683 30.2607C46.8876 29.7978 46.6369 29.7014 46.2318 29.7014C45.8074 29.7014 45.6917 29.9135 45.711 30.2993C45.7303 30.6851 45.7303 31.0902 45.711 31.476C45.6917 31.881 45.8267 32.0932 46.2704 32.0932C46.7526 32.0932 46.9069 31.881 46.8683 31.4374C46.849 31.2638 46.8683 31.0902 46.8683 30.9166ZM24.0107 33.482C24.0213 33.482 24.03 33.4734 24.03 33.4627C24.03 33.4521 24.0386 33.4434 24.0492 33.4435C24.2369 33.4447 24.4414 33.4627 24.6279 33.4627C24.9558 33.482 25.2259 33.4242 25.2259 32.9998C25.2259 32.614 25.0909 32.4018 24.6858 32.4211C24.2421 32.4404 23.8178 32.4404 23.3741 32.4211C22.9883 32.4211 22.834 32.5754 22.834 32.9612C22.834 33.347 23.0076 33.5013 23.3741 33.482C23.5986 33.4633 23.8049 33.4809 24.0107 33.482ZM31.3984 41.5835C32.0209 41.5835 32.1299 40.4329 31.5074 40.4262C31.5033 40.4262 31.4991 40.4261 31.4949 40.4261C31.0898 40.4261 30.9162 40.5612 30.9355 40.9855C30.9548 41.3134 30.9741 41.5835 31.3984 41.5835Z" fill="#0C97F9"/>
<path d="M24.1644 41.0437C24.1644 42.4518 24.1451 43.86 24.1644 45.2681C24.1644 45.6924 24.0486 45.8853 23.605 45.8853C20.7502 45.8853 17.8954 45.8853 15.0406 45.8853C14.6548 45.8853 14.4619 45.731 14.4619 45.3259C14.4619 42.4518 14.4619 39.5778 14.4619 36.7037C14.4619 36.2986 14.6162 36.125 15.0213 36.125C17.8761 36.125 20.7309 36.125 23.5857 36.125C24.0486 36.125 24.1451 36.3758 24.1451 36.7615C24.1644 38.1889 24.1644 39.6163 24.1644 41.0437ZM19.3228 44.2264C20.1908 44.2264 21.0588 44.2072 21.9461 44.2264C22.3898 44.2264 22.6019 44.1107 22.6019 43.6285C22.5827 41.8925 22.5827 40.1371 22.6019 38.4011C22.6019 37.9768 22.4669 37.7839 22.0233 37.8032C20.2487 37.8224 18.4548 37.8224 16.6802 37.8032C16.2365 37.8032 16.0822 37.9768 16.0822 38.4011C16.1015 40.1371 16.1015 41.8925 16.0822 43.6285C16.0822 44.1107 16.2944 44.2457 16.738 44.2264C17.5675 44.2072 18.4548 44.2264 19.3228 44.2264Z" fill="#0C97F9"/>
<path d="M43.5694 11.9553C44.9583 11.9553 46.3471 11.9746 47.7359 11.9553C48.2374 11.9553 48.4303 12.1096 48.4303 12.6304C48.4303 15.3888 48.4303 18.1664 48.4303 20.9441C48.4303 21.4263 48.276 21.6192 47.7745 21.6192C44.9776 21.5999 42.1806 21.5999 39.3837 21.6192C38.8822 21.6192 38.7279 21.4263 38.7279 20.9441C38.7472 18.9959 38.7472 17.0284 38.7279 15.0802C38.7279 14.2122 38.67 13.3441 38.7086 12.4761C38.7279 12.0325 38.8822 11.936 39.268 11.936C40.7146 11.9553 42.142 11.9553 43.5694 11.9553ZM40.3482 16.739C40.3482 17.607 40.3674 18.4943 40.3482 19.3624C40.3289 19.8446 40.5218 20.0568 41.004 20.0375C42.74 19.9796 44.4953 19.9603 46.2313 20.0375C46.6943 20.0568 46.8679 19.8832 46.8679 19.4202C46.8486 17.6649 46.8486 15.8903 46.8679 14.135C46.8679 13.7106 46.7136 13.537 46.2699 13.537C44.476 13.5563 42.7014 13.5563 40.9075 13.537C40.4639 13.537 40.3289 13.7299 40.3289 14.1543C40.3674 15.003 40.3482 15.871 40.3482 16.739Z" fill="#0C97F9"/>
<path d="M24.165 16.8162C24.165 18.1664 24.1458 19.5167 24.165 20.8669C24.1843 21.4263 24.0107 21.6385 23.4321 21.6385C20.693 21.6192 17.9539 21.6192 15.2149 21.6385C14.6362 21.6385 14.4626 21.4263 14.4819 20.8669C14.5012 18.1279 14.5012 15.4274 14.4819 12.7076C14.4819 12.1482 14.6362 11.936 15.2149 11.936C17.9539 11.9553 20.693 11.9553 23.4321 11.936C24.0107 11.936 24.1843 12.1482 24.165 12.7076C24.1458 14.0771 24.165 15.4467 24.165 16.8162ZM16.0636 16.7197C16.0636 17.607 16.0829 18.5136 16.0636 19.4009C16.0636 19.8639 16.2565 20.0182 16.7001 20.0375C17.5874 20.0568 18.4747 20.0182 19.362 19.9989C20.2493 19.9796 21.1367 20.1146 22.024 19.9796C22.4097 19.9217 22.564 19.7674 22.564 19.3624C22.5448 17.5878 22.5448 15.8324 22.564 14.0578C22.564 13.6528 22.3904 13.4985 21.9854 13.4985C20.1915 13.5177 18.4169 13.5177 16.623 13.4985C16.1986 13.4985 16.025 13.6528 16.025 14.0964C16.0829 14.9837 16.0636 15.8517 16.0636 16.7197Z" fill="#0C97F9"/>
<path d="M31.9961 13.3439C32.0154 11.7814 31.8225 11.955 33.3849 11.9357C34.5423 11.9357 35.7189 11.955 36.8763 11.9357C37.3971 11.9165 37.6478 12.0901 37.6285 12.6494C37.6092 13.1317 37.6478 13.5946 36.9341 13.5175C36.4326 13.4596 36.2783 13.7104 36.2976 14.1733C36.3169 14.6748 36.2976 15.157 36.2976 15.6586C36.2976 16.0636 36.124 16.2372 35.7189 16.2372C35.2174 16.2372 34.7352 16.2372 34.2336 16.2372C33.3656 16.2372 33.327 16.1987 33.327 15.3306C33.327 15.0027 33.2692 14.8291 32.8834 14.8098C31.9961 14.7905 31.9961 14.7713 31.9961 13.8647C31.9961 13.7104 31.9961 13.5367 31.9961 13.3439Z" fill="#0C97F9"/>
<path d="M48.4311 25.4773C48.4118 27.1362 48.5854 26.9626 46.9266 26.9626C46.7915 26.9626 46.6565 26.9626 46.5022 26.9626C45.557 26.9626 45.3256 26.6732 45.5377 25.7281C45.6342 25.3037 45.9621 25.3809 46.2514 25.3809C46.6179 25.3809 46.8494 25.2651 46.8494 24.8408C46.8494 24.4936 46.7337 24.32 46.3672 24.32C45.8078 24.32 45.2484 24.3007 44.7083 24.32C44.1489 24.3393 44.1103 24.0113 44.1296 23.587C44.1489 23.1626 44.0139 22.6611 44.7083 22.6611C45.287 22.6611 45.8657 22.6611 46.425 22.6611C46.8687 22.6418 47.1002 22.8154 47.0423 23.2976C46.9651 23.7606 47.1387 24.0306 47.6595 23.9728C48.2575 23.8956 48.5083 24.1657 48.4311 24.7443C48.4118 24.9951 48.4311 25.2458 48.4311 25.4773Z" fill="#0C97F9"/>
<path d="M17.3748 33.6172C17.3555 35.2182 17.587 35.0639 15.9088 35.0639C15.7352 35.0639 15.5423 35.0639 15.3687 35.0639C14.5393 35.0639 14.4814 34.9868 14.4814 34.1381C14.4814 33.6365 14.6743 33.4436 15.1566 33.4822C15.5231 33.5015 15.8317 33.4629 15.8124 32.9614C15.8124 32.4792 15.5231 32.4406 15.1566 32.4213C14.52 32.402 14.4814 32.3056 14.4814 31.4569C14.4814 30.9553 14.6743 30.7432 15.1951 30.7432C15.9474 30.7432 16.0053 30.7625 16.0632 31.5726C16.0824 31.8426 16.1403 32.0162 16.4489 32.0741C17.3941 32.2284 17.3941 32.2477 17.3941 33.1929C17.3941 33.3279 17.3941 33.4822 17.3748 33.6172Z" fill="#0C97F9"/>
<path d="M27.5985 38.8641C28.4063 38.812 28.3544 40.478 27.5462 40.4314C27.5256 40.4302 27.5044 40.4286 27.4828 40.4265C27.0584 40.3879 26.8655 40.5422 26.8655 41.0052C26.8655 41.7574 26.1325 42.1432 25.496 41.7574C25.0716 41.5067 25.2259 41.0437 25.2452 40.6773C25.2645 40.33 25.496 40.1757 25.8046 40.195C26.4219 40.2529 26.6533 40.0407 26.6341 39.3849C26.6148 38.6712 27.2127 38.8834 27.5985 38.8641Z" fill="#0C97F9"/>
<path d="M46.9453 45.8854C46.7717 45.8854 46.5981 45.8854 46.4052 45.8854C45.5758 45.8661 45.5565 45.8275 45.5179 45.0174C45.4986 44.4387 45.6915 44.1879 46.2895 44.2265C46.8103 44.2651 47.3504 44.2458 47.8905 44.2265C48.257 44.2265 48.4499 44.3615 48.4306 44.7473C48.4306 44.9209 48.4113 45.0945 48.4306 45.2874C48.4499 45.7118 48.2377 45.9047 47.8326 45.8854C47.5433 45.8661 47.2346 45.8661 46.9453 45.8854C46.9453 45.8661 46.9453 45.8661 46.9453 45.8854Z" fill="#0C97F9"/>
<path d="M14.4814 28.8526C14.4814 28.0811 14.52 28.0425 15.2723 28.0425C16.0246 28.0425 16.0439 28.0811 16.0439 28.9298C16.0439 29.6628 16.0053 29.7206 15.2144 29.7013C14.52 29.7013 14.4814 29.6628 14.4814 28.8526Z" fill="#0C97F9"/>
<path d="M20.1139 23.5672C20.1139 24.2616 20.0175 24.3388 19.3231 24.3388C18.6094 24.3388 18.5322 24.2424 18.5322 23.4322C18.5515 22.7571 18.6287 22.6799 19.3617 22.6799C20.0368 22.6799 20.1139 22.7764 20.1139 23.5672Z" fill="#0C97F9"/>
<path d="M47.6395 43.069C46.9065 43.069 46.8486 43.0304 46.8486 42.3167C46.8486 41.6223 46.9065 41.5645 47.6395 41.5645C48.3725 41.5645 48.4303 41.6223 48.4303 42.3167C48.4303 43.0111 48.3725 43.069 47.6395 43.069Z" fill="#0C97F9"/>
<path d="M26.6152 24.8404C26.6152 24.0688 26.7117 23.9724 27.464 23.9917C28.1584 23.9917 28.2162 24.0881 28.2162 24.9368C28.1969 25.6312 28.1584 25.6698 27.3289 25.6505C26.6152 25.6505 26.6152 25.6505 26.6152 24.8404Z" fill="#0C97F9"/>
<path d="M40.3483 36.9737C40.3483 37.7453 40.3097 37.7839 39.5575 37.7839C38.7473 37.7839 38.6895 37.726 38.6895 36.9737C38.6895 36.2022 38.7473 36.125 39.5382 36.125C40.329 36.125 40.3483 36.1636 40.3483 36.9737Z" fill="#0C97F9"/>
<path d="M21.426 41.0051C21.426 41.5452 21.426 42.066 21.426 42.6061C21.426 42.934 21.2717 43.0691 20.963 43.0691C19.8828 43.0691 18.7834 43.0691 17.7032 43.0691C17.3753 43.0691 17.2402 42.9147 17.2402 42.6061C17.2402 41.5259 17.2402 40.4264 17.2402 39.3462C17.2402 39.0183 17.3945 38.864 17.7032 38.864C18.7834 38.864 19.8828 38.864 20.963 38.864C21.3102 38.864 21.4453 39.0569 21.4453 39.4041C21.426 39.9249 21.426 40.465 21.426 41.0051Z" fill="#0C97F9"/>
<path d="M43.5503 18.8801C43.0487 18.8801 42.5665 18.8801 42.065 18.8801C41.6792 18.8801 41.4863 18.7451 41.4863 18.3207C41.5056 17.2984 41.5056 16.2568 41.4863 15.2344C41.4863 14.7908 41.6792 14.6558 42.1036 14.6558C43.1066 14.6751 44.1289 14.6751 45.132 14.6558C45.5178 14.6558 45.7107 14.7908 45.7107 15.2151C45.6914 16.2375 45.6914 17.2791 45.7107 18.3014C45.7107 18.7451 45.5178 18.8994 45.0934 18.8801C44.5726 18.8608 44.0711 18.8801 43.5503 18.8801Z" fill="#0C97F9"/>
<path d="M21.4257 16.7776C21.4257 17.2984 21.4257 17.7999 21.4257 18.3207C21.4257 18.6872 21.31 18.8801 20.9242 18.8801C19.8633 18.8801 18.7831 18.8801 17.7222 18.8801C17.375 18.8801 17.2207 18.7065 17.2207 18.3786C17.2207 17.3177 17.2207 16.2375 17.2207 15.1766C17.2207 14.8294 17.375 14.675 17.7222 14.675C18.7831 14.675 19.8633 14.675 20.9242 14.675C21.2714 14.675 21.4257 14.8294 21.4257 15.1766C21.4257 15.7167 21.4257 16.2568 21.4257 16.7776Z" fill="#0C97F9"/>
</svg>
