<svg width="367" height="162" viewBox="0 0 367 162" fill="none" xmlns="http://www.w3.org/2000/svg">
<rect x="213.923" y="17.2087" width="151.421" height="112.312" rx="12" stroke="#4397F3" stroke-width="2"/>
<rect x="222.31" y="25.176" width="134.648" height="82.1643" rx="6" stroke="#4397F3" stroke-width="2"/>
<path d="M302.831 69.2616L302.826 69.265C295.661 74.0411 290.638 79.872 289.31 81.5091C289.303 81.5179 289.296 81.5224 289.292 81.5245C289.288 81.5265 289.284 81.5273 289.28 81.5273H282.035L265.298 51.2086L276.458 51.2086L283.369 61.2844C284.033 62.2534 285.369 62.4327 286.274 61.7232C289.611 59.1066 293.511 56.6705 298.035 54.4743C302.624 52.3155 307.111 51.1294 311.381 51.0009L314.44 62.9833C314.44 62.9834 314.445 62.9983 314.427 63.0289C314.409 63.0617 314.379 63.086 314.349 63.0965C312.62 63.7051 308.833 65.3124 302.831 69.2616Z" stroke="#4397F3" stroke-width="2"/>
<rect x="285.539" y="114.319" width="8.18861" height="8.39513" rx="4.0943" stroke="#4397F3" stroke-width="2"/>
<rect x="279.149" y="129.691" width="20.9686" height="21.5095" stroke="#4397F3" stroke-width="2"/>
<path d="M239.647 160.787C240.151 155.334 244.739 151.064 250.323 151.064H328.944C334.529 151.064 339.117 155.334 339.621 160.787H239.647Z" stroke="#4397F3" stroke-width="2"/>
<path d="M50.7452 83.1245V66.284C55.0292 66.284 58.87 65.7669 62.2677 64.7329C65.8131 63.5511 68.8414 62 71.3527 60.0796C74.0117 58.1592 76.006 55.9433 77.3355 53.432C78.665 50.9207 79.3298 48.2617 79.3298 45.4549C79.3298 42.5005 78.665 39.8414 77.3355 37.4778C76.006 35.1143 74.0856 33.3416 71.5743 32.1598C69.063 30.8303 65.8131 30.1655 61.8245 30.1655C55.9156 30.1655 51.0407 31.8644 47.1999 35.262C43.3591 38.6596 41.4386 43.0914 41.4386 48.5571H7.09288C7.09288 39.3983 9.30874 31.1996 13.7404 23.9611C18.3199 16.5749 24.7459 10.8137 33.0184 6.67746C41.2909 2.39346 50.893 0.251465 61.8245 0.251465C73.4947 0.251465 83.3922 2.17187 91.517 6.01269C99.6418 9.85351 105.772 15.0238 109.909 21.5237C114.193 28.0235 116.335 35.262 116.335 43.2391C116.335 52.1025 113.38 59.4887 107.471 65.3976C101.71 71.3066 93.8806 75.7383 83.9831 78.6928C74.0856 81.6472 63.0063 83.1245 50.7452 83.1245ZM60.0518 161.787C50.7452 161.787 42.3988 160.384 35.0127 157.577C27.6265 154.77 21.3482 150.856 16.1779 145.833C11.1553 140.811 7.2406 135.123 4.43385 128.771C1.77483 122.419 0.445312 115.845 0.445312 109.05H37.2285C37.2285 114.073 38.3364 118.283 40.5523 121.68C42.7682 125.078 45.7226 127.589 49.4157 129.214C53.2565 130.839 57.2451 131.652 61.3813 131.652C65.8131 131.652 69.6539 130.987 72.9038 129.657C76.3014 128.328 78.9605 126.186 80.8809 123.231C82.8013 120.277 83.7615 116.658 83.7615 112.374C83.7615 109.124 83.0967 106.169 81.7672 103.51C80.4377 100.851 78.3696 98.5616 75.5628 96.6412C72.9038 94.5731 69.5061 93.022 65.3699 91.9879C61.2336 90.9538 56.3587 90.4368 50.7452 90.4368V71.3804C60.9382 71.3804 70.2448 72.2668 78.665 74.0395C87.233 75.6644 94.693 78.3235 101.045 82.0166C107.397 85.5619 112.272 90.1414 115.67 95.7549C119.067 101.368 120.766 108.09 120.766 115.919C120.766 124.93 118.329 132.907 113.454 139.85C108.579 146.646 101.636 152.038 92.6249 156.026C83.6138 159.867 72.7561 161.787 60.0518 161.787Z" fill="#EEF6FE"/>
<rect x="150.258" y="64.2009" width="52.6399" height="95.2645" rx="6" transform="rotate(-15.7097 150.258 64.2009)" fill="white" stroke="#4397F3" stroke-width="2"/>
<path d="M157.076 73.5591C156.179 70.3691 158.037 67.0558 161.227 66.1586L170.503 63.5494C170.579 63.528 170.658 63.5723 170.68 63.6484C171 64.7877 172.184 65.4516 173.323 65.1311L181.192 62.9178C182.331 62.5973 182.995 61.4139 182.675 60.2746C182.653 60.1985 182.698 60.1196 182.774 60.0982L192.591 57.337C195.781 56.4397 199.094 58.2983 199.991 61.4883L220.083 132.92C220.98 136.11 219.121 139.423 215.931 140.32L184.568 149.142C181.378 150.039 178.065 148.181 177.167 144.991L157.076 73.5591Z" fill="white" stroke="#4397F3" stroke-width="2"/>
<path d="M194.177 102.26L194.177 102.26L194.173 102.265C191.802 105.031 190.347 107.959 189.828 109.108C189.821 109.124 189.812 109.135 189.804 109.142C189.797 109.148 189.792 109.15 189.79 109.15L187.219 109.874L177.123 99.6397L180.798 98.606L184.352 101.571C185.258 102.328 186.578 102.126 187.264 101.233C188.305 99.8776 189.562 98.5266 191.063 97.1942C192.614 95.8507 194.211 94.8796 195.824 94.3046L198.109 98.2581C198.11 98.2598 198.112 98.264 198.114 98.274C198.115 98.2849 198.115 98.3031 198.11 98.327C198.097 98.3792 198.066 98.4266 198.031 98.4546C197.216 99.0933 195.915 100.256 194.177 102.26Z" stroke="#4397F3" stroke-width="2"/>
</svg>
