<svg width="94" height="31" viewBox="0 0 94 31" fill="none" xmlns="http://www.w3.org/2000/svg">
<path d="M47.5878 9.99782L47.0158 14.9935C46.9691 15.4012 46.624 15.709 46.2137 15.709H45.6982C45.2073 15.709 44.83 15.2746 44.8988 14.7885L45.9774 7.16548C46.0821 6.42612 47.0481 6.21284 47.4543 6.83944L50.5379 11.5964L53.6215 6.83944C54.0276 6.21284 54.9937 6.42612 55.0983 7.16548L56.177 14.7885C56.2457 15.2746 55.8684 15.709 55.3776 15.709H54.8621C54.4517 15.709 54.1066 15.4012 54.06 14.9935L53.4879 9.99782L51.2244 13.6552C50.9088 14.1651 50.167 14.1651 49.8514 13.6552L47.5878 9.99782Z" fill="#030F80"/>
<path d="M58.4465 12.9188V11.451H63.7072V12.9188H58.4465ZM62.7917 9.8315C62.7917 9.38562 63.1531 9.02415 63.599 9.02415H63.8008C64.2467 9.02415 64.6082 9.38562 64.6082 9.8315V14.9017C64.6082 15.3475 64.2467 15.709 63.8008 15.709H63.599C63.1531 15.709 62.7917 15.3475 62.7917 14.9017V9.8315ZM57.7635 9.8315C57.7635 9.38562 58.1249 9.02415 58.5708 9.02415H58.7727C59.2186 9.02415 59.58 9.38562 59.58 9.8315V14.9017C59.58 15.3475 59.2186 15.709 58.7727 15.709H58.5708C58.1249 15.709 57.7635 15.3475 57.7635 14.9017V9.8315Z" fill="#030F80"/>
<path d="M66.0125 12.3666C66.0125 11.669 66.1723 11.0587 66.4921 10.5355C66.8215 10.0124 67.2623 9.60545 67.8145 9.3148C68.3764 9.02415 69.011 8.87883 69.7182 8.87883C70.4255 8.87883 71.0552 9.02415 71.6074 9.3148C72.1693 9.60545 72.6102 10.0124 72.9299 10.5355C73.2593 11.0587 73.424 11.669 73.424 12.3666C73.424 13.0544 73.2593 13.6648 72.9299 14.1977C72.6102 14.7208 72.1693 15.1277 71.6074 15.4184C71.0552 15.709 70.4255 15.8543 69.7182 15.8543C69.011 15.8543 68.3764 15.709 67.8145 15.4184C67.2623 15.1277 66.8215 14.7208 66.4921 14.1977C66.1723 13.6648 66.0125 13.0544 66.0125 12.3666ZM67.9308 12.3666C67.9308 12.7444 68.0083 13.0787 68.1633 13.3693C68.328 13.6503 68.546 13.8731 68.8172 14.0378C69.0885 14.1928 69.3888 14.2703 69.7182 14.2703C70.0476 14.2703 70.348 14.1928 70.6192 14.0378C70.8905 13.8731 71.1036 13.6503 71.2586 13.3693C71.4233 13.0787 71.5057 12.7444 71.5057 12.3666C71.5057 11.9887 71.4233 11.6545 71.2586 11.3639C71.1036 11.0732 70.8905 10.8504 70.6192 10.6954C70.348 10.5404 70.0476 10.4629 69.7182 10.4629C69.3888 10.4629 69.0885 10.5404 68.8172 10.6954C68.546 10.8504 68.328 11.0732 68.1633 11.3639C68.0083 11.6545 67.9308 11.9887 67.9308 12.3666Z" fill="#030F80"/>
<path d="M74.8797 9.8315C74.8797 9.38562 75.2412 9.02415 75.687 9.02415H78.1422C78.5796 9.02415 78.9342 9.37875 78.9342 9.81616C78.9342 10.2536 78.5796 10.6082 78.1422 10.6082H76.7253V14.9017C76.7253 15.3475 76.3638 15.709 75.9179 15.709H75.687C75.2412 15.709 74.8797 15.3475 74.8797 14.9017V9.8315Z" fill="#030F80"/>
<path d="M79.2391 12.3666C79.2391 11.669 79.399 11.0587 79.7187 10.5355C80.0481 10.0124 80.4889 9.60545 81.0412 9.3148C81.6031 9.02415 82.2376 8.87883 82.9449 8.87883C83.6521 8.87883 84.2819 9.02415 84.8341 9.3148C85.396 9.60545 85.8368 10.0124 86.1565 10.5355C86.4859 11.0587 86.6506 11.669 86.6506 12.3666C86.6506 13.0544 86.4859 13.6648 86.1565 14.1977C85.8368 14.7208 85.396 15.1277 84.8341 15.4184C84.2819 15.709 83.6521 15.8543 82.9449 15.8543C82.2376 15.8543 81.6031 15.709 81.0412 15.4184C80.4889 15.1277 80.0481 14.7208 79.7187 14.1977C79.399 13.6648 79.2391 13.0544 79.2391 12.3666ZM81.1574 12.3666C81.1574 12.7444 81.2349 13.0787 81.3899 13.3693C81.5546 13.6503 81.7726 13.8731 82.0439 14.0378C82.3152 14.1928 82.6155 14.2703 82.9449 14.2703C83.2743 14.2703 83.5746 14.1928 83.8459 14.0378C84.1172 13.8731 84.3303 13.6503 84.4853 13.3693C84.65 13.0787 84.7324 12.7444 84.7324 12.3666C84.7324 11.9887 84.65 11.6545 84.4853 11.3639C84.3303 11.0732 84.1172 10.8504 83.8459 10.6954C83.5746 10.5404 83.2743 10.4629 82.9449 10.4629C82.6155 10.4629 82.3152 10.5404 82.0439 10.6954C81.7726 10.8504 81.5546 11.0732 81.3899 11.3639C81.2349 11.6545 81.1574 11.9887 81.1574 12.3666Z" fill="#030F80"/>
<path d="M47.5878 21.6982L47.0158 26.6939C46.9691 27.1016 46.624 27.4094 46.2137 27.4094H45.6982C45.2073 27.4094 44.83 26.975 44.8988 26.4889L45.9774 18.8659C46.0821 18.1265 47.0481 17.9132 47.4543 18.5398L50.5379 23.2967L53.6215 18.5398C54.0276 17.9132 54.9937 18.1265 55.0983 18.8659L56.177 26.4889C56.2457 26.975 55.8684 27.4094 55.3776 27.4094H54.8621C54.4517 27.4094 54.1066 27.1016 54.06 26.6939L53.4879 21.6982L51.2244 25.3556C50.9088 25.8655 50.167 25.8655 49.8514 25.3556L47.5878 21.6982Z" fill="#030F80"/>
<path d="M59.1005 25.4185C59.1005 25.6025 59.1489 25.7575 59.2458 25.8835C59.3427 25.9998 59.4735 26.0918 59.6382 26.1596C59.8125 26.2177 60.0015 26.2468 60.2049 26.2468C60.5052 26.2468 60.7814 26.1984 61.0333 26.1015C61.2851 26.0046 61.4838 25.8447 61.6291 25.6219C61.7744 25.3991 61.8471 25.1036 61.8471 24.7354L62.0796 25.5202C62.0796 25.9465 61.9682 26.3146 61.7453 26.6246C61.5225 26.925 61.2222 27.1575 60.8443 27.3222C60.4762 27.4772 60.0596 27.5547 59.5946 27.5547C59.1392 27.5547 58.7323 27.4772 58.3738 27.3222C58.0154 27.1672 57.7296 26.9395 57.5164 26.6392C57.313 26.3292 57.2113 25.9513 57.2113 25.5057C57.2113 25.0503 57.3275 24.6628 57.56 24.3431C57.8022 24.0137 58.1365 23.7618 58.5628 23.5874C58.9987 23.413 59.5074 23.3258 60.0887 23.3258C60.4471 23.3258 60.7814 23.3694 61.0914 23.4566C61.4014 23.5438 61.663 23.6455 61.8761 23.7618C62.0893 23.878 62.2394 23.9895 62.3266 24.096V25.0116C62.0554 24.8081 61.7744 24.6579 61.4838 24.5611C61.1931 24.4642 60.8492 24.4157 60.452 24.4157C60.1613 24.4157 59.9143 24.4593 59.7108 24.5465C59.5074 24.6337 59.3524 24.75 59.2458 24.8953C59.1489 25.0406 59.1005 25.215 59.1005 25.4185ZM58.9697 22.3812C58.7023 22.5085 58.3266 22.3127 58.1907 22.0496L58.1781 22.0253C57.98 21.6417 58.1255 21.1691 58.5267 21.0096C58.6964 20.9422 58.8779 20.8762 59.0714 20.8117C59.5655 20.6373 60.1129 20.5501 60.7135 20.5501C61.2948 20.5501 61.8035 20.6325 62.2394 20.7972C62.6851 20.9619 63.0339 21.2041 63.2858 21.5238C63.5377 21.8338 63.6636 22.2165 63.6636 22.6719V26.5011C63.6636 27.0027 63.257 27.4094 62.7553 27.4094C62.2537 27.4094 61.8471 27.0027 61.8471 26.5011V22.977C61.8471 22.6767 61.7308 22.4442 61.4983 22.2795C61.2658 22.1051 60.9654 22.0179 60.5973 22.0179C60.2776 22.0179 59.9772 22.0567 59.6963 22.1342C59.425 22.202 59.1828 22.2843 58.9697 22.3812Z" fill="#030F80"/>
<path d="M67.2584 29.6619C67.2584 30.1836 66.8355 30.6065 66.3138 30.6065C65.7921 30.6065 65.3692 30.1836 65.3692 29.6619V21.6691C65.3692 21.1474 65.7921 20.7245 66.3138 20.7245C66.8355 20.7245 67.2584 21.1474 67.2584 21.6691V29.6619ZM72.7516 24.067C72.7516 24.8226 72.6014 25.4669 72.3011 25.9998C72.0008 26.5326 71.6036 26.9347 71.1095 27.2059C70.6251 27.4772 70.1019 27.6128 69.54 27.6128C68.9684 27.6128 68.4694 27.4675 68.0432 27.1769C67.6266 26.8862 67.302 26.4745 67.0695 25.9416C66.8467 25.4088 66.7352 24.7839 66.7352 24.067C66.7352 23.3403 66.8467 22.7155 67.0695 22.1923C67.302 21.6594 67.6266 21.2477 68.0432 20.957C68.4694 20.6664 68.9684 20.5211 69.54 20.5211C70.1019 20.5211 70.6251 20.6567 71.1095 20.928C71.6036 21.1993 72.0008 21.6013 72.3011 22.1342C72.6014 22.6573 72.7516 23.3016 72.7516 24.067ZM70.8043 24.067C70.8043 23.6697 70.7219 23.3307 70.5572 23.0497C70.3925 22.7687 70.1697 22.5556 69.8888 22.4103C69.6175 22.265 69.3172 22.1923 68.9878 22.1923C68.7068 22.1923 68.4307 22.265 68.1594 22.4103C67.8978 22.5459 67.6798 22.7542 67.5055 23.0352C67.3408 23.3161 67.2584 23.6601 67.2584 24.067C67.2584 24.4739 67.3408 24.8178 67.5055 25.0988C67.6798 25.3797 67.8978 25.5928 68.1594 25.7382C68.4307 25.8738 68.7068 25.9416 68.9878 25.9416C69.3172 25.9416 69.6175 25.869 69.8888 25.7236C70.1697 25.5783 70.3925 25.3652 70.5572 25.0842C70.7219 24.8033 70.8043 24.4642 70.8043 24.067Z" fill="#030F80"/>
<path d="M74.1113 21.6328C74.1113 21.1312 74.5179 20.7245 75.0196 20.7245C75.5212 20.7245 75.9278 21.1312 75.9278 21.6328V26.5011C75.9278 27.0027 75.5212 27.4094 75.0196 27.4094C74.5179 27.4094 74.1113 27.0027 74.1113 26.5011V21.6328ZM78.1575 20.9417C78.3027 20.8023 78.4962 20.7245 78.6974 20.7245C79.3999 20.7245 79.7442 21.5806 79.2373 22.067L77.7589 23.4857L79.7818 25.9911C80.2418 26.5608 79.8363 27.4094 79.104 27.4094C78.8415 27.4094 78.5929 27.291 78.4275 27.087L75.5064 23.4857L78.1575 20.9417Z" fill="#030F80"/>
<path d="M82.3298 24.4884V23.3258H86.3261C86.2874 23.0352 86.2099 22.7833 86.0936 22.5701C85.9774 22.357 85.8175 22.1923 85.6141 22.076C85.4106 21.9598 85.1539 21.9016 84.8438 21.9016C84.5241 21.9016 84.2383 21.9743 83.9864 22.1196C83.7345 22.2553 83.5359 22.4587 83.3906 22.73C83.2453 23.0013 83.1726 23.321 83.1726 23.6891L83.1436 24.067C83.1436 24.5417 83.2162 24.9341 83.3615 25.2441C83.5166 25.5444 83.7249 25.7672 83.9864 25.9126C84.248 26.0482 84.5435 26.116 84.8729 26.116C85.1636 26.116 85.4203 26.0773 85.6431 25.9998C85.8659 25.9222 86.0646 25.8108 86.2389 25.6655C86.2427 25.6624 86.2465 25.6592 86.2502 25.656C86.5454 25.4065 86.9346 25.2373 87.3038 25.3517C87.821 25.5119 88.0548 26.1193 87.6842 26.5141C87.6347 26.5668 87.5841 26.6181 87.5323 26.6682C87.232 26.9492 86.8638 27.1672 86.4279 27.3222C86.0016 27.4772 85.4784 27.5547 84.8584 27.5547C84.1124 27.5547 83.4681 27.4045 82.9256 27.1042C82.383 26.8039 81.9664 26.3921 81.6758 25.869C81.3948 25.3361 81.2544 24.7354 81.2544 24.067C81.2544 23.941 81.2592 23.8199 81.2689 23.7037C81.2786 23.5874 81.2931 23.4711 81.3125 23.3549C81.4094 22.8027 81.608 22.3182 81.9083 21.9016C82.2087 21.4851 82.6107 21.1605 83.1145 20.928C83.6183 20.6955 84.2044 20.5792 84.8729 20.5792C85.6092 20.5792 86.2341 20.7197 86.7476 21.0006C87.2707 21.2719 87.668 21.6594 87.9392 22.1632C88.2105 22.667 88.3461 23.2725 88.3461 23.9798C88.3461 24.0379 88.3461 24.1106 88.3461 24.1977C88.3461 24.3671 88.194 24.4884 88.0246 24.4884H82.3298Z" fill="#030F80"/>
<path d="M88.9367 21.5165C88.9367 21.0791 89.2913 20.7245 89.7287 20.7245H92.5916C93.029 20.7245 93.3836 21.0791 93.3836 21.5165C93.3836 21.954 93.029 22.3086 92.5916 22.3086H89.7287C89.2913 22.3086 88.9367 21.954 88.9367 21.5165ZM90.2592 21.0152H92.0757V26.5011C92.0757 27.0027 91.6691 27.4094 91.1674 27.4094C90.6658 27.4094 90.2592 27.0027 90.2592 26.5011V21.0152Z" fill="#030F80"/>
<path d="M3.21484 27.4095L9.39849 3.54333L15.1935 24.2175L21.2069 9.64945L26.5637 21.73L32.0588 13.4065L35.4841 19.6073" stroke="url(#paint0_linear_1329_2582)" stroke-width="6.05512" stroke-linecap="round" stroke-linejoin="round"/>
<path d="M3.21484 27.4095L9.39849 3.54333M15.1934 24.2175L21.2069 9.64945M26.5637 21.73L32.0588 13.4065" stroke="url(#paint1_linear_1329_2582)" stroke-width="6.05512" stroke-linecap="round" stroke-linejoin="round"/>
<defs>
<linearGradient id="paint0_linear_1329_2582" x1="25.2114" y1="7.49794" x2="23.5359" y2="24.6178" gradientUnits="userSpaceOnUse">
<stop stop-color="#8600B5"/>
<stop offset="1" stop-color="#1CADFF"/>
</linearGradient>
<linearGradient id="paint1_linear_1329_2582" x1="26.6724" y1="11.5127" x2="29.2903" y2="23.6332" gradientUnits="userSpaceOnUse">
<stop stop-color="#35008B"/>
<stop offset="1" stop-color="#0091FA"/>
</linearGradient>
</defs>
</svg>
