<svg width="380" height="172" viewBox="0 0 380 172" fill="none" xmlns="http://www.w3.org/2000/svg">
<path d="M0.505859 53.9614V20.6574L76.6294 5.25146V166.787H39.7004V44.2195L0.505859 53.9614Z" fill="#EEF6FE"/>
<path d="M82.4116 125.978C79.4527 124.809 80.0489 123.396 80.4833 120.704C80.9055 118.087 80.9461 118.052 78.8892 116.366C76.6127 114.501 75.1948 112.586 73.6837 110.079C71.7947 106.944 71.5832 104.104 71.5254 100.489C71.5014 98.9909 71.647 95.5912 73.809 95.6302C74.8769 95.6495 75.7377 95.1253 76.8394 95.303L80.8162 95.9446C83.371 96.3567 84.9777 96.5322 86.5379 94.1106C87.3905 92.7873 88.2642 90.5372 87.3778 89.0409C86.9219 88.2713 87.0125 86.8681 86.7032 85.9766C86.1957 84.5139 85.9194 82.61 85.686 81.0704C85.125 77.3691 84.9646 73.2375 85.5616 69.5371C85.8606 67.6836 88.6784 66.4847 90.2383 65.7039C93.0162 64.3134 94.6062 60.2039 95.8305 57.5631L95.8358 57.5516C97.492 53.9791 99.8489 48.8953 103.793 47.4447C106.02 46.6256 109.49 46.9381 111.695 47.8152C115.147 49.1883 116.358 49.0675 119.75 47.2399C123.254 45.3526 126.393 43.1306 129.846 41.1269C132.283 39.7128 135.273 39.1679 137.972 38.4678C139.661 38.0298 141.392 37.0344 143.164 37.3203C145.865 37.756 148.072 39.754 147.838 42.662C147.551 46.2351 146.763 49.2297 143.025 50.4874L143.008 50.493C141.342 51.0535 137.738 52.2659 136.634 53.7352C136.077 54.4767 135.486 55.3825 135.337 56.3051C135.149 57.4738 136.282 57.1257 137.116 57.5845C139.635 58.9703 144.197 57.5204 146.97 57.476C149.319 57.4384 152.598 57.2491 154.381 58.9803C156.176 60.7232 158.429 63.2064 160.978 63.6176C163.077 63.9563 163.551 61.3166 165.155 61.5124C167.138 61.7545 169.507 61.9519 170.907 63.4549C172.098 64.7338 173.404 66.5105 174.816 67.5262C175.617 68.1026 176.378 68.2567 177.027 67.3536C178.402 65.443 179.596 63.6564 181.533 62.2577C185.126 59.663 188.218 60.5394 191.417 63.0582C193.751 64.8961 198.274 67.142 200.555 64.2457C202.829 61.358 206.567 61.5657 209.099 59.2719C210.935 57.6085 213.212 56.4515 215.734 56.1516C217.073 55.9925 218.439 56.213 219.89 56.4472L219.963 56.459C222.355 56.8448 223.449 58.9944 224.961 60.6177C226.135 61.8786 227.105 63.3228 226.803 65.1938C226.55 66.7609 225.229 68.8626 226.89 69.5749C229.24 70.5821 232.062 70.718 234.581 71.1243C236.829 71.4871 238.504 70.0346 240.496 70.0053C243.676 69.9585 246.86 69.9293 249.999 70.4355C250.941 70.5875 252.119 71.1473 252.754 70.3067C253.9 68.7903 255.084 67.1549 256.296 65.7169C258.027 63.6634 260.157 62.0139 262.839 61.3907C265.453 60.783 267.941 59.6997 270.625 59.4708C274.273 59.1599 278.094 58.5048 281.365 56.748C283.783 55.4491 284.647 53.206 286.319 51.1951C289.333 47.5707 292.03 43.5641 296.37 41.3916C300.216 39.4664 304.493 38.6012 308.461 36.99C310.76 36.0566 313.639 36.6913 315.053 38.6489C316.804 41.0738 313.587 43.838 312.35 45.5576C309.946 48.8994 304.8 49.8766 307.317 54.4723C309.168 57.8518 316.04 55.906 315.188 61.1899C314.678 64.3499 313.505 66.0532 311.46 68.4404C309.178 71.1026 307.994 73.788 307.439 77.2317C307.131 79.1384 308.572 81.6899 310.377 82.536C312.089 83.3382 315.851 84.4782 316.714 86.183C319.517 91.7158 322.638 96.2509 323.843 102.419C324.454 105.54 324.882 109.378 324.376 112.519C323.813 116.004 316.308 113.652 314.65 111.832C312.875 109.884 312.507 106.942 311.54 104.581C310.617 102.326 309.447 100.226 308.449 98.0392C307.552 96.0738 307.521 93.8914 305.315 92.8577C303.481 91.9984 300.721 90.3635 298.737 91.7965C294.881 94.5814 293.954 99.0921 292.88 103.357C292.111 106.409 289.218 106.306 287.367 108.136C283.89 111.574 279.484 118.306 284.494 122.252C287.568 124.672 292.352 120.287 294.108 125.413C295.567 129.671 295.575 134.048 296.702 138.315C296.938 139.208 296.305 140.216 296.424 141.138C296.541 142.052 296.868 142.758 296.72 143.678C296.465 145.255 296.628 146.707 296.375 148.276C296.087 150.06 295.758 153.022 294.775 154.502C294.004 155.663 294.09 156.957 293.505 158.135C292.952 159.248 292.017 160.183 291.495 161.296C289.652 165.23 288.185 167.511 283.663 166.781C279.825 166.162 285.836 154.322 286.791 152.994C287.961 151.368 288.319 149.171 286.515 148.008C284.724 146.855 283.36 147.519 281.711 148.116C279.938 148.758 278.058 149.411 276.109 149.484C272.976 149.601 267.615 149.068 265.536 146.389C263.804 144.156 262.438 142.046 261.276 139.437C260.307 137.264 259.166 137.421 256.896 137.055C254.307 136.637 253.519 135.888 250.981 136.806C249.762 137.247 248.263 139.221 249.182 140.574C250.882 143.076 252.917 147.523 250.694 150.346C248.816 152.73 244.939 152.594 242.348 152.176C237.932 151.464 233.973 150.972 229.654 152.113C225.486 153.214 223.44 152.627 219.615 150.494C217.719 149.436 216.496 147.548 214.554 146.589C212.276 145.465 209.489 144.096 206.993 143.693C204.987 143.37 200.273 141.669 198.594 143.53C197.085 145.202 195.659 145.599 193.438 145.962C187.896 146.867 181.618 144.826 176.589 142.67C170.655 140.127 166.669 135.488 163.756 129.793C162.167 126.686 162.146 123.015 159.427 120.537L159.349 120.465C157.44 118.725 155.768 117.202 153.237 116.384C148.717 114.923 144.194 115.147 140.338 111.987C139.894 111.624 135.067 106.677 134.623 107.625C134.36 108.186 134.591 109.005 134.25 109.527C133.744 110.303 132.557 110.163 131.992 110.95C130.506 113.015 129.449 115.958 128.336 118.3C127.468 120.126 125.457 119.027 123.634 118.732C121.955 118.462 120.16 118.504 118.965 117.185C117.869 115.976 119.691 112.368 118.61 110.776C117.024 108.442 116.164 106.201 113.82 104.643C110.851 102.67 106.677 100.994 103.809 103.536C101.053 105.979 101.946 110.931 100.127 114.058C98.953 116.074 92.8071 118.496 91.2179 115.686C89.7434 113.08 88.6139 118.207 88.4517 118.615C87.9204 119.95 87.8766 121.633 87.6478 123.051C87.4096 124.528 86.41 125.802 86.1561 127.376C85.9127 128.884 83.6198 126.172 82.4116 125.978Z" fill="white"/>
<path d="M76.8394 95.303C75.7377 95.1253 74.8769 95.6495 73.809 95.6302C71.647 95.5912 71.5014 98.9909 71.5254 100.489C71.5832 104.104 71.7947 106.944 73.6837 110.079C75.1948 112.586 76.6127 114.501 78.8892 116.366C80.9461 118.052 80.9055 118.087 80.4833 120.704C80.0489 123.396 79.4527 124.809 82.4116 125.978C83.6198 126.172 85.9127 128.884 86.1561 127.376C86.41 125.802 87.4096 124.528 87.6478 123.051C87.8766 121.633 87.9204 119.95 88.4517 118.615C88.6139 118.207 89.7434 113.08 91.2179 115.686C92.8071 118.496 98.953 116.074 100.127 114.058C101.946 110.931 101.053 105.979 103.809 103.536C106.677 100.994 110.851 102.67 113.82 104.643C116.164 106.201 117.024 108.442 118.61 110.776C119.691 112.368 117.869 115.976 118.965 117.185C120.16 118.504 121.955 118.462 123.634 118.732C125.457 119.027 127.468 120.126 128.336 118.3C129.449 115.958 130.506 113.015 131.992 110.95C132.557 110.163 133.744 110.303 134.25 109.527C134.591 109.005 134.36 108.186 134.623 107.625C135.067 106.677 139.894 111.624 140.338 111.987C144.194 115.147 148.717 114.923 153.237 116.384C155.768 117.202 157.44 118.725 159.349 120.465M76.8394 95.303C78.165 95.5169 79.4906 95.7307 80.8162 95.9446M76.8394 95.303L80.8162 95.9446M80.8162 95.9446C83.371 96.3567 84.9777 96.5322 86.5379 94.1106C87.3905 92.7873 88.2642 90.5372 87.3778 89.0409C86.9219 88.2713 87.0125 86.8681 86.7032 85.9766C86.1957 84.5139 85.9194 82.61 85.686 81.0704C85.125 77.3691 84.9646 73.2375 85.5616 69.5371C85.8606 67.6836 88.6784 66.4847 90.2383 65.7039C93.0162 64.3135 94.6062 60.2039 95.8305 57.5631M95.8305 57.5631L95.8358 57.5516M95.8305 57.5631C95.8322 57.5593 95.834 57.5554 95.8358 57.5516M143.025 50.4874C146.763 49.2297 147.551 46.2351 147.838 42.662C148.072 39.754 145.865 37.756 143.164 37.3203C141.392 37.0344 139.661 38.0298 137.972 38.4678C135.273 39.1679 132.283 39.7128 129.846 41.1269C126.393 43.1306 123.254 45.3526 119.75 47.2399C116.358 49.0675 115.147 49.1883 111.695 47.8152C109.49 46.9381 106.02 46.6256 103.793 47.4447C99.8489 48.8953 97.492 53.9791 95.8358 57.5516M143.025 50.4874L143.008 50.493M143.025 50.4874C143.019 50.4892 143.014 50.4911 143.008 50.493M219.963 56.459C222.355 56.8448 223.449 58.9944 224.961 60.6177C226.135 61.8786 227.105 63.3228 226.803 65.1938C226.55 66.7609 225.229 68.8626 226.89 69.5749C229.24 70.5821 232.062 70.7179 234.581 71.1243C236.829 71.4871 238.504 70.0346 240.496 70.0053C243.676 69.9585 246.86 69.9293 249.999 70.4355C250.941 70.5875 252.119 71.1473 252.754 70.3067C253.9 68.7903 255.084 67.1549 256.296 65.7169C258.027 63.6634 260.157 62.0139 262.839 61.3907C265.453 60.783 267.941 59.6997 270.625 59.4708C274.273 59.1599 278.094 58.5048 281.365 56.748C283.783 55.4491 284.647 53.206 286.319 51.1951C289.333 47.5707 292.03 43.5641 296.37 41.3916C300.216 39.4665 304.493 38.6012 308.461 36.99C310.76 36.0566 313.639 36.6913 315.053 38.6489C316.804 41.0738 313.587 43.838 312.35 45.5576C309.946 48.8994 304.8 49.8766 307.317 54.4723C309.168 57.8518 316.04 55.906 315.188 61.1899C314.678 64.3499 313.505 66.0532 311.46 68.4404C309.178 71.1026 307.994 73.788 307.439 77.2317C307.131 79.1384 308.572 81.6899 310.377 82.536C312.089 83.3382 315.851 84.4782 316.714 86.183C319.517 91.7158 322.638 96.2509 323.843 102.419C324.454 105.54 324.882 109.378 324.376 112.519C323.813 116.004 316.308 113.652 314.65 111.832C312.875 109.884 312.507 106.942 311.54 104.581C310.617 102.326 309.447 100.226 308.449 98.0392C307.552 96.0738 307.521 93.8914 305.315 92.8577C303.482 91.9984 300.721 90.3635 298.737 91.7965C294.881 94.5814 293.954 99.0921 292.88 103.357C292.111 106.409 289.218 106.306 287.367 108.136C283.89 111.574 279.484 118.306 284.494 122.252C287.568 124.672 292.352 120.287 294.108 125.413C295.567 129.671 295.575 134.048 296.702 138.315C296.938 139.208 296.305 140.216 296.424 141.138C296.541 142.052 296.868 142.758 296.72 143.678C296.465 145.255 296.628 146.707 296.375 148.276C296.087 150.06 295.758 153.022 294.775 154.502C294.004 155.663 294.09 156.957 293.505 158.135C292.952 159.248 292.017 160.183 291.495 161.296C289.652 165.23 288.185 167.511 283.663 166.781C279.825 166.162 285.836 154.322 286.791 152.994C287.961 151.368 288.319 149.171 286.515 148.008C284.724 146.855 283.36 147.519 281.711 148.116C279.938 148.758 278.058 149.411 276.109 149.484C272.976 149.601 267.615 149.068 265.536 146.389C263.804 144.156 262.438 142.046 261.276 139.437C260.307 137.264 259.166 137.421 256.896 137.055C254.307 136.637 253.519 135.888 250.981 136.806C249.762 137.247 248.263 139.221 249.182 140.574C250.882 143.076 252.917 147.523 250.694 150.346C248.816 152.73 244.939 152.594 242.348 152.176C237.932 151.464 233.973 150.972 229.654 152.113C225.486 153.214 223.44 152.627 219.615 150.494C217.719 149.436 216.496 147.548 214.554 146.589C212.276 145.465 209.489 144.096 206.993 143.693C204.987 143.37 200.273 141.669 198.594 143.53C197.085 145.202 195.659 145.599 193.438 145.962C187.896 146.867 181.618 144.826 176.589 142.67C170.655 140.127 166.669 135.488 163.756 129.793C162.167 126.686 162.146 123.015 159.427 120.537M219.963 56.459L219.89 56.4472M219.963 56.459C219.939 56.4551 219.915 56.4511 219.89 56.4472M159.427 120.537L159.349 120.465M159.427 120.537C159.401 120.513 159.375 120.489 159.349 120.465M143.008 50.493C141.342 51.0535 137.738 52.2659 136.634 53.7352C136.077 54.4767 135.486 55.3825 135.337 56.3051C135.149 57.4738 136.282 57.1257 137.116 57.5845C139.635 58.9703 144.197 57.5204 146.97 57.476C149.319 57.4384 152.598 57.2491 154.381 58.9803C156.176 60.7232 158.429 63.2064 160.978 63.6176C163.077 63.9563 163.551 61.3166 165.155 61.5124C167.138 61.7545 169.507 61.9519 170.907 63.4549C172.098 64.7338 173.404 66.5105 174.816 67.5262C175.617 68.1026 176.378 68.2567 177.027 67.3536C178.402 65.443 179.596 63.6564 181.533 62.2577C185.126 59.663 188.218 60.5394 191.417 63.0582C193.751 64.8961 198.274 67.142 200.555 64.2457C202.829 61.358 206.567 61.5657 209.099 59.2719C210.935 57.6085 213.212 56.4515 215.734 56.1516C217.073 55.9925 218.439 56.213 219.89 56.4472" stroke="#4397F3" stroke-width="2" stroke-linecap="round"/>
<circle cx="245.389" cy="100.127" r="2.58065" fill="#4397F3"/>
<circle cx="254.679" cy="111.224" r="2.58065" fill="#4397F3"/>
<circle cx="271.454" cy="111.224" r="2.58065" fill="#4397F3"/>
<circle cx="287.339" cy="71.0098" r="2.58065" fill="#4397F3"/>
<circle cx="280.88" cy="82.6576" r="2.58065" fill="#4397F3"/>
<circle cx="242.808" cy="126.55" r="2.58065" fill="#4397F3"/>
<circle cx="288.287" cy="131.711" r="2.58065" fill="#4397F3"/>
<mask id="path-11-inside-1_1332_3126" fill="white">
<path fill-rule="evenodd" clip-rule="evenodd" d="M247.839 47.842C237.929 47.842 232.17 55.3504 232.17 62.7007C232.17 73.8409 244.525 83.3011 247.293 85.2809C247.626 85.5186 248.05 85.5153 248.379 85.2729C251.136 83.2413 263.509 73.5195 263.509 62.7007C263.509 54.9829 257.75 47.842 247.839 47.842ZM248.072 67.5526C250.872 67.5526 253.142 65.2827 253.142 62.4827C253.142 59.6827 250.872 57.4129 248.072 57.4129C245.272 57.4129 243.002 59.6827 243.002 62.4827C243.002 65.2827 245.272 67.5526 248.072 67.5526Z"/>
</mask>
<path fill-rule="evenodd" clip-rule="evenodd" d="M247.839 47.842C237.929 47.842 232.17 55.3504 232.17 62.7007C232.17 73.8409 244.525 83.3011 247.293 85.2809C247.626 85.5186 248.05 85.5153 248.379 85.2729C251.136 83.2413 263.509 73.5195 263.509 62.7007C263.509 54.9829 257.75 47.842 247.839 47.842ZM248.072 67.5526C250.872 67.5526 253.142 65.2827 253.142 62.4827C253.142 59.6827 250.872 57.4129 248.072 57.4129C245.272 57.4129 243.002 59.6827 243.002 62.4827C243.002 65.2827 245.272 67.5526 248.072 67.5526Z" fill="white"/>
<path d="M247.293 85.2809L248.457 83.6541L248.457 83.6541L247.293 85.2809ZM248.379 85.2729L249.566 86.8829L249.566 86.8829L248.379 85.2729ZM234.17 62.7007C234.17 56.3733 239.114 49.842 247.839 49.842V45.842C236.745 45.842 230.17 54.3275 230.17 62.7007H234.17ZM248.457 83.6541C247.135 82.7091 243.499 79.9564 240.212 76.1239C236.887 72.2476 234.17 67.556 234.17 62.7007H230.17C230.17 68.9856 233.63 74.5941 237.175 78.7279C240.758 82.9055 244.683 85.8729 246.13 86.9077L248.457 83.6541ZM247.193 83.6629C247.56 83.3922 248.084 83.3875 248.457 83.6541L246.13 86.9076C247.168 87.6497 248.541 87.6385 249.566 86.8829L247.193 83.6629ZM261.509 62.7007C261.509 67.3869 258.797 72.0611 255.455 75.9853C252.158 79.8562 248.512 82.6902 247.193 83.6629L249.566 86.8829C251.003 85.824 254.921 82.7813 258.5 78.5787C262.034 74.4293 265.509 68.8333 265.509 62.7007H261.509ZM247.839 49.842C256.596 49.842 261.509 56.0376 261.509 62.7007H265.509C265.509 53.9282 258.903 45.842 247.839 45.842V49.842ZM251.142 62.4827C251.142 64.1781 249.768 65.5526 248.072 65.5526V69.5526C251.977 69.5526 255.142 66.3874 255.142 62.4827H251.142ZM248.072 59.4129C249.768 59.4129 251.142 60.7873 251.142 62.4827H255.142C255.142 58.5781 251.977 55.4129 248.072 55.4129V59.4129ZM245.002 62.4827C245.002 60.7873 246.377 59.4129 248.072 59.4129V55.4129C244.168 55.4129 241.002 58.5781 241.002 62.4827H245.002ZM248.072 65.5526C246.377 65.5526 245.002 64.1781 245.002 62.4827H241.002C241.002 66.3874 244.168 69.5526 248.072 69.5526V65.5526Z" fill="#4397F3" mask="url(#path-11-inside-1_1332_3126)"/>
<mask id="path-13-inside-2_1332_3126" fill="white">
<path fill-rule="evenodd" clip-rule="evenodd" d="M355.713 37.981C340.634 37.981 331.871 49.4051 331.871 60.5888C331.871 77.9487 351.59 92.6273 355.161 95.1436C355.495 95.3789 355.926 95.3761 356.257 95.1359C359.81 92.5536 379.554 77.4463 379.554 60.5888C379.554 48.8459 370.791 37.981 355.713 37.981ZM356.067 67.9711C360.327 67.9711 363.781 64.5174 363.781 60.2571C363.781 55.9968 360.327 52.5432 356.067 52.5432C351.807 52.5432 348.353 55.9968 348.353 60.2571C348.353 64.5174 351.807 67.9711 356.067 67.9711Z"/>
</mask>
<path fill-rule="evenodd" clip-rule="evenodd" d="M355.713 37.981C340.634 37.981 331.871 49.4051 331.871 60.5888C331.871 77.9487 351.59 92.6273 355.161 95.1436C355.495 95.3789 355.926 95.3761 356.257 95.1359C359.81 92.5536 379.554 77.4463 379.554 60.5888C379.554 48.8459 370.791 37.981 355.713 37.981ZM356.067 67.9711C360.327 67.9711 363.781 64.5174 363.781 60.2571C363.781 55.9968 360.327 52.5432 356.067 52.5432C351.807 52.5432 348.353 55.9968 348.353 60.2571C348.353 64.5174 351.807 67.9711 356.067 67.9711Z" fill="white"/>
<path d="M355.161 95.1436L354.009 96.7785L355.161 95.1436ZM356.257 95.1359L357.433 96.7537L357.433 96.7537L356.257 95.1359ZM333.871 60.5888C333.871 50.428 341.818 39.981 355.713 39.981V35.981C339.449 35.981 329.871 48.3822 329.871 60.5888H333.871ZM356.313 93.5086C354.589 92.2939 348.911 88.1007 343.683 82.1168C338.414 76.0852 333.871 68.5391 333.871 60.5888H329.871C329.871 69.9984 335.187 78.4715 340.671 84.7483C346.196 91.0727 352.162 95.477 354.009 96.7785L356.313 93.5086ZM355.081 93.518C355.444 93.2542 355.949 93.2519 356.313 93.5086L354.009 96.7785C355.042 97.5059 356.409 97.498 357.433 96.7537L355.081 93.518ZM377.554 60.5888C377.554 68.2799 373.015 75.8051 367.727 81.9056C362.488 87.9488 356.8 92.2686 355.081 93.518L357.433 96.7537C359.267 95.4209 365.227 90.8958 370.749 84.5255C376.221 78.2125 381.554 69.7553 381.554 60.5888H377.554ZM355.713 39.981C369.638 39.981 377.554 49.9006 377.554 60.5888H381.554C381.554 47.7913 371.945 35.981 355.713 35.981V39.981ZM361.781 60.2571C361.781 63.4128 359.223 65.9711 356.067 65.9711V69.9711C361.432 69.9711 365.781 65.622 365.781 60.2571H361.781ZM356.067 54.5432C359.223 54.5432 361.781 57.1015 361.781 60.2571H365.781C365.781 54.8922 361.432 50.5432 356.067 50.5432V54.5432ZM350.353 60.2571C350.353 57.1015 352.911 54.5432 356.067 54.5432V50.5432C350.702 50.5432 346.353 54.8922 346.353 60.2571H350.353ZM356.067 65.9711C352.911 65.9711 350.353 63.4128 350.353 60.2571H346.353C346.353 65.622 350.702 69.9711 356.067 69.9711V65.9711Z" fill="#4397F3" mask="url(#path-13-inside-2_1332_3126)"/>
<mask id="path-15-inside-3_1332_3126" fill="white">
<path fill-rule="evenodd" clip-rule="evenodd" d="M327.23 102.708C315.372 102.708 308.481 111.691 308.481 120.486C308.481 133.963 323.595 145.385 326.683 147.578C327.016 147.815 327.441 147.811 327.771 147.57C330.846 145.318 345.978 133.573 345.978 120.486C345.978 111.251 339.087 102.708 327.23 102.708ZM327.509 126.291C330.859 126.291 333.575 123.575 333.575 120.225C333.575 116.875 330.859 114.159 327.509 114.159C324.158 114.159 321.442 116.875 321.442 120.225C321.442 123.575 324.158 126.291 327.509 126.291Z"/>
</mask>
<path fill-rule="evenodd" clip-rule="evenodd" d="M327.23 102.708C315.372 102.708 308.481 111.691 308.481 120.486C308.481 133.963 323.595 145.385 326.683 147.578C327.016 147.815 327.441 147.811 327.771 147.57C330.846 145.318 345.978 133.573 345.978 120.486C345.978 111.251 339.087 102.708 327.23 102.708ZM327.509 126.291C330.859 126.291 333.575 123.575 333.575 120.225C333.575 116.875 330.859 114.159 327.509 114.159C324.158 114.159 321.442 116.875 321.442 120.225C321.442 123.575 324.158 126.291 327.509 126.291Z" fill="white"/>
<path d="M326.683 147.578L327.841 145.948L327.841 145.948L326.683 147.578ZM327.771 147.57L326.59 145.956H326.59L327.771 147.57ZM310.481 120.486C310.481 112.714 316.557 104.708 327.23 104.708V100.708C314.188 100.708 306.481 110.668 306.481 120.486H310.481ZM327.841 145.948C326.359 144.896 321.953 141.598 317.937 136.955C313.881 132.267 310.481 126.503 310.481 120.486H306.481C306.481 127.946 310.638 134.632 314.912 139.572C319.224 144.558 323.919 148.068 325.525 149.209L327.841 145.948ZM326.59 145.956C326.953 145.69 327.47 145.684 327.841 145.948L325.525 149.209C326.562 149.946 327.93 149.932 328.953 149.184L326.59 145.956ZM343.978 120.486C343.978 126.299 340.583 132.044 336.51 136.788C332.484 141.477 328.069 144.873 326.59 145.956L328.953 149.184C330.548 148.015 335.236 144.412 339.545 139.394C343.807 134.43 347.978 127.759 347.978 120.486H343.978ZM327.23 104.708C337.933 104.708 343.978 112.306 343.978 120.486H347.978C347.978 110.197 340.241 100.708 327.23 100.708V104.708ZM331.575 120.225C331.575 122.471 329.754 124.291 327.509 124.291V128.291C331.963 128.291 335.575 124.68 335.575 120.225H331.575ZM327.509 116.159C329.754 116.159 331.575 117.979 331.575 120.225H335.575C335.575 115.77 331.963 112.159 327.509 112.159V116.159ZM323.442 120.225C323.442 117.979 325.263 116.159 327.509 116.159V112.159C323.054 112.159 319.442 115.77 319.442 120.225H323.442ZM327.509 124.291C325.263 124.291 323.442 122.471 323.442 120.225H319.442C319.442 124.68 323.054 128.291 327.509 128.291V124.291Z" fill="#4397F3" mask="url(#path-15-inside-3_1332_3126)"/>
</svg>
