<svg width="568" height="651" viewBox="0 0 568 651" fill="none" xmlns="http://www.w3.org/2000/svg">
<path d="M283.501 549.013C276.999 547.881 271.213 544.212 267.416 538.814C263.619 533.416 262.122 526.731 263.254 520.229C264.386 513.727 268.055 507.941 273.453 504.144C278.851 500.347 285.537 498.85 292.039 499.982C370.05 513.475 450.228 495.473 514.984 449.926C579.739 404.378 623.784 335.005 637.456 257.025C649.825 185.514 633.323 112.017 591.572 52.6576C549.82 -6.70174 486.227 -47.0759 414.745 -59.6074C349.735 -70.8529 282.919 -55.852 228.956 -17.8955L200.338 -58.5822C265.093 -104.13 345.271 -122.132 423.283 -108.639C507.765 -93.8349 582.924 -46.1215 632.269 24.0322C681.613 94.1859 701.112 181.05 686.487 265.563C670.543 356.543 619.159 437.483 543.609 490.623C468.06 543.763 374.515 564.762 283.501 549.013Z" fill="url(#paint0_linear_1329_2786)"/>
<path fill-rule="evenodd" clip-rule="evenodd" d="M278.129 579.957L278.113 579.954C263.405 577.392 250.317 569.094 241.728 556.882C233.139 544.671 229.753 529.548 232.314 514.841C234.875 500.133 243.174 487.045 255.385 478.456C267.586 469.874 282.695 466.486 297.391 469.036C367.208 481.111 438.963 465 496.916 424.238C554.856 383.484 594.27 321.416 606.514 251.645C617.457 188.338 602.845 123.275 565.884 70.7259C528.924 18.1793 472.633 -17.5642 409.358 -28.6669C352.554 -38.4837 294.175 -25.3725 247.024 7.7924L221.336 25.8607L156.581 -66.2019L182.269 -84.2702C253.828 -134.602 342.429 -154.495 428.635 -139.585L428.669 -139.579L428.703 -139.573C521.379 -123.334 603.827 -70.9932 657.957 5.96399C712.086 82.9211 733.476 178.209 717.433 270.918L717.427 270.951L717.421 270.984C700.042 370.157 644.031 458.386 561.678 516.311C479.324 574.236 377.356 597.127 278.146 579.959L278.129 579.957ZM414.745 -59.6074C486.227 -47.0759 549.82 -6.70174 591.572 52.6576C633.323 112.017 649.825 185.514 637.456 257.025C623.784 335.005 579.739 404.378 514.984 449.926C450.228 495.473 370.05 513.475 292.039 499.982C285.537 498.85 278.851 500.347 273.453 504.144C268.055 507.941 264.386 513.727 263.254 520.229C262.122 526.731 263.619 533.416 267.416 538.814C271.213 544.212 276.999 547.881 283.501 549.013C374.515 564.762 468.06 543.763 543.609 490.623C619.159 437.483 670.543 356.543 686.487 265.563C701.112 181.05 681.613 94.1859 632.269 24.0322C582.924 -46.1215 507.765 -93.8349 423.283 -108.639C355.656 -120.335 286.401 -108.364 226.977 -75.2983C217.851 -70.2206 208.958 -64.6455 200.338 -58.5822L228.956 -17.8955C282.919 -55.852 349.735 -70.8529 414.745 -59.6074Z" fill="url(#paint1_linear_1329_2786)"/>
<rect width="259.848" height="112.256" rx="56.1279" transform="matrix(-0.973074 -0.230492 -0.230492 0.973074 348.251 481.519)" fill="#4397F3"/>
<path d="M142.794 491.856L143.896 486.815L163.982 491.202L162.881 496.244L142.794 491.856ZM162.671 480.148L168.259 481.369L162.284 508.724L156.696 507.503L162.671 480.148ZM144.304 476.136L149.892 477.357L143.917 504.712L138.329 503.491L144.304 476.136ZM173.64 505.595C173.532 506.09 173.571 506.535 173.758 506.931C173.95 507.3 174.247 507.625 174.651 507.904C175.085 508.163 175.576 508.352 176.123 508.471C176.931 508.648 177.702 508.68 178.436 508.567C179.17 508.454 179.798 508.141 180.32 507.627C180.842 507.114 181.211 506.362 181.427 505.372L181.591 507.618C181.341 508.765 180.825 509.689 180.044 510.392C179.268 511.069 178.324 511.518 177.211 511.739C176.13 511.939 174.964 511.903 173.714 511.63C172.489 511.362 171.441 510.915 170.568 510.288C169.695 509.66 169.06 508.88 168.663 507.947C168.298 506.994 168.247 505.918 168.508 504.72C168.776 503.495 169.316 502.522 170.129 501.798C170.974 501.055 172.021 500.574 173.27 500.355C174.544 500.142 175.963 500.207 177.526 500.548C178.49 500.759 179.364 501.072 180.146 501.489C180.929 501.905 181.572 502.333 182.077 502.77C182.582 503.208 182.92 503.596 183.092 503.934L182.554 506.396C181.944 505.689 181.277 505.12 180.552 504.689C179.828 504.258 178.931 503.926 177.863 503.692C177.082 503.522 176.392 503.494 175.793 503.609C175.195 503.724 174.71 503.945 174.338 504.274C173.992 504.607 173.759 505.048 173.64 505.595ZM173.677 497.742L172.6 493.863C173.62 493.567 174.842 493.343 176.268 493.19C177.699 493.011 179.222 493.098 180.837 493.451C182.4 493.793 183.72 494.313 184.795 495.012C185.897 495.716 186.693 496.573 187.182 497.58C187.677 498.562 187.791 499.665 187.524 500.889L184.741 513.629L179.856 512.562L182.46 500.643C182.636 499.835 182.46 499.142 181.932 498.562C181.409 497.957 180.652 497.546 179.662 497.33C178.803 497.142 177.972 497.07 177.171 497.113C176.402 497.136 175.702 497.215 175.072 497.351C174.468 497.492 174.003 497.622 173.677 497.742ZM216.862 508.69L210.014 517.921L205.191 516.008L218.595 500.757L224.457 520.216L219.237 519.936L216.862 508.69ZM221.365 521.629L207.57 518.615L206.802 522.133L201.8 521.04L203.464 513.42L227.068 518.575L225.403 526.196L220.596 525.146L221.365 521.629ZM232.373 514.616C232.782 512.74 233.571 511.193 234.738 509.974C235.931 508.761 237.355 507.925 239.011 507.468C240.693 507.017 242.485 506.999 244.386 507.414C246.288 507.829 247.896 508.59 249.211 509.696C250.551 510.808 251.497 512.161 252.05 513.755C252.628 515.356 252.713 517.094 252.303 518.97C251.899 520.819 251.097 522.364 249.899 523.603C248.732 524.822 247.307 525.658 245.625 526.109C243.97 526.566 242.191 526.587 240.289 526.172C238.387 525.756 236.766 524.993 235.426 523.881C234.112 522.775 233.165 521.422 232.587 519.822C232.04 518.201 231.969 516.466 232.373 514.616ZM237.531 515.743C237.309 516.759 237.321 517.703 237.567 518.576C237.845 519.428 238.301 520.156 238.933 520.758C239.572 521.334 240.334 521.719 241.22 521.912C242.105 522.106 242.958 522.074 243.779 521.816C244.605 521.533 245.309 521.059 245.891 520.394C246.505 519.709 246.922 518.859 247.144 517.843C247.366 516.827 247.341 515.88 247.069 515.001C246.823 514.129 246.381 513.404 245.742 512.828C245.104 512.252 244.342 511.867 243.456 511.674C242.57 511.48 241.717 511.512 240.897 511.77C240.076 512.027 239.359 512.498 238.745 513.183C238.158 513.874 237.753 514.727 237.531 515.743ZM272.465 532.79L272.711 519.292L276.69 513.447L277.662 533.926L272.465 532.79ZM265.058 526.587L276.69 513.447L275.459 520.957L265.01 532.431L265.058 526.587ZM265.01 532.431L260.414 517.671L262.426 510.331L267.403 527.099L265.01 532.431ZM253.004 528.54L262.426 510.331L263.606 517.303L258.201 529.675L253.004 528.54Z" fill="white"/>
<defs>
<linearGradient id="paint0_linear_1329_2786" x1="216.415" y1="496.683" x2="782.201" y2="188.121" gradientUnits="userSpaceOnUse">
<stop stop-color="#4397F3"/>
<stop offset="1" stop-color="white" stop-opacity="0"/>
</linearGradient>
<linearGradient id="paint1_linear_1329_2786" x1="216.415" y1="496.683" x2="782.201" y2="188.121" gradientUnits="userSpaceOnUse">
<stop stop-color="#4397F3"/>
<stop offset="1" stop-color="white" stop-opacity="0"/>
</linearGradient>
</defs>
</svg>
