<svg width="107" height="24" viewBox="0 0 107 24" fill="none" xmlns="http://www.w3.org/2000/svg">
<path d="M42.17 6.05493L42.6456 7.99695C42.6456 7.99695 42.0907 8.11585 40.9017 8.90851C39.7524 9.66154 38.9994 10.6524 38.9994 10.6524V18.2223H35.3135V6.05493H37.1762L38.286 7.64025C38.8012 7.20429 39.3957 6.84759 40.0694 6.53053C40.8225 6.21346 41.4962 6.05493 42.17 6.05493Z" fill="black"/>
<path d="M49.3441 5.69824C51.2464 5.69824 52.6732 6.33237 53.5848 7.561C54.4964 8.82925 54.972 10.2957 54.972 11.9999V13.1889H47.0453C47.2039 13.8627 47.5606 14.4175 48.0758 14.7742C48.591 15.1705 49.2648 15.3687 50.0971 15.3687C50.652 15.3687 51.1672 15.2894 51.6428 15.1705C52.1184 15.0516 52.6336 14.8535 53.1885 14.576L54.2586 17.1918C53.6244 17.6674 52.8714 17.9845 51.9995 18.1827C51.1275 18.3808 50.4142 18.4601 49.8989 18.4601C47.838 18.4601 46.213 17.9052 44.9448 16.7955C43.7162 15.6858 43.082 14.1401 43.082 12.1188C43.082 10.1371 43.6765 8.59146 44.8259 7.4421C45.9752 6.29274 47.4813 5.69824 49.3441 5.69824ZM49.2648 8.74999C48.7099 8.74999 48.1947 8.94815 47.7984 9.30485C47.402 9.66155 47.1246 10.1768 47.0057 10.8505H51.4446C51.3257 10.2164 51.0879 9.70118 50.7312 9.30485C50.3745 8.94815 49.8593 8.74999 49.2648 8.74999Z" fill="black"/>
<path d="M63.0569 18.6186C61.5508 18.6186 60.3222 18.2223 59.3314 17.4693C58.3405 16.7162 57.8649 15.5669 57.8649 14.1004V9.06704H56.1211V6.21346H57.8649V3.24098L61.5112 2.64648V6.21346H63.9684L64.7611 9.06704H61.5112V13.5059C61.5112 14.1004 61.6697 14.576 61.9472 14.9327C62.2246 15.2894 62.7002 15.4876 63.255 15.4876C63.4532 15.4876 63.691 15.448 63.9684 15.3687C64.2459 15.2894 64.4837 15.2102 64.7215 15.0913L65.7916 17.7071C65.5141 17.9449 65.0782 18.143 64.5233 18.3015C64.0081 18.5393 63.5325 18.6186 63.0569 18.6186Z" fill="black"/>
<path d="M72.1919 6C73.698 6 74.9662 6.43596 75.9174 7.30789C76.9083 8.17982 77.3839 9.28955 77.3839 10.6767V18.524H75.6004L74.8077 17.5332C74.3717 17.8899 73.8962 18.207 73.262 18.4448C72.6675 18.6826 72.0334 18.8015 71.3993 18.8015C69.8932 18.8015 68.7835 18.4448 68.0701 17.6918C67.3567 16.9387 67 15.9875 67 14.7589C67 13.4906 67.436 12.5395 68.3079 11.8657C69.1798 11.2316 70.2895 10.8749 71.6767 10.8749H73.7376C73.698 10.3596 73.5395 9.96331 73.1828 9.64624C72.8657 9.32918 72.4297 9.21028 71.8749 9.21028C71.3596 9.21028 70.7651 9.28954 70.131 9.44808C69.4969 9.60661 68.942 9.76514 68.4664 10.0029L67.4756 7.10973C67.9908 6.79266 68.7439 6.55486 69.695 6.31706C70.6859 6.1189 71.5182 6 72.1919 6ZM71.3596 15.829C71.756 15.829 72.1523 15.7497 72.5486 15.5516C72.945 15.393 73.3413 15.1156 73.698 14.7985V13.2529H71.5974C71.1218 13.2529 70.7255 13.4114 70.4877 13.6888C70.2103 13.9662 70.0914 14.3229 70.0914 14.6796C70.0914 14.9967 70.2103 15.2345 70.4481 15.4723C70.6859 15.7101 71.0029 15.829 71.3596 15.829Z" fill="black"/>
<path d="M84.6174 2.32947C84.6174 2.88434 84.4192 3.35993 84.0229 3.75627C83.6265 4.1526 83.1113 4.35076 82.5564 4.35076C82.0016 4.35076 81.526 4.1526 81.1297 3.75627C80.7333 3.35993 80.5352 2.88434 80.5352 2.32947C80.5352 1.77461 80.7333 1.25938 81.1297 0.863051C81.526 0.46672 82.0016 0.268555 82.5564 0.268555C83.1113 0.268555 83.6265 0.46672 84.0229 0.863051C84.4192 1.25938 84.6174 1.73498 84.6174 2.32947ZM84.3796 6.05498V18.1827H80.6937V6.05498H84.3796Z" fill="black"/>
<path d="M91.3943 0.506348V18.1827H87.748V0.783779L91.3943 0.506348Z" fill="black"/>
<path d="M97.3393 18.579L97.7752 17.5485L93.376 6.4909L97.0618 6.05493C97.4978 7.24392 97.9734 8.47255 98.4094 9.66154C98.8453 10.8505 99.3209 12.0792 99.7173 13.2681L102.254 6.05493H106.059L100.668 19.7283C100.272 20.7192 99.5587 21.5515 98.6075 22.2649C97.6167 22.9783 96.5863 23.4538 95.4369 23.7313L94.1686 20.7588C94.7631 20.521 95.3973 20.2436 96.0314 19.8869C96.6655 19.5302 97.1411 19.0942 97.3393 18.579Z" fill="black"/>
<path d="M28.2187 7.95736C28.2187 7.95736 26.0786 8.43296 21.5604 11.4054C17.28 14.259 14.4264 17.826 14.1886 18.1431H9.67047L0 0.625247H7.25285L11.4936 6.80801C13.4356 5.22268 15.7343 3.75626 18.4294 2.44837C21.1244 1.18011 23.7798 0.506348 26.3164 0.506348L28.2187 7.95736Z" fill="#0C97F9"/>
</svg>
