<svg width="13" height="11" viewBox="0 0 13 11" fill="none" xmlns="http://www.w3.org/2000/svg">
<path fill-rule="evenodd" clip-rule="evenodd" d="M1.7223 2.06879C1.81251 1.89044 1.99799 1.76668 2.20959 1.76668H10.9368C11.1484 1.76668 11.3339 1.89046 11.4241 2.06884L6.57324 5.46446L1.7223 2.06879ZM1.66414 3.3597V8.85754C1.66414 9.15629 1.91084 9.40299 2.20959 9.40299H10.9368C11.2355 9.40299 11.4822 9.15629 11.4822 8.85754V3.35977L6.88604 6.57711C6.69823 6.70858 6.44826 6.70858 6.26045 6.57711L1.66414 3.3597ZM12.5731 2.32175V8.85754C12.5731 9.75877 11.838 10.4939 10.9368 10.4939H2.20959C1.30835 10.4939 0.573242 9.75877 0.573242 8.85754V2.31213C0.573242 1.41089 1.30835 0.675781 2.20959 0.675781H10.9368C11.8337 0.675781 12.566 1.40378 12.5731 2.29904C12.5733 2.30661 12.5733 2.31418 12.5731 2.32175Z" fill="#4397F3"/>
</svg>
