<svg width="13" height="13" viewBox="0 0 13 13" fill="none" xmlns="http://www.w3.org/2000/svg">
<path d="M12.2176 8.81984L12.176 10.4752C12.1729 10.629 12.1376 10.7812 12.0723 10.9221C12.0071 11.063 11.9134 11.1895 11.7972 11.2934C11.681 11.3973 11.5448 11.4763 11.3976 11.5254C11.2503 11.5746 11.0952 11.5926 10.942 11.5786C9.24493 11.3939 7.62489 10.8136 6.21209 9.88426C4.89711 9.03707 3.7926 7.90671 2.97699 6.57347C2.07839 5.13397 1.53782 3.495 1.39907 1.78937C1.38908 1.63677 1.41113 1.48297 1.46381 1.33777C1.51649 1.19256 1.59866 1.05914 1.70506 0.946002C1.81147 0.832863 1.93978 0.742486 2.08184 0.680629C2.22389 0.618771 2.37657 0.58679 2.53014 0.586723L4.18928 0.586723C4.45776 0.584105 4.71557 0.678982 4.91465 0.853662C5.11373 1.02834 5.3721 1.63684 5.51835 2.19353C5.66833 2.76445 5.7 3.49862 5.6507 3.70503C5.6014 3.91145 5.49411 4.10091 5.34157 4.25095V4.25095C4.91635 4.66434 4.8056 5.31055 5.13891 5.78361C5.66343 6.52806 6.30366 7.18321 7.03624 7.72515C7.50194 8.06967 8.15102 7.97556 8.57666 7.56174V7.56174C8.73082 7.41339 8.92328 7.31115 9.13125 7.26715C9.33922 7.22314 9.98028 7.28622 10.5503 7.4522C11.0995 7.61211 11.804 7.87211 11.9743 8.07874C12.1445 8.28537 12.2311 8.54912 12.2176 8.81984Z" stroke="#4397F3" stroke-linecap="round" stroke-linejoin="round"/>
</svg>
