<svg width="1374" height="458" viewBox="0 0 1374 458" fill="none" xmlns="http://www.w3.org/2000/svg">
<path d="M73.3086 208.138H142.26L246.372 357H169.201L73.3086 208.138ZM0.704054 37.3574H66.0025V357H0.704054V37.3574ZM40.4311 93.0665V37.3574H108.013C133.28 37.3574 154.741 41.6193 172.398 50.1431C190.054 58.6669 203.601 70.5393 213.038 85.7604C222.475 100.981 227.194 118.79 227.194 139.186C227.194 159.278 222.475 177.087 213.038 192.612C203.601 207.833 190.054 219.706 172.398 228.23C154.741 236.754 133.28 241.015 108.013 241.015H40.4311V188.959H103.903C115.471 188.959 125.365 187.133 133.584 183.48C142.108 179.522 148.653 174.043 153.219 167.041C157.786 159.735 160.069 151.059 160.069 141.013C160.069 130.967 157.786 122.443 153.219 115.442C148.653 108.135 142.108 102.656 133.584 99.0028C125.365 95.0453 115.471 93.0665 103.903 93.0665H40.4311ZM382.046 361.566C359.214 361.566 339.274 357 322.227 347.867C305.179 338.735 291.937 326.101 282.5 309.967C273.367 293.528 268.801 274.197 268.801 251.975C268.801 229.447 273.367 210.117 282.5 193.982C291.937 177.544 305.179 164.91 322.227 156.082C339.274 146.949 359.366 142.383 382.502 142.383C405.638 142.383 425.273 146.645 441.408 155.169C457.846 163.388 470.328 175.565 478.852 191.699C487.375 207.529 491.637 226.708 491.637 249.235C491.637 251.975 491.485 254.867 491.181 257.911C491.181 260.955 491.028 263.39 490.724 265.217H302.591V228.686H439.125L423.142 249.691C424.36 247.865 425.426 245.43 426.339 242.385C427.557 239.037 428.165 236.297 428.165 234.166C428.165 223.816 426.187 214.987 422.229 207.681C418.576 200.375 413.249 194.591 406.247 190.329C399.245 186.067 391.026 183.936 381.589 183.936C370.021 183.936 360.279 186.524 352.364 191.699C344.754 196.57 338.818 204.028 334.556 214.074C330.598 223.816 328.467 235.992 328.163 250.605C328.163 264.608 330.142 276.481 334.099 286.222C338.361 295.963 344.602 303.422 352.821 308.597C361.04 313.772 370.934 316.36 382.502 316.36C395.592 316.36 406.704 313.924 415.836 309.054C425.273 303.878 433.036 296.268 439.125 286.222L490.724 302.204C479.765 321.992 465.153 336.908 446.887 346.954C428.926 356.696 407.313 361.566 382.046 361.566ZM513.87 146.949H643.553V196.722H513.87V146.949ZM549.943 73.888H607.023V357H549.943V73.888ZM721.612 291.702C721.612 297.79 723.134 303.117 726.179 307.684C729.223 311.946 733.332 315.294 738.508 317.73C743.987 319.861 749.923 320.926 756.316 320.926C765.449 320.926 773.668 319.1 780.974 315.446C788.281 311.489 794.217 306.009 798.783 299.008C803.349 291.702 805.633 283.026 805.633 272.98L812.939 300.378C812.939 313.772 809.133 325.036 801.523 334.168C794.217 343.301 784.628 350.151 772.755 354.717C761.187 359.283 749.01 361.566 736.224 361.566C723.134 361.566 710.958 358.979 699.694 353.804C688.43 348.628 679.298 341.17 672.296 331.429C665.599 321.383 662.25 309.206 662.25 294.898C662.25 274.502 669.404 258.367 683.712 246.495C698.02 234.623 718.264 228.686 744.444 228.686C757.838 228.686 769.559 230.056 779.605 232.796C789.955 235.536 798.631 238.884 805.633 242.842C812.634 246.799 817.657 250.605 820.701 254.258V281.656C812.482 275.567 803.197 271.001 792.847 267.957C782.801 264.912 772.146 263.39 760.883 263.39C751.75 263.39 744.292 264.608 738.508 267.043C732.724 269.174 728.462 272.371 725.722 276.633C722.982 280.59 721.612 285.613 721.612 291.702ZM698.781 206.311L676.862 166.128C687.821 160.344 701.216 154.864 717.046 149.689C732.876 144.209 750.532 141.47 770.015 141.47C787.976 141.47 803.958 144.057 817.962 149.232C831.965 154.407 842.924 162.018 850.839 172.064C858.754 181.805 862.712 193.83 862.712 208.138V357H805.633V220.467C805.633 214.683 804.719 209.812 802.893 205.855C801.066 201.593 798.174 198.092 794.217 195.352C790.564 192.612 786.15 190.634 780.974 189.416C775.799 188.198 770.015 187.589 763.622 187.589C753.881 187.589 744.596 188.655 735.768 190.786C726.94 192.917 719.329 195.504 712.936 198.549C706.543 201.593 701.825 204.18 698.781 206.311ZM919.555 65.6686C919.555 55.9271 923.056 48.0122 930.058 41.9237C937.059 35.5309 945.431 32.3344 955.173 32.3344C964.914 32.3344 973.133 35.5309 979.831 41.9237C986.832 48.0122 990.333 55.9271 990.333 65.6686C990.333 75.1057 986.832 83.0206 979.831 89.4135C973.133 95.8063 964.914 99.0028 955.173 99.0028C945.431 99.0028 937.059 95.8063 930.058 89.4135C923.056 83.0206 919.555 75.1057 919.555 65.6686ZM925.948 146.949H983.484V357H925.948V146.949ZM1050.83 0.826821H1110.19V357H1050.83V0.826821ZM1373.13 146.949L1236.14 457.459H1175.4L1228.37 335.995L1141.16 146.949H1206.91L1274.49 314.077L1245.27 313.163L1311.48 146.949H1373.13Z" fill="url(#paint0_linear_1329_1896)"/>
<defs>
<linearGradient id="paint0_linear_1329_1896" x1="697.226" y1="72.2017" x2="668.5" y2="390.267" gradientUnits="userSpaceOnUse">
<stop stop-color="#4397F3"/>
<stop offset="1" stop-color="#4397F3" stop-opacity="0"/>
</linearGradient>
</defs>
</svg>
